<svg width="24.000000" height="24.000000" viewBox="0 0 24 24" fill="none" xmlns="http://www.w3.org/2000/svg" xmlns:xlink="http://www.w3.org/1999/xlink">
	<desc>
			Created with Pixso.
	</desc>
	<defs>
		<clipPath id="clip1_1558">
			<rect width="24.000000" height="24.000000" fill="white" fill-opacity="0"/>
		</clipPath>
	</defs>
	<rect width="24.000000" height="24.000000" fill="#FFFFFF" fill-opacity="0"/>
	<g clip-path="url(#clip1_1558)">
		<path d="M12 2C17.52 2 22 6.47 22 12C22 17.52 17.52 22 12 22C6.48 22 2 17.52 2 12C2 6.47 6.48 2 12 2ZM12 4C7.57 4 4 7.58 4 12C4 16.41 7.57 20 12 20C16.42 20 20 16.41 20 12C20 7.58 16.42 4 12 4ZM12 7C13.82 7 15.41 7.97 16.28 9.42L14.57 10.45C14.3 10 13.92 9.63 13.46 9.38C13 9.12 12.48 8.99 11.96 9C11.43 9 10.92 9.15 10.47 9.41C10.02 9.68 9.64 10.06 9.39 10.52C9.13 10.97 8.99 11.49 9 12.01C9 12.54 9.14 13.05 9.4 13.5C9.67 13.96 10.05 14.33 10.5 14.6C10.96 14.86 11.47 15 12 15C12.51 15 13.02 14.86 13.47 14.61C13.92 14.35 14.3 13.98 14.57 13.54L16.28 14.57C15.72 15.51 14.87 16.23 13.85 16.64C12.84 17.05 11.71 17.11 10.66 16.82C9.61 16.52 8.68 15.89 8.01 15.02C7.35 14.15 6.99 13.09 7 12C7 9.24 9.23 7 12 7Z" fill="#1B1B1B" fill-opacity="1.000000" fill-rule="nonzero"/>
	</g>
</svg>
