<svg width="18.000000" height="18.000000" viewBox="0 0 18 18" fill="none"
  xmlns="http://www.w3.org/2000/svg">

  <!-- navigation -->

  <g id="home">
    <defs>
      <clipPath id="clip1_1586">
        <rect width="18.000000" height="18.000000" fill="white" fill-opacity="0"/>
      </clipPath>
    </defs>
    <rect width="18.000000" height="18.000000" fill="#FFFFFF" fill-opacity="0"/>
    <g clip-path="url(#clip1_1586)">
      <path d="M14.99 15C14.99 15.19 14.92 15.38 14.78 15.53C14.63 15.67 14.44 15.75 14.24 15.75L3.74 15.75C3.55 15.75 3.36 15.67 3.21 15.53C3.07 15.38 2.99 15.19 2.99 15L2.99 8.25L0.74 8.25L8.49 1.2C8.63 1.08 8.81 1.01 8.99 1.01C9.18 1.01 9.36 1.08 9.5 1.2L17.24 8.25L14.99 8.25L14.99 15Z" fill-opacity="1.000000" fill-rule="nonzero"/>
    </g>
  </g>

  <g id="services">
    <defs>
      <clipPath id="clip1_1599">
        <rect width="16.500000" height="18.000000" transform="translate(1.000000 0.000000)" fill="white" fill-opacity="0"/>
      </clipPath>
      <clipPath id="clip1_1598">
        <rect width="18.000000" height="18.000000" fill="white" fill-opacity="0"/>
      </clipPath>
    </defs>
    <g clip-path="url(#clip1_1598)">
      <rect width="16.500000" height="18.000000" transform="translate(1.000000 0.000000)" fill="#000000" fill-opacity="0"/>
      <g clip-path="url(#clip1_1599)">
        <path d="M17.5 4.28L17.5 4.5L12 4.5L12 0L12.26 0C12.53 0 12.79 0.08 12.98 0.24L17.19 3.69C17.39 3.84 17.5 4.06 17.5 4.28ZM11.65 5.62C11.08 5.62 10.62 5.24 10.62 4.78L10.62 0L2.03 0C1.46 0 1 0.37 1 0.84L1 17.15C1 17.62 1.46 18 2.03 18L16.46 18C17.03 18 17.5 17.62 17.5 17.15L17.5 5.62L11.65 5.62ZM6.29 14.08C6.27 14.09 6.24 14.11 6.22 14.12C6.19 14.13 6.16 14.13 6.13 14.14C6.1 14.14 6.07 14.13 6.04 14.12C6.01 14.11 5.98 14.1 5.96 14.08L3.17 11.95C3.15 11.93 3.13 11.91 3.12 11.88C3.11 11.86 3.1 11.83 3.1 11.81C3.1 11.78 3.11 11.76 3.12 11.73C3.13 11.71 3.15 11.69 3.17 11.67L5.96 9.53C5.98 9.51 6.01 9.5 6.04 9.49C6.07 9.48 6.1 9.48 6.13 9.48C6.16 9.48 6.19 9.49 6.22 9.5C6.24 9.51 6.27 9.52 6.29 9.54L7.13 10.27C7.15 10.29 7.17 10.31 7.18 10.34C7.19 10.36 7.19 10.39 7.19 10.41C7.19 10.44 7.18 10.46 7.17 10.49C7.16 10.51 7.14 10.53 7.11 10.55L5.36 11.81L7.11 13.07C7.14 13.09 7.16 13.11 7.17 13.13C7.18 13.15 7.19 13.18 7.19 13.2C7.19 13.23 7.19 13.25 7.18 13.28C7.17 13.3 7.15 13.32 7.13 13.34L6.29 14.08ZM8.49 15.85L7.31 15.57C7.25 15.56 7.2 15.52 7.17 15.48C7.15 15.43 7.14 15.38 7.16 15.33L9.8 7.89C9.81 7.85 9.85 7.81 9.91 7.78C9.96 7.76 10.02 7.75 10.08 7.77L11.26 8.05C11.29 8.05 11.32 8.06 11.34 8.08C11.37 8.1 11.39 8.11 11.4 8.14C11.42 8.16 11.43 8.18 11.43 8.21C11.43 8.23 11.43 8.26 11.42 8.28L8.78 15.72C8.77 15.74 8.76 15.77 8.74 15.79C8.72 15.81 8.7 15.82 8.67 15.83C8.64 15.85 8.61 15.85 8.58 15.86C8.55 15.86 8.52 15.86 8.49 15.85ZM15.4 11.95L12.61 14.08C12.59 14.1 12.57 14.11 12.54 14.12C12.51 14.13 12.48 14.14 12.45 14.14C12.42 14.13 12.39 14.13 12.36 14.12C12.33 14.11 12.31 14.09 12.29 14.08L11.45 13.34C11.42 13.32 11.41 13.3 11.4 13.28C11.39 13.25 11.38 13.23 11.38 13.2C11.38 13.18 11.39 13.15 11.41 13.13C11.42 13.11 11.44 13.09 11.46 13.07L13.21 11.81L11.46 10.55C11.44 10.53 11.42 10.51 11.41 10.49C11.39 10.46 11.38 10.44 11.38 10.41C11.38 10.39 11.39 10.36 11.4 10.34C11.41 10.31 11.42 10.29 11.45 10.27L12.29 9.54C12.31 9.52 12.33 9.51 12.36 9.5C12.39 9.49 12.42 9.48 12.45 9.48C12.48 9.48 12.51 9.48 12.54 9.49C12.57 9.5 12.59 9.51 12.61 9.53L15.4 11.67C15.43 11.69 15.44 11.71 15.46 11.73C15.47 11.76 15.48 11.78 15.48 11.81C15.48 11.83 15.47 11.86 15.46 11.88C15.44 11.91 15.43 11.93 15.4 11.95Z" fill-opacity="1.000000" fill-rule="nonzero"/>
      </g>
    </g>
  </g>

  <g id="cv">
    <defs>
      <clipPath id="clip1_1601">
        <rect width="18.000000" height="18.000000" fill="white" fill-opacity="0"/>
      </clipPath>
    </defs>
    <rect width="18.000000" height="18.000000" fill="#FFFFFF" fill-opacity="0"/>
    <g clip-path="url(#clip1_1601)">
      <path d="M12.76 11.27L9.25 14.62L5.73 11.27C3.1 11.38 1 13.43 1 15.97L1 16.31C1 17.24 1.79 18 2.76 18L15.73 18C16.7 18 17.5 17.24 17.5 16.31L17.5 15.97C17.5 13.43 15.39 11.38 12.76 11.27ZM1.5 2.8L1.73 2.85L1.73 4.91C1.47 5.06 1.29 5.31 1.29 5.62C1.29 5.92 1.46 6.16 1.7 6.31L1.12 8.5C1.06 8.75 1.2 9 1.4 9L2.94 9C3.15 9 3.29 8.75 3.22 8.5L2.65 6.31C2.89 6.16 3.06 5.92 3.06 5.62C3.06 5.31 2.87 5.06 2.62 4.91L2.62 3.06L5.05 3.62C4.73 4.22 4.53 4.9 4.53 5.62C4.53 8.11 6.64 10.12 9.25 10.12C11.85 10.12 13.96 8.11 13.96 5.62C13.96 4.9 13.76 4.22 13.44 3.62L16.99 2.8C17.66 2.65 17.66 1.85 16.99 1.69L9.98 0.08C9.5 -0.03 8.99 -0.03 8.52 0.08L1.5 1.69C0.83 1.85 0.83 2.65 1.5 2.8Z" fill-opacity="1.000000" fill-rule="nonzero"/>
    </g>
  </g>

  <g id="portfolio">
    <defs>
      <clipPath id="clip1_1589">
        <rect width="18.000000" height="18.000000" fill="white" fill-opacity="0"/>
      </clipPath>
    </defs>
    <rect width="18.000000" height="18.000000" fill="#727272" fill-opacity="0"/>
    <g clip-path="url(#clip1_1589)">
      <path d="M6.75 9.75L6.75 12L11.25 12L11.25 9.75L16.5 9.75L16.5 15C16.5 15.19 16.42 15.38 16.28 15.53C16.13 15.67 15.94 15.75 15.75 15.75L2.25 15.75C2.05 15.75 1.86 15.67 1.71 15.53C1.57 15.38 1.5 15.19 1.5 15L1.5 9.75L6.75 9.75ZM8.25 8.25L9.75 8.25L9.75 10.5L8.25 10.5L8.25 8.25ZM5.25 3.75L5.25 1.5C5.25 1.3 5.32 1.11 5.46 0.96C5.61 0.82 5.8 0.75 6 0.75L12 0.75C12.19 0.75 12.38 0.82 12.53 0.96C12.67 1.11 12.75 1.3 12.75 1.5L12.75 3.75L15.75 3.75C15.94 3.75 16.13 3.82 16.28 3.96C16.42 4.11 16.5 4.3 16.5 4.5L16.5 8.25L11.25 8.25L11.25 6.75L6.75 6.75L6.75 8.25L1.5 8.25L1.5 4.5C1.5 4.3 1.57 4.11 1.71 3.96C1.86 3.82 2.05 3.75 2.25 3.75L5.25 3.75ZM6.75 2.25L6.75 3.75L11.25 3.75L11.25 2.25L6.75 2.25Z" fill-opacity="1.000000" fill-rule="nonzero"/>
    </g>
  </g>

  <g id="blog">
    <defs>
      <clipPath id="clip1_1592">
        <rect width="18.000000" height="18.000000" fill="white" fill-opacity="0"/>
      </clipPath>
    </defs>
    <rect width="18.000000" height="18.000000" fill="#FFFFFF" fill-opacity="0"/>
    <g clip-path="url(#clip1_1592)">
      <path d="M15.75 1.5C4.5 1.5 3 12 2.25 16.5L3.74 16.5C4.24 14 5.49 12.62 7.5 12.37C10.5 12 12.75 9.37 13.5 7.12L12.37 6.37L13.12 5.62C13.87 4.87 14.62 3.75 15.75 1.5Z" fill-opacity="1.000000" fill-rule="nonzero"/>
    </g>
  </g>

  <g id="contact">
    <defs>
      <clipPath id="clip1_1595">
        <rect width="18.000000" height="18.000000" fill="white" fill-opacity="0"/>
      </clipPath>
    </defs>
    <rect width="18.000000" height="18.000000" fill="#727272" fill-opacity="0"/>
    <g clip-path="url(#clip1_1595)">
      <path d="M4.84 14.25L1.5 16.87L1.5 3C1.5 2.8 1.57 2.61 1.71 2.46C1.86 2.32 2.05 2.25 2.25 2.25L15.75 2.25C15.94 2.25 16.13 2.32 16.28 2.46C16.42 2.61 16.5 2.8 16.5 3L16.5 13.5C16.5 13.69 16.42 13.88 16.28 14.03C16.13 14.17 15.94 14.25 15.75 14.25L4.84 14.25Z" fill-opacity="1.000000" fill-rule="nonzero"/>
    </g>
  </g>

  <!-- social -->

  <g id="facebook">
    <defs>
      <clipPath id="clip1_1459">
        <rect id="Icons-facebook" width="14.000000" height="14.000000" fill="white" fill-opacity="0"/>
      </clipPath>
    </defs>
    <rect id="Icons-facebook" width="14.000000" height="14.000000" fill="#FFFFFF" fill-opacity="0"/>
    <g clip-path="url(#clip1_1459)">
      <path id="Vector" d="M8.16 7.87L9.62 7.87L10.2 5.54L8.16 5.54L8.16 4.37C8.16 3.77 8.16 3.2 9.33 3.2L10.2 3.2L10.2 1.24C10.01 1.22 9.3 1.16 8.54 1.16C6.95 1.16 5.83 2.13 5.83 3.9L5.83 5.54L4.08 5.54L4.08 7.87L5.83 7.87L5.83 12.83L8.16 12.83L8.16 7.87Z" fill-opacity="1.000000" fill-rule="nonzero"/>
    </g>
  </g>

  <g id="instagram">
    <defs>
      <clipPath id="clip1_1462">
        <rect id="Icons-instagram" width="14.000000" height="14.000000" fill="white" fill-opacity="0"/>
      </clipPath>
    </defs>
    <rect id="Icons-instagram" width="14.000000" height="14.000000" fill="#FFFFFF" fill-opacity="0"/>
    <g clip-path="url(#clip1_1462)">
      <path id="Vector" d="M7 1.16C8.58 1.16 8.78 1.17 9.4 1.2C10.02 1.23 10.44 1.32 10.82 1.47C11.2 1.62 11.53 1.82 11.85 2.14C12.15 2.43 12.38 2.78 12.52 3.17C12.67 3.55 12.76 3.97 12.79 4.59C12.82 5.21 12.83 5.41 12.83 7C12.83 8.58 12.82 8.78 12.79 9.4C12.76 10.02 12.67 10.44 12.52 10.82C12.38 11.21 12.15 11.56 11.85 11.85C11.56 12.15 11.21 12.38 10.82 12.52C10.44 12.67 10.02 12.76 9.4 12.79C8.78 12.82 8.58 12.83 7 12.83C5.41 12.83 5.21 12.82 4.59 12.79C3.97 12.76 3.55 12.67 3.17 12.52C2.78 12.38 2.43 12.15 2.14 11.85C1.84 11.56 1.61 11.21 1.47 10.82C1.32 10.44 1.23 10.02 1.2 9.4C1.17 8.78 1.16 8.58 1.16 7C1.16 5.41 1.17 5.21 1.2 4.59C1.23 3.97 1.32 3.55 1.47 3.17C1.61 2.78 1.84 2.43 2.14 2.14C2.43 1.84 2.78 1.61 3.17 1.47C3.55 1.32 3.97 1.23 4.59 1.2C5.21 1.17 5.41 1.16 7 1.16ZM7 4.08C6.22 4.08 5.48 4.39 4.93 4.93C4.39 5.48 4.08 6.22 4.08 7C4.08 7.77 4.39 8.51 4.93 9.06C5.48 9.6 6.22 9.91 7 9.91C7.77 9.91 8.51 9.6 9.06 9.06C9.6 8.51 9.91 7.77 9.91 7C9.91 6.22 9.6 5.48 9.06 4.93C8.51 4.39 7.77 4.08 7 4.08ZM10.79 3.93C10.79 3.74 10.71 3.55 10.57 3.42C10.44 3.28 10.25 3.2 10.06 3.2C9.86 3.2 9.68 3.28 9.54 3.42C9.41 3.55 9.33 3.74 9.33 3.93C9.33 4.13 9.41 4.31 9.54 4.45C9.68 4.58 9.86 4.66 10.06 4.66C10.25 4.66 10.44 4.58 10.57 4.45C10.71 4.31 10.79 4.13 10.79 3.93ZM7 5.25C7.46 5.25 7.9 5.43 8.23 5.76C8.56 6.09 8.75 6.53 8.75 7C8.75 7.46 8.56 7.9 8.23 8.23C7.9 8.56 7.46 8.75 7 8.75C6.53 8.75 6.09 8.56 5.76 8.23C5.43 7.9 5.25 7.46 5.25 7C5.25 6.53 5.43 6.09 5.76 5.76C6.09 5.43 6.53 5.25 7 5.25Z" fill-opacity="1.000000" fill-rule="nonzero"/>
    </g>
  </g>

  <g id="twitter">
    <defs>
      <clipPath id="clip1_1465">
        <rect id="Icons-twitter" width="14.000000" height="14.000000" fill="white" fill-opacity="0"/>
      </clipPath>
    </defs>
    <rect id="Icons-twitter" width="14.000000" height="14.000000" fill="#FFFFFF" fill-opacity="0"/>
    <g clip-path="url(#clip1_1465)">
      <path id="Vector" d="M12.92 3.29C12.48 3.49 12.01 3.62 11.52 3.68C12.03 3.37 12.41 2.89 12.6 2.33C12.12 2.61 11.59 2.81 11.05 2.92C10.68 2.53 10.19 2.27 9.66 2.18C9.13 2.09 8.59 2.18 8.11 2.44C7.64 2.69 7.26 3.09 7.04 3.58C6.82 4.07 6.77 4.62 6.89 5.15C5.92 5.1 4.97 4.84 4.1 4.41C3.24 3.97 2.47 3.35 1.86 2.6C1.64 2.97 1.53 3.39 1.53 3.82C1.53 4.67 1.96 5.42 2.62 5.85C2.23 5.84 1.85 5.74 1.51 5.55L1.51 5.58C1.51 6.14 1.71 6.69 2.06 7.12C2.42 7.56 2.92 7.86 3.47 7.97C3.11 8.07 2.73 8.08 2.37 8.01C2.52 8.5 2.82 8.92 3.23 9.23C3.64 9.53 4.14 9.7 4.64 9.71C4.14 10.11 3.56 10.4 2.94 10.57C2.32 10.75 1.67 10.8 1.03 10.72C2.15 11.44 3.45 11.82 4.77 11.81C9.26 11.81 11.71 8.1 11.71 4.87C11.71 4.77 11.71 4.66 11.71 4.56C12.18 4.21 12.6 3.79 12.92 3.3L12.92 3.29Z" fill-opacity="1.000000" fill-rule="nonzero"/>
    </g>
  </g>

  <g id="linkedin">
    <defs>
      <clipPath id="clip1_1468">
        <rect id="Icons-linkedin" width="14.000000" height="14.000000" fill="white" fill-opacity="0"/>
      </clipPath>
    </defs>
    <rect id="Icons-linkedin" width="14.000000" height="14.000000" fill="#FFFFFF" fill-opacity="0"/>
    <g clip-path="url(#clip1_1468)">
      <path id="Vector" d="M4.04 2.91C4.04 3.22 3.92 3.52 3.7 3.74C3.48 3.96 3.19 4.08 2.88 4.08C2.57 4.08 2.27 3.95 2.05 3.74C1.83 3.52 1.71 3.22 1.71 2.91C1.71 2.6 1.83 2.3 2.05 2.09C2.27 1.87 2.57 1.74 2.88 1.74C3.19 1.74 3.48 1.87 3.7 2.09C3.92 2.31 4.04 2.6 4.04 2.91ZM4.08 4.94L1.74 4.94L1.74 12.25L4.08 12.25L4.08 4.94ZM7.76 4.94L5.44 4.94L5.44 12.25L7.74 12.25L7.74 8.41C7.74 6.28 10.52 6.08 10.52 8.41L10.52 12.25L12.83 12.25L12.83 7.62C12.83 4.02 8.71 4.15 7.74 5.92L7.76 4.94Z" fill-opacity="1" fill-rule="nonzero"/>
    </g>
  </g>

  <g id="youtube">
    <defs>
      <clipPath id="clip1_1474">
        <rect id="Icons-Youtube" width="14.000000" height="14.000000" fill="white" fill-opacity="0"/>
      </clipPath>
    </defs>
    <rect id="Icons-Youtube" width="14.000000" height="14.000000" fill="#FFFFFF" fill-opacity="0"/>
    <g clip-path="url(#clip1_1474)">
      <path id="Vector" d="M12.56 3.79C12.83 4.83 12.83 7 12.83 7C12.83 7 12.83 9.16 12.56 10.2C12.41 10.78 11.98 11.23 11.43 11.38C10.43 11.66 7 11.66 7 11.66C7 11.66 3.56 11.66 2.56 11.38C2.01 11.23 1.57 10.78 1.43 10.2C1.16 9.16 1.16 7 1.16 7C1.16 7 1.16 4.83 1.43 3.79C1.58 3.21 2.01 2.76 2.56 2.61C3.56 2.33 7 2.33 7 2.33C7 2.33 10.43 2.33 11.43 2.61C11.98 2.76 12.42 3.21 12.56 3.79ZM5.83 9.04L9.33 7L5.83 4.95L5.83 9.04Z" fill-opacity="1.000000" fill-rule="nonzero"/>
    </g>
  </g>

  <g id="dribbble">
    <defs>
      <clipPath id="clip1_1471">
        <rect id="Icons-dribbble" width="14.000000" height="14.000000" fill="white" fill-opacity="0"/>
      </clipPath>
    </defs>
    <rect id="Icons-dribbble" width="14.000000" height="14.000000" fill="#FFFFFF" fill-opacity="0"/>
    <g clip-path="url(#clip1_1471)">
      <path id="Vector" d="M11.66 6.75C11.61 5.83 11.29 4.94 10.74 4.21C10.57 4.39 10.39 4.56 10.2 4.71C9.62 5.2 8.97 5.59 8.27 5.89C8.37 6.09 8.46 6.29 8.53 6.48L8.53 6.48C8.56 6.53 8.58 6.58 8.6 6.64C9.48 6.54 10.41 6.57 11.31 6.69C11.43 6.71 11.55 6.73 11.66 6.75ZM6.18 2.4C6.75 3.2 7.27 4.03 7.75 4.89C8.46 4.61 9.05 4.25 9.53 3.86C9.69 3.72 9.85 3.58 9.99 3.42C9.15 2.71 8.09 2.33 7 2.33C6.72 2.33 6.45 2.35 6.18 2.4L6.18 2.4ZM2.48 5.83C2.87 5.82 3.27 5.79 3.67 5.75C4.62 5.67 5.57 5.51 6.5 5.28C6.02 4.43 5.49 3.61 4.93 2.81C4.33 3.11 3.8 3.53 3.37 4.05C2.95 4.57 2.64 5.18 2.48 5.83ZM3.37 9.93C3.59 9.6 3.89 9.23 4.29 8.82C5.14 7.95 6.14 7.28 7.29 6.91L7.33 6.89C7.23 6.68 7.14 6.49 7.05 6.31C5.98 6.63 4.85 6.82 3.73 6.92C3.18 6.97 2.69 6.99 2.33 7C2.33 8.07 2.69 9.1 3.37 9.93L3.37 9.93ZM8.75 11.32C8.52 10.19 8.2 9.07 7.8 7.99C6.63 8.41 5.7 9.03 4.98 9.77C4.69 10.07 4.43 10.39 4.21 10.74C5.01 11.34 5.99 11.66 7 11.66C7.6 11.66 8.19 11.55 8.75 11.32L8.75 11.32ZM9.84 10.69C10.75 9.99 11.37 8.98 11.58 7.85C11.38 7.8 11.13 7.75 10.86 7.71C10.24 7.63 9.62 7.62 9 7.7C9.35 8.67 9.63 9.68 9.84 10.69L9.84 10.69ZM7 12.83C3.77 12.83 1.16 10.22 1.16 7C1.16 3.77 3.77 1.16 7 1.16C10.22 1.16 12.83 3.77 12.83 7C12.83 10.22 10.22 12.83 7 12.83Z" fill-opacity="1.000000" fill-rule="nonzero"/>
    </g>
  </g>

  <!-- support icons -->

  <g id="list-item">
    <rect x="0.500000" y="0.500000" width="9.000000" height="9.000000" stroke-opacity="1.000000" stroke-width="1.000000"/>
    <rect x="5.500000" y="5.500000" width="9.000000" height="9.000000" stroke-opacity="1.000000" stroke-width="1.000000"/>
  </g>

  <g id="download">
    <path d="M0.33 9.95L9.66 9.95L9.66 5.28L10.83 5.28L10.83 10.61C10.83 10.79 10.77 10.96 10.66 11.09C10.55 11.21 10.4 11.28 10.25 11.28L-0.25 11.28C-0.41 11.28 -0.56 11.21 -0.67 11.09C-0.78 10.96 -0.84 10.79 -0.84 10.61L-0.84 5.28L0.33 5.28L0.33 9.95ZM6.16 3.28L9.08 3.28L5 7.95L0.91 3.28L3.83 3.28L3.83 -0.72L6.16 -0.72L6.16 3.28Z" fill-opacity="1.000000" fill-rule="nonzero"/>
  </g>

  <g id="arrow-1">
    <defs/>
    <path id="Vector" d="M7.78 4.33L4.2 0.75L5.14 -0.19L10.33 5L5.14 10.18L4.2 9.24L7.78 5.66L-0.34 5.66L-0.34 4.33L7.78 4.33Z" fill-opacity="1.000000" fill-rule="nonzero"/>
  </g>

  <g id="arrow-2">
    <path id="Vector" d="M7.07 6.36L1.41 12.02L0 10.6L5.65 4.95L0.7 0L12.02 0L12.02 11.31L7.07 6.36Z" fill-opacity="1.000000" fill-rule="nonzero"/>
  </g>

  <g id='check'>
    <defs>
      <clipPath id="clip1_1483">
        <rect width="24.000000" height="24.000000" fill="white" fill-opacity="0"/>
      </clipPath>
    </defs>
    <rect width="24.000000" height="24.000000" fill="#FFFFFF" fill-opacity="0"/>
    <g clip-path="url(#clip1_1483)">
      <path d="M10 15.17L19.19 5.97L20.6 7.39L10 18L3.63 11.63L5.04 10.22L10 15.17Z" fill-opacity="1.000000" fill-rule="nonzero"/>
    </g>
  </g>

  <g id='close'>
    <defs>
      <clipPath id="clip1_1486">
        <rect width="24.000000" height="24.000000" fill="white" fill-opacity="0"/>
      </clipPath>
    </defs>
    <rect width="24.000000" height="24.000000" fill="#FFFFFF" fill-opacity="0"/>
    <g clip-path="url(#clip1_1486)">
      <path d="M12 10.58L16.95 5.63L18.36 7.05L13.41 12L18.36 16.95L16.95 18.36L12 13.41L7.04 18.36L5.63 16.95L10.58 12L5.63 7.05L7.04 5.63L12 10.58Z" fill-opacity="1.000000" fill-rule="nonzero"/>
    </g>
  </g>

  <!-- services -->

  <g id="coding">
    <defs>
      <clipPath id="clip1_1491">
        <rect width="68.000000" height="68.000000" fill="white" fill-opacity="0"/>
      </clipPath>
    </defs>
    <rect width="68.000000" height="68.000000" fill="#FFFFFF" fill-opacity="0"/>
    <g clip-path="url(#clip1_1491)">
      <path d="M63.21 7.43L4.78 7.43C3.79 7.43 2.85 7.83 2.15 8.52C1.45 9.22 1.06 10.17 1.06 11.15L1.06 48.34C1.06 49.32 1.45 50.27 2.15 50.97C2.85 51.66 3.79 52.06 4.78 52.06L26.05 52.06L24.78 55.25L19.12 55.25C18.84 55.25 18.57 55.36 18.37 55.56C18.17 55.76 18.06 56.03 18.06 56.31L18.06 58.43L11.68 58.43C11.4 58.43 11.13 58.54 10.93 58.74C10.73 58.94 10.62 59.21 10.62 59.5C10.62 59.78 10.73 60.05 10.93 60.25C11.13 60.45 11.4 60.56 11.68 60.56L56.31 60.56C56.59 60.56 56.86 60.45 57.06 60.25C57.26 60.05 57.37 59.78 57.37 59.5C57.37 59.21 57.26 58.94 57.06 58.74C56.86 58.54 56.59 58.43 56.31 58.43L49.93 58.43L49.93 56.31C49.93 56.03 49.82 55.76 49.62 55.56C49.42 55.36 49.15 55.25 48.87 55.25L43.21 55.25L41.94 52.06L63.21 52.06C64.2 52.06 65.14 51.66 65.84 50.97C66.54 50.27 66.93 49.32 66.93 48.34L66.93 11.15C66.93 10.17 66.54 9.22 65.84 8.52C65.14 7.83 64.2 7.43 63.21 7.43ZM47.81 57.37L47.81 58.43L20.18 58.43L20.18 57.37L47.81 57.37ZM27.06 55.25L28.34 52.06L39.65 52.06L40.93 55.25L27.06 55.25ZM64.81 48.34C64.81 48.76 64.64 49.17 64.34 49.47C64.04 49.76 63.64 49.93 63.21 49.93L4.78 49.93C4.35 49.93 3.95 49.76 3.65 49.47C3.35 49.17 3.18 48.76 3.18 48.34L3.18 45.68L64.81 45.68L64.81 48.34ZM64.81 43.56L3.18 43.56L3.18 11.15C3.18 10.73 3.35 10.32 3.65 10.02C3.95 9.73 4.35 9.56 4.78 9.56L63.21 9.56C63.64 9.56 64.04 9.73 64.34 10.02C64.64 10.32 64.81 10.73 64.81 11.15L64.81 43.56Z" fill-opacity="1.000000" fill-rule="nonzero"/>
      <path d="M29.16 34.88C29.28 34.96 29.41 35.01 29.55 35.04C29.68 35.06 29.82 35.06 29.96 35.04C30.1 35.01 30.23 34.95 30.34 34.87C30.46 34.79 30.56 34.69 30.63 34.58L39 21.83C39.16 21.59 39.21 21.3 39.15 21.03C39.1 20.75 38.93 20.51 38.7 20.36C38.46 20.2 38.17 20.15 37.9 20.2C37.62 20.26 37.38 20.43 37.22 20.66L28.86 33.41C28.78 33.53 28.73 33.66 28.7 33.8C28.68 33.93 28.68 34.07 28.7 34.21C28.73 34.35 28.79 34.48 28.87 34.59C28.94 34.71 29.05 34.81 29.16 34.88Z" fill-opacity="1.000000" fill-rule="nonzero"/>
      <path d="M40.75 34.81C40.97 34.99 41.25 35.08 41.53 35.05C41.81 35.03 42.07 34.89 42.25 34.67L47.56 28.3C47.72 28.11 47.81 27.87 47.81 27.62C47.81 27.37 47.72 27.13 47.56 26.94L42.25 20.56C42.16 20.46 42.05 20.37 41.93 20.3C41.8 20.24 41.67 20.2 41.53 20.18C41.39 20.17 41.25 20.18 41.11 20.23C40.98 20.27 40.86 20.33 40.75 20.42C40.64 20.51 40.55 20.62 40.49 20.75C40.42 20.87 40.38 21.01 40.37 21.15C40.36 21.29 40.37 21.43 40.42 21.56C40.46 21.69 40.53 21.82 40.62 21.92L45.36 27.62L40.62 33.31C40.44 33.53 40.35 33.81 40.37 34.09C40.4 34.37 40.54 34.63 40.75 34.81Z" fill-opacity="1.000000" fill-rule="nonzero"/>
      <path d="M25.74 34.67C25.83 34.78 25.94 34.87 26.06 34.94C26.19 35 26.32 35.04 26.46 35.06C26.6 35.07 26.74 35.06 26.88 35.01C27.01 34.97 27.13 34.91 27.24 34.82C27.35 34.73 27.44 34.62 27.5 34.49C27.57 34.37 27.61 34.23 27.62 34.09C27.63 33.95 27.62 33.81 27.57 33.68C27.53 33.55 27.46 33.42 27.37 33.31L22.63 27.62L27.37 21.92C27.46 21.82 27.53 21.69 27.57 21.56C27.62 21.43 27.63 21.29 27.62 21.15C27.61 21.01 27.57 20.87 27.5 20.75C27.44 20.62 27.35 20.51 27.24 20.42C27.13 20.33 27.01 20.27 26.88 20.23C26.74 20.18 26.6 20.17 26.46 20.18C26.32 20.2 26.19 20.24 26.06 20.3C25.94 20.37 25.83 20.46 25.74 20.56L20.43 26.94C20.27 27.13 20.18 27.37 20.18 27.62C20.18 27.87 20.27 28.11 20.43 28.3L25.74 34.67Z" fill-opacity="1.000000" fill-rule="nonzero"/>
    </g>
  </g>

  <g id="illustration">
    <defs>
      <clipPath id="clip1_1497">
        <rect width="68.000000" height="68.000000" fill="white" fill-opacity="0"/>
      </clipPath>
    </defs>
    <rect width="68.000000" height="68.000000" fill="#FFFFFF" fill-opacity="0"/>
    <g clip-path="url(#clip1_1497)">
      <path d="M31.6 49.33C31.05 49.33 30.61 49.78 30.61 50.33C30.61 50.88 31.05 51.33 31.6 51.33L36.39 51.33C36.94 51.33 37.38 50.88 37.38 50.33C37.38 49.78 36.94 49.33 36.39 49.33L31.6 49.33Z" fill-opacity="1.000000" fill-rule="nonzero"/>
      <path d="M11.95 33.87L18.53 33.87C18.93 34.91 19.95 35.66 21.13 35.66C22.32 35.66 23.33 34.91 23.74 33.87L25.05 33.87C25.6 33.87 26.05 33.42 26.05 32.87C26.05 32.32 25.6 31.87 25.05 31.87L23.74 31.87C23.33 30.83 22.32 30.08 21.13 30.08C19.95 30.08 18.93 30.83 18.53 31.87L11.95 31.87C11.4 31.87 10.95 32.32 10.95 32.87C10.95 33.42 11.4 33.87 11.95 33.87ZM21.13 32.07C21.57 32.07 21.93 32.43 21.93 32.87C21.93 33.31 21.57 33.67 21.13 33.67C20.69 33.67 20.34 33.31 20.34 32.87C20.34 32.43 20.69 32.07 21.13 32.07Z" fill-opacity="1.000000" fill-rule="nonzero"/>
      <path d="M11.95 28.16L13.22 28.16C13.62 29.2 14.64 29.95 15.82 29.95C17.01 29.95 18.02 29.2 18.42 28.16L25.05 28.16C25.6 28.16 26.05 27.71 26.05 27.16C26.05 26.61 25.6 26.16 25.05 26.16L18.42 26.16C18.02 25.12 17.01 24.37 15.82 24.37C14.64 24.37 13.62 25.12 13.22 26.16L11.95 26.16C11.4 26.16 10.95 26.61 10.95 27.16C10.95 27.71 11.4 28.16 11.95 28.16ZM15.82 26.36C16.26 26.36 16.62 26.72 16.62 27.16C16.62 27.6 16.26 27.96 15.82 27.96C15.38 27.96 15.03 27.6 15.03 27.16C15.03 26.72 15.38 26.36 15.82 26.36Z" fill-opacity="1.000000" fill-rule="nonzero"/>
      <path d="M26.25 18C26.25 18.55 25.8 18.99 25.25 18.99C24.7 18.99 24.26 18.55 24.26 18C24.26 17.45 24.7 17 25.25 17C25.8 17 26.25 17.45 26.25 18Z" fill-opacity="1.000000" fill-rule="evenodd"/>
      <path d="M23.5 18C23.5 18.55 23.06 18.99 22.51 18.99C21.96 18.99 21.51 18.55 21.51 18C21.51 17.45 21.96 17 22.51 17C23.06 17 23.5 17.45 23.5 18Z" fill-opacity="1.000000" fill-rule="evenodd"/>
      <path d="M20.76 18C20.76 18.55 20.31 18.99 19.76 18.99C19.21 18.99 18.77 18.55 18.77 18C18.77 17.45 19.21 17 19.76 17C20.31 17 20.76 17.45 20.76 18Z" fill-opacity="1.000000" fill-rule="evenodd"/>
      <path d="M65.01 6.7L64.63 6.7L64.91 6.42C65.75 5.59 65.75 4.23 64.91 3.4L62.73 1.22C61.9 0.38 60.54 0.38 59.71 1.22L54.23 6.7L2.98 6.7C1.34 6.7 0 8.04 0 9.69L0 51.05C0 53.07 1.63 54.71 3.65 54.71L27.24 54.71L27.24 61.75L22.44 61.75C21.16 61.75 20.12 62.8 20.12 64.08L20.12 65.07C20.12 66.35 21.16 67.4 22.44 67.4L45.55 67.4C46.83 67.4 47.87 66.35 47.87 65.07L47.87 64.08C47.87 62.8 46.83 61.75 45.55 61.75L40.75 61.75L40.75 54.71L51.39 54.71C51.94 54.71 52.39 54.26 52.39 53.71C52.39 53.16 51.94 52.71 51.39 52.71L3.65 52.71C2.73 52.71 1.99 51.97 1.99 51.05L1.99 48.11L66 48.11L66 51.05C66 51.97 65.26 52.71 64.34 52.71L56.04 52.71C55.49 52.71 55.05 53.16 55.05 53.71C55.05 54.26 55.49 54.71 56.04 54.71L64.34 54.71C66.36 54.71 68 53.07 68 51.05L68 9.69C68 8.04 66.65 6.7 65.01 6.7ZM45.55 63.75C45.73 63.75 45.88 63.89 45.88 64.08L45.88 65.07C45.88 65.26 45.73 65.4 45.55 65.4L22.44 65.4C22.26 65.4 22.11 65.26 22.11 65.07L22.11 64.08C22.11 63.89 22.26 63.75 22.44 63.75L45.55 63.75ZM29.23 54.71L38.76 54.71L38.76 61.75L29.23 61.75L29.23 54.71ZM61.12 2.63C61.17 2.57 61.27 2.57 61.32 2.63L63.5 4.81C63.56 4.86 63.56 4.96 63.5 5.01L61.42 7.09L59.04 4.71L61.12 2.63ZM57.63 6.12L60.01 8.5L59.32 9.2L56.93 6.81L57.63 6.12ZM55.52 8.22L57.91 10.61L46.12 22.39L43.74 20.01L55.52 8.22ZM54.05 17.33C55.4 17.33 56.51 18.43 56.51 19.78C56.51 21.14 55.4 22.24 54.05 22.24C52.69 22.24 51.59 21.14 51.59 19.78C51.59 19.77 51.59 19.75 51.6 19.74L54 17.33C54.02 17.33 54.03 17.33 54.05 17.33ZM44.39 23.48L41.45 24.68L42.65 21.74L44.39 23.48ZM66 46.11L1.99 46.11L1.99 9.69C1.99 9.14 2.43 8.69 2.98 8.69L52.24 8.69L50.72 10.21L16.86 10.21C16.31 10.21 15.87 10.66 15.87 11.21C15.87 11.76 16.31 12.2 16.86 12.2L48.72 12.2L41.7 19.23C41.5 19.43 41.34 19.66 41.24 19.93L39.01 25.37C38.81 25.87 38.92 26.44 39.31 26.83C39.56 27.08 39.9 27.22 40.25 27.22C40.42 27.22 40.59 27.18 40.76 27.12L46.21 24.89C46.46 24.79 46.69 24.64 46.88 24.45L49.91 21.42C50.57 23.06 52.17 24.23 54.05 24.23C56.5 24.23 58.5 22.24 58.5 19.78C58.5 17.91 57.33 16.3 55.68 15.65L59.13 12.2L62.49 12.2L62.49 42.6L61.96 42.6L58.35 36.35C58.08 35.87 57.47 35.71 56.99 35.99C56.52 36.26 56.35 36.87 56.63 37.35L59.66 42.6L45.75 42.6L44.26 40.02L51.21 27.97L54.3 33.32C54.58 33.8 55.19 33.96 55.67 33.69C56.14 33.41 56.3 32.8 56.03 32.33L52.73 26.61C52.42 26.06 51.85 25.74 51.21 25.74C50.58 25.74 50.01 26.06 49.69 26.61L43.11 38.03L34.65 23.38C34.33 22.83 33.77 22.51 33.13 22.51C32.5 22.51 31.93 22.83 31.61 23.38L29.37 27.27L29.37 16.6C29.37 15.31 28.33 14.27 27.04 14.27L9.96 14.27C8.67 14.27 7.63 15.31 7.63 16.6L7.63 38.38C7.63 39.29 8.38 40.04 9.29 40.04L22 40.04L20.52 42.6L5.5 42.6L5.5 12.2L12.21 12.2C12.76 12.2 13.21 11.76 13.21 11.21C13.21 10.66 12.76 10.21 12.21 10.21L5.17 10.21C4.25 10.21 3.51 10.96 3.51 11.87L3.51 42.93C3.51 43.85 4.25 44.6 5.17 44.6L62.82 44.6C63.74 44.6 64.48 43.85 64.48 42.93L64.48 11.87C64.48 10.96 63.74 10.21 62.82 10.21L61.12 10.21L62.64 8.69L65.01 8.69C65.56 8.69 66 9.14 66 9.69L66 46.11ZM27.38 22.11L27.38 38.05L9.62 38.05L9.62 22.11L27.38 22.11ZM9.62 20.12L9.62 16.6C9.62 16.41 9.77 16.26 9.96 16.26L27.04 16.26C27.23 16.26 27.38 16.41 27.38 16.6L27.38 20.12L9.62 20.12ZM24.3 40.04L27.71 40.04C28.62 40.04 29.37 39.29 29.37 38.38L29.37 36.27C29.62 36.39 29.9 36.45 30.19 36.45C30.87 36.45 31.47 36.1 31.81 35.51L33.51 32.58C33.56 32.49 33.64 32.47 33.7 32.47C33.75 32.47 33.83 32.49 33.88 32.58L34.93 34.39C35.27 34.97 35.88 35.33 36.56 35.33C37.24 35.33 37.85 34.97 38.19 34.39L38.44 33.94L43.45 42.6L22.82 42.6L24.3 40.04ZM29.37 32.93L29.37 31.26L33.13 24.74L37.29 31.94L36.56 33.22L35.61 31.58C35.21 30.89 34.49 30.48 33.7 30.48C32.9 30.48 32.18 30.89 31.78 31.58L30.19 34.35L29.37 32.93Z" fill-opacity="1.000000" fill-rule="nonzero"/>
    </g>
  </g>

  <g id="microphone">
    <defs>
      <clipPath id="clip1_1551">
        <rect width="74.000000" height="74.000000" fill="white" fill-opacity="0"/>
      </clipPath>
    </defs>
    <rect width="74.000000" height="74.000000" fill="#FFFFFF" fill-opacity="0"/>
    <g clip-path="url(#clip1_1551)">
      <path d="M37 0C29.01 0 22.52 6.75 22.52 15.05L22.52 37C22.52 45.3 29.01 52.05 37 52.05C44.98 52.05 51.47 45.3 51.47 37L51.47 15.05C51.47 6.75 44.98 0 37 0ZM37 48.83C31.31 48.83 26.6 44.37 25.85 38.6L48.14 38.6C47.39 44.37 42.68 48.83 37 48.83ZM48.26 35.39L25.73 35.39L25.73 15.05C25.73 8.52 30.79 3.21 37 3.21C43.2 3.21 48.26 8.52 48.26 15.05L48.26 35.39Z" fill-opacity="1.000000" fill-rule="nonzero"/>
      <path d="M59.52 28.95C58.63 28.95 57.91 29.67 57.91 30.56L57.91 37C57.91 48.53 48.53 57.91 37 57.91C25.46 57.91 16.08 48.53 16.08 37L16.08 30.56C16.08 29.67 15.36 28.95 14.47 28.95C13.59 28.95 12.86 29.67 12.86 30.56L12.86 37C12.86 49.76 22.83 60.21 35.39 61.04L35.39 70.78L27.34 70.78C26.45 70.78 25.73 71.5 25.73 72.39C25.73 73.27 26.45 74 27.34 74L46.65 74C47.54 74 48.26 73.27 48.26 72.39C48.26 71.5 47.54 70.78 46.65 70.78L38.6 70.78L38.6 61.04C51.16 60.21 61.13 49.76 61.13 37L61.13 30.56C61.13 29.67 60.4 28.95 59.52 28.95Z" fill-opacity="1.000000" fill-rule="nonzero"/>
    </g>
  </g>

  <g id='development'>
    <defs>
      <clipPath id="clip1_1507">
        <rect width="74.000000" height="74.000000" fill="white" fill-opacity="0"/>
      </clipPath>
    </defs>
    <rect width="74.000000" height="74.000000" fill="#FFFFFF" fill-opacity="0"/>
    <g clip-path="url(#clip1_1507)">
      <path d="M32.37 38.15L41.62 38.15L41.62 40.46L32.37 40.46L32.37 38.15Z" fill-opacity="1.000000" fill-rule="nonzero"/>
      <path d="M35.84 34.68L38.15 34.68L38.15 43.93L35.84 43.93L35.84 34.68Z" fill-opacity="1.000000" fill-rule="nonzero"/>
      <path d="M65.9 38.15L68.21 38.15L68.21 40.46L65.9 40.46L65.9 38.15Z" fill-opacity="1.000000" fill-rule="nonzero"/>
      <path d="M56.65 38.15L58.96 38.15L58.96 40.46L56.65 40.46L56.65 38.15Z" fill-opacity="1.000000" fill-rule="nonzero"/>
      <path d="M61.28 33.53L63.59 33.53L63.59 35.84L61.28 35.84L61.28 33.53Z" fill-opacity="1.000000" fill-rule="nonzero"/>
      <path d="M61.28 42.78L63.59 42.78L63.59 45.09L61.28 45.09L61.28 42.78Z" fill-opacity="1.000000" fill-rule="nonzero"/>
      <path d="M10.65 20.37L5.45 13.87L10.65 7.37L12.46 8.81L8.41 13.87L12.46 18.93L10.65 20.37Z" fill-opacity="1.000000" fill-rule="nonzero"/>
      <path d="M28.65 20.37L26.84 18.93L30.89 13.87L26.84 8.81L28.65 7.37L33.85 13.87L28.65 20.37Z" fill-opacity="1.000000" fill-rule="nonzero"/>
      <path d="M14.73 17.73L22.83 8.48L24.57 10.01L16.47 19.26L14.73 17.73Z" fill-opacity="1.000000" fill-rule="nonzero"/>
      <path d="M9.25 50.87L4.62 50.87L4.62 46.25L6.93 46.25L6.93 48.56L9.25 48.56L9.25 50.87Z" fill-opacity="1.000000" fill-rule="nonzero"/>
      <path d="M70.53 2.31L3.46 2.31C1.55 2.31 0 3.86 0 5.78L0 52.03C0 53.94 1.55 55.5 3.46 55.5L27.75 55.5L27.75 61.28C27.75 63.19 26.19 64.75 24.28 64.75L18.5 64.75L18.5 71.68L55.5 71.68L55.5 64.75L49.71 64.75C47.8 64.75 46.25 63.19 46.25 61.28L46.25 55.5L70.53 55.5C72.44 55.5 74 53.94 74 52.03L74 5.78C74 3.86 72.44 2.31 70.53 2.31ZM53.18 67.06L53.18 69.37L20.81 69.37L20.81 67.06L53.18 67.06ZM37 62.48C38.91 62.48 40.46 60.93 40.46 59.01L40.46 55.5L43.93 55.5L43.93 61.28C43.94 62.53 44.35 63.75 45.12 64.75L28.87 64.75C29.64 63.75 30.05 62.53 30.06 61.28L30.06 55.5L33.53 55.5L33.53 59.01C33.53 60.93 35.08 62.48 37 62.48ZM35.84 59.01L35.84 55.5L38.15 55.5L38.15 59.01C38.15 59.65 37.63 60.17 37 60.17C36.36 60.17 35.84 59.65 35.84 59.01ZM71.68 52.03C71.68 52.66 71.16 53.18 70.53 53.18L3.46 53.18C2.83 53.18 2.31 52.66 2.31 52.03L2.31 41.62L25.66 41.62C26.62 46.33 30.39 49.95 35.13 50.72C39.87 51.49 44.6 49.25 47 45.09L52.43 45.09C54.37 48.46 57.87 50.62 61.75 50.85C65.63 51.08 69.36 49.33 71.68 46.22L71.68 52.03ZM62.43 48.56C58.92 48.57 55.71 46.57 54.16 43.42L53.84 42.78L45.59 42.78L45.27 43.42C43.24 47.51 38.54 49.5 34.19 48.12C29.84 46.74 27.14 42.4 27.84 37.89C28.55 33.38 32.43 30.05 37 30.06L62.43 30.06C67.54 30.06 71.68 34.2 71.68 39.31C71.68 44.42 67.54 48.56 62.43 48.56ZM71.68 32.4C69.51 29.47 66.08 27.75 62.43 27.75L37 27.75C30.61 27.75 25.44 32.92 25.43 39.31L2.31 39.31L2.31 5.78C2.31 5.14 2.83 4.62 3.46 4.62L70.53 4.62C71.16 4.62 71.68 5.14 71.68 5.78L71.68 32.4Z" fill-opacity="1.000000" fill-rule="nonzero"/>
      <path d="M47.4 38.15L52.03 38.15L52.03 40.46L47.4 40.46L47.4 38.15Z" fill-opacity="1.000000" fill-rule="nonzero"/>
      <path d="M34.68 9.25L43.93 9.25L43.93 11.56L34.68 11.56L34.68 9.25Z" fill-opacity="1.000000" fill-rule="nonzero"/>
      <path d="M48.56 9.25L67.06 9.25L67.06 11.56L48.56 11.56L48.56 9.25Z" fill-opacity="1.000000" fill-rule="nonzero"/>
      <path d="M50.87 13.87L67.06 13.87L67.06 16.18L50.87 16.18L50.87 13.87Z" fill-opacity="1.000000" fill-rule="nonzero"/>
      <path d="M37 13.87L46.25 13.87L46.25 16.18L37 16.18L37 13.87Z" fill-opacity="1.000000" fill-rule="nonzero"/>
      <path d="M34.68 18.5L57.81 18.5L57.81 20.81L34.68 20.81L34.68 18.5Z" fill-opacity="1.000000" fill-rule="nonzero"/>
      <path d="M62.43 18.5L67.06 18.5L67.06 20.81L62.43 20.81L62.43 18.5Z" fill-opacity="1.000000" fill-rule="nonzero"/>
      <path d="M6.93 23.12L18.5 23.12L18.5 25.43L6.93 25.43L6.93 23.12Z" fill-opacity="1.000000" fill-rule="nonzero"/>
      <path d="M23.12 23.12L45.09 23.12L45.09 25.43L23.12 25.43L23.12 23.12Z" fill-opacity="1.000000" fill-rule="nonzero"/>
      <path d="M48.56 23.12L67.06 23.12L67.06 25.43L48.56 25.43L48.56 23.12Z" fill-opacity="1.000000" fill-rule="nonzero"/>
      <path d="M6.93 27.75L25.43 27.75L25.43 30.06L6.93 30.06L6.93 27.75Z" fill-opacity="1.000000" fill-rule="nonzero"/>
      <path d="M6.93 32.37L16.18 32.37L16.18 34.68L6.93 34.68L6.93 32.37Z" fill-opacity="1.000000" fill-rule="nonzero"/>
      <path d="M18.5 32.37L23.12 32.37L23.12 34.68L18.5 34.68L18.5 32.37Z" fill-opacity="1.000000" fill-rule="nonzero"/>
    </g>
  </g>

  <g id='photographer'>
    <defs>
      <clipPath id="clip1_1532">
        <rect width="78.000000" height="78.000000" fill="white" fill-opacity="0"/>
      </clipPath>
    </defs>
    <rect width="78.000000" height="78.000000" fill="#FFFFFF" fill-opacity="0"/>
    <g clip-path="url(#clip1_1532)">
      <path d="M55.35 72.96L74.71 72.96L69.74 58.05C68.44 54.15 65.12 51.26 61.08 50.51L47.8 48.02L47.8 44.94C50.98 42.65 53.23 39.15 53.88 35.12C56.85 34.61 59.12 32.04 59.12 28.93L59.12 20.12C59.12 9.03 50.09 0 39 0C27.9 0 18.87 9.03 18.87 20.12L18.87 28.93C18.87 32.04 21.13 34.62 24.09 35.13C24.75 39.16 27.01 42.67 30.19 44.96L30.19 48.02L16.91 50.51C12.87 51.27 9.55 54.16 8.25 58.05L3.28 72.96L22.64 72.96L22.64 70.45L19.22 70.45L21.34 61.94L18.9 61.34L16.63 70.45L6.77 70.45L10.64 58.85C11.65 55.82 14.23 53.57 17.37 52.98L25.38 51.48L27.43 60.7C26.09 61.28 25.16 62.61 25.16 64.16L25.16 74.22C25.16 76.3 26.85 78 28.93 78L49.06 78C51.14 78 52.83 76.3 52.83 74.22L52.83 64.16C52.83 62.61 51.9 61.28 50.56 60.7L52.61 51.48L60.62 52.98C63.76 53.57 66.34 55.82 67.35 58.85L71.22 70.45L61.36 70.45L59.09 61.34L56.65 61.94L58.77 70.45L55.35 70.45L55.35 72.96ZM50.13 51.01L48.4 58.83L47.53 55.35L42.03 55.35L46.96 50.42L50.13 51.01ZM46.19 60.38L31.8 60.38L32.43 57.87L45.56 57.87L46.19 60.38ZM39 54.83L32.7 48.54L32.7 46.42C34.62 47.3 36.75 47.8 39 47.8C41.24 47.8 43.37 47.29 45.29 46.41L45.29 48.54L39 54.83ZM54.09 32.47L54.09 25.39C55.55 25.91 56.61 27.29 56.61 28.93C56.61 30.57 55.55 31.95 54.09 32.47ZM23.9 32.49C22.43 31.97 21.38 30.57 21.38 28.93C21.38 27.29 22.43 25.89 23.9 25.37L23.9 32.49ZM21.38 23.93L21.38 20.12C21.38 10.41 29.28 2.51 39 2.51C48.71 2.51 56.61 10.41 56.61 20.12L56.61 23.93C55.86 23.37 55 22.95 54.05 22.76C53.85 21.28 52.59 20.12 51.05 20.12C50.26 20.12 49.47 20.45 48.84 21.08C46.72 23.2 44.03 24.56 41.11 25L41.19 24.84C41.4 24.42 41.51 23.95 41.51 23.48L41.51 23.16C41.51 21.49 40.15 20.12 38.47 20.12C37.68 20.12 36.89 20.45 36.33 21.01C33.68 23.66 30.16 25.13 26.41 25.16L26.41 22.64L25.16 22.64C23.73 22.64 22.44 23.13 21.38 23.93ZM26.41 32.7L26.41 27.67C30.83 27.65 34.98 25.92 38.1 22.79C38.41 22.49 39 22.74 39 23.16L39 23.48C39 23.56 38.98 23.64 38.94 23.71L36.96 27.67L39 27.67C43.39 27.67 47.52 25.96 50.68 22.79C50.99 22.49 51.58 22.74 51.58 23.16L51.58 32.7C51.58 39.64 45.93 45.29 39 45.29C32.06 45.29 26.41 39.64 26.41 32.7ZM31.03 50.42L35.96 55.35L30.46 55.35L29.59 58.83L27.86 51.01L31.03 50.42ZM28.93 75.48C28.24 75.48 27.67 74.92 27.67 74.22L27.67 64.16C27.67 63.46 28.24 62.9 28.93 62.9L32.84 62.9C31.21 64.5 30.19 66.73 30.19 69.19C30.19 71.65 31.21 73.88 32.84 75.48L28.93 75.48ZM39 75.48C35.53 75.48 32.7 72.66 32.7 69.19C32.7 65.72 35.53 62.9 39 62.9C42.46 62.9 45.29 65.72 45.29 69.19C45.29 72.66 42.46 75.48 39 75.48ZM50.32 74.22C50.32 74.92 49.75 75.48 49.06 75.48L45.15 75.48C46.78 73.88 47.8 71.65 47.8 69.19C47.8 66.73 46.78 64.5 45.15 62.9L49.06 62.9C49.75 62.9 50.32 63.46 50.32 64.16L50.32 74.22Z" fill-opacity="1.000000" fill-rule="nonzero"/>
      <path d="M39 65.41C36.91 65.41 35.22 67.11 35.22 69.19C35.22 71.27 36.91 72.96 39 72.96C41.08 72.96 42.77 71.27 42.77 69.19C42.77 67.11 41.08 65.41 39 65.41ZM39 70.45C38.3 70.45 37.74 69.88 37.74 69.19C37.74 68.49 38.3 67.93 39 67.93C39.69 67.93 40.25 68.49 40.25 69.19C40.25 69.88 39.69 70.45 39 70.45Z" fill-opacity="1.000000" fill-rule="nonzero"/>
    </g>
  </g>

  <g id="services-arrow">
    <path id="Vector" d="M2.14 2.99L-0.22 0.64L0.96 -0.54L4.5 2.99L0.96 6.53L-0.22 5.35L2.14 2.99Z" fill-opacity="1.000000" fill-rule="nonzero"/>
  </g>

  <!-- theme-icons -->

  <g id='dark-theme'>
    <defs>
      <clipPath id="clip1_1480">
        <rect width="30.000000" height="30.000000" fill="white" fill-opacity="0"/>
      </clipPath>
    </defs>
    <rect width="30.000000" height="30.000000" fill="#FFFFFF" fill-opacity="0"/>
    <g clip-path="url(#clip1_1480)">
      <path d="M15.5 27C8.59 27 3 21.4 3 14.5C3 7.59 8.59 2 15.5 2C22.4 2 28 7.59 28 14.5C28 21.4 22.4 27 15.5 27ZM7.16 20.03C7.98 21.26 9.06 22.29 10.33 23.05C11.6 23.81 13.02 24.28 14.49 24.42C15.96 24.57 17.45 24.38 18.84 23.88C20.23 23.39 21.5 22.59 22.54 21.54C23.59 20.49 24.39 19.23 24.89 17.84C25.38 16.45 25.57 14.96 25.42 13.49C25.28 12.02 24.81 10.6 24.05 9.33C23.29 8.06 22.26 6.98 21.03 6.16C21.57 8.08 21.58 10.11 21.08 12.04C20.57 13.97 19.56 15.73 18.15 17.15C16.74 18.56 14.97 19.57 13.04 20.08C11.11 20.58 9.08 20.56 7.16 20.03Z" fill-opacity="1.000000" fill-rule="nonzero"/>
    </g>
  </g>

  <g id='light-theme' transform="translate(0.000000,1280.000000) scale(0.100000,-0.100000)">
    <path d="M5974 12776 c-72 -33 -131 -90 -165 -160 l-29 -60 0 -923 c0 -679 3
-929 12 -946 6 -12 15 -29 20 -37 4 -8 11 -22 15 -30 14 -30 93 -97 135 -114
24 -10 51 -22 60 -27 24 -12 158 -11 158 1 0 6 8 10 19 10 27 0 102 44 137 82
43 45 84 122 84 158 0 16 3 31 8 33 4 3 5 409 2 904 l-5 898 -30 54 c-43 78
-103 133 -179 165 -59 25 -179 20 -242 -8z"/>
    <path d="M2455 11634 c-72 -19 -170 -93 -200 -150 -11 -21 -23 -41 -26 -44
-21 -17 -35 -161 -19 -203 28 -73 44 -105 79 -152 21 -27 50 -68 66 -90 16
-22 33 -41 37 -43 4 -2 8 -9 8 -16 0 -7 8 -22 18 -34 43 -51 52 -62 69 -89 17
-26 98 -138 126 -173 7 -8 41 -55 77 -105 35 -49 68 -91 72 -93 4 -2 8 -10 8
-17 0 -7 3 -15 8 -17 4 -1 25 -28 47 -58 22 -30 43 -56 47 -58 5 -2 8 -8 8
-13 0 -10 107 -160 190 -266 22 -28 40 -56 40 -61 0 -5 7 -15 16 -23 9 -7 45
-55 81 -106 74 -107 152 -172 214 -180 22 -3 42 -10 45 -14 7 -12 91 -12 98 0
3 4 23 11 43 13 40 6 112 49 150 90 12 12 36 50 54 83 28 54 32 69 32 145 0
101 -11 125 -137 295 -45 61 -91 124 -101 140 -10 17 -25 36 -32 44 -13 13
-75 99 -122 170 -13 20 -27 38 -30 41 -4 3 -24 30 -46 60 -22 30 -48 64 -57
74 -10 11 -20 28 -24 38 -3 10 -10 18 -15 18 -5 0 -9 4 -9 10 0 5 -7 18 -15
27 -8 10 -49 65 -91 123 -43 58 -80 107 -83 110 -3 3 -10 12 -16 22 -13 21
-116 170 -127 183 -5 5 -40 53 -79 105 -128 172 -180 209 -303 215 -45 2 -90
2 -101 -1z"/>
    <path d="M9568 11633 c-16 -2 -28 -9 -28 -14 0 -5 -5 -9 -11 -9 -29 0 -110
-82 -184 -185 -11 -16 -32 -44 -47 -64 -15 -20 -31 -40 -35 -46 -5 -5 -21 -30
-38 -55 -16 -25 -33 -46 -37 -48 -5 -2 -8 -8 -8 -14 0 -6 -11 -24 -25 -42 -14
-17 -29 -36 -34 -42 -5 -6 -26 -35 -47 -65 -21 -30 -41 -56 -44 -59 -3 -3 -23
-30 -45 -60 -22 -30 -43 -56 -47 -58 -5 -2 -8 -10 -8 -18 0 -8 -4 -14 -9 -14
-5 0 -12 -8 -15 -17 -3 -10 -19 -34 -36 -53 -16 -19 -30 -38 -30 -42 0 -3 -19
-30 -43 -60 -44 -55 -51 -65 -115 -158 -20 -30 -42 -61 -49 -70 -79 -99 -213
-288 -239 -338 -30 -56 -34 -73 -34 -138 0 -41 4 -82 9 -92 5 -9 15 -30 22
-47 19 -40 26 -50 79 -102 72 -71 114 -85 234 -81 100 3 102 3 162 45 40 27
79 66 110 110 26 37 52 70 56 71 4 2 8 9 8 16 0 7 11 23 25 36 14 13 25 29 25
37 0 7 3 13 8 13 4 1 23 24 42 52 19 28 77 106 128 175 50 69 92 127 92 129 0
6 51 75 61 84 3 3 20 26 37 52 18 25 38 52 45 60 7 7 23 29 34 48 12 20 30 46
41 57 10 12 26 32 35 45 9 13 54 74 99 136 46 62 109 150 141 196 32 46 66 92
75 103 9 10 25 36 36 58 10 22 22 48 27 57 13 25 11 152 -2 185 -31 75 -41 92
-71 124 -18 19 -55 50 -83 69 -48 33 -55 35 -145 36 -52 1 -107 0 -122 -3z"/>
    <path d="M5850 9751 c-8 -4 -72 -11 -142 -15 -130 -6 -218 -19 -253 -35 -11
-5 -51 -15 -90 -21 -123 -19 -135 -22 -141 -31 -3 -5 -14 -9 -24 -9 -22 0
-217 -63 -267 -86 -17 -7 -36 -14 -42 -14 -6 0 -19 -4 -29 -9 -9 -5 -35 -17
-57 -26 -169 -72 -344 -160 -368 -184 -6 -6 -17 -11 -24 -11 -8 0 -22 -8 -33
-18 -10 -10 -42 -30 -69 -45 -28 -15 -71 -42 -95 -59 -24 -18 -75 -55 -113
-83 -37 -27 -73 -54 -79 -60 -7 -5 -36 -28 -65 -50 -29 -22 -121 -107 -204
-190 -208 -206 -334 -355 -439 -520 -21 -32 -44 -65 -52 -72 -8 -8 -14 -21
-14 -29 0 -8 -4 -14 -10 -14 -5 0 -10 -5 -10 -11 0 -6 -13 -29 -28 -52 -16
-23 -44 -73 -63 -112 -19 -38 -36 -72 -39 -75 -12 -12 -80 -159 -80 -174 0 -9
-4 -16 -10 -16 -5 0 -10 -9 -10 -19 0 -11 -5 -23 -10 -26 -6 -3 -10 -13 -10
-20 0 -8 -11 -39 -25 -69 -14 -30 -25 -61 -25 -70 0 -8 -4 -18 -10 -21 -5 -3
-10 -17 -10 -30 0 -13 -4 -26 -9 -29 -5 -3 -12 -26 -15 -50 -4 -25 -14 -59
-23 -76 -8 -17 -17 -50 -20 -73 -3 -23 -10 -47 -15 -54 -5 -7 -7 -17 -3 -23 3
-6 -1 -24 -9 -41 -9 -18 -19 -67 -22 -111 -4 -43 -11 -81 -15 -84 -5 -3 -9
-29 -9 -58 0 -28 -6 -58 -12 -64 -10 -10 -13 -106 -13 -412 0 -306 3 -402 13
-411 6 -7 12 -37 12 -65 0 -29 4 -55 9 -58 4 -3 11 -41 15 -84 3 -44 13 -93
22 -111 8 -17 12 -35 9 -41 -4 -6 -2 -16 3 -23 5 -7 12 -31 15 -54 3 -23 12
-56 20 -73 9 -17 19 -51 23 -76 3 -24 10 -47 15 -50 5 -3 9 -16 9 -29 0 -13 5
-27 10 -30 6 -3 10 -13 10 -21 0 -9 11 -40 25 -70 14 -30 25 -61 25 -69 0 -7
5 -17 10 -20 6 -3 10 -15 10 -26 0 -10 5 -19 10 -19 6 0 10 -8 10 -17 0 -17
69 -164 81 -173 3 -3 10 -16 14 -30 4 -14 16 -37 26 -52 11 -14 19 -29 19 -34
0 -4 16 -31 35 -60 19 -29 35 -57 35 -63 0 -6 5 -11 10 -11 6 0 10 -6 10 -14
0 -8 6 -21 14 -29 8 -7 31 -40 52 -72 31 -49 65 -98 112 -160 30 -40 89 -112
99 -120 6 -5 28 -30 48 -55 121 -149 334 -343 545 -499 30 -22 60 -44 65 -48
21 -18 124 -83 130 -83 5 0 64 -39 75 -50 3 -3 27 -16 53 -30 94 -48 102 -53
108 -62 3 -6 9 -9 13 -8 3 0 37 -13 74 -30 37 -17 87 -41 112 -52 25 -11 62
-29 83 -39 20 -10 53 -21 72 -25 19 -3 38 -10 41 -15 3 -5 14 -9 25 -9 10 0
19 -4 19 -10 0 -5 8 -10 18 -10 10 0 51 -11 90 -25 39 -14 83 -25 97 -25 14 0
25 -4 25 -9 0 -5 17 -11 38 -15 115 -17 189 -33 207 -43 23 -13 207 -33 301
-33 35 0 65 -4 68 -9 9 -13 291 -21 416 -11 63 5 171 14 240 19 142 11 258 29
265 41 3 4 35 11 72 15 36 4 76 11 87 15 12 4 39 13 61 18 74 19 280 86 305
99 14 7 30 13 37 13 7 0 27 8 45 18 18 10 52 24 76 32 23 7 42 17 42 22 0 4 6
8 13 8 6 0 39 14 72 30 33 16 63 30 68 30 4 0 41 20 81 45 41 25 77 45 81 45
3 0 61 36 127 80 67 44 126 80 130 80 4 0 8 4 8 10 0 5 12 16 28 24 15 8 39
25 53 38 15 13 42 35 60 50 19 15 47 37 63 50 80 64 259 239 346 338 30 34 60
67 65 74 23 24 112 137 145 183 19 26 39 52 43 58 8 11 79 119 130 200 17 28
50 86 72 130 23 44 46 89 52 100 7 11 18 35 25 53 7 17 16 32 20 32 4 0 10 16
14 35 3 19 10 38 15 41 5 3 9 14 9 25 0 10 5 19 10 19 6 0 10 7 10 15 0 8 4
23 9 33 21 39 41 91 41 105 0 9 5 19 10 22 6 3 10 17 10 30 0 13 4 26 9 29 5
3 12 27 16 53 4 25 13 56 20 67 8 12 21 57 29 101 8 44 22 105 30 135 9 30 16
73 16 95 0 23 4 45 9 51 11 11 17 60 38 336 15 203 15 233 0 435 -21 277 -27
326 -38 337 -5 6 -9 28 -9 51 0 22 -7 65 -16 95 -8 30 -22 91 -30 135 -9 44
-21 89 -29 101 -7 11 -16 42 -20 67 -4 26 -11 50 -16 53 -5 3 -9 16 -9 29 0
13 -4 27 -10 30 -5 3 -10 13 -10 21 0 9 -11 40 -25 70 -14 30 -25 61 -25 69 0
8 -4 15 -10 15 -5 0 -10 11 -10 25 0 14 -4 25 -10 25 -5 0 -10 7 -10 16 0 8
-11 35 -25 60 -14 25 -25 51 -25 59 0 7 -3 15 -7 17 -5 2 -28 43 -53 93 -25
49 -62 117 -84 150 -97 151 -116 181 -123 190 -5 6 -26 35 -48 65 -22 30 -44
60 -50 66 -5 6 -23 28 -40 49 -16 21 -34 43 -40 49 -5 6 -39 44 -75 85 -104
119 -219 231 -345 336 -33 27 -65 54 -71 60 -6 5 -27 21 -47 35 -20 14 -37 28
-37 33 0 4 -7 7 -15 7 -8 0 -20 9 -27 20 -7 11 -16 20 -20 20 -5 0 -36 19 -71
43 -34 24 -84 56 -112 72 -27 15 -52 31 -55 35 -3 4 -15 10 -27 14 -13 4 -23
11 -23 15 0 4 -25 18 -55 31 -30 13 -55 28 -55 32 0 4 -5 8 -11 8 -6 0 -41 14
-78 31 -36 17 -86 40 -111 51 -25 11 -62 29 -83 39 -20 10 -53 21 -72 25 -19
3 -38 10 -41 15 -3 5 -14 9 -25 9 -10 0 -19 4 -19 8 0 4 -27 14 -60 21 -33 8
-63 17 -66 22 -2 5 -27 11 -54 15 -28 4 -50 10 -50 14 0 4 -17 10 -37 14 -99
15 -191 33 -215 44 -14 6 -82 16 -150 21 -68 6 -148 14 -178 17 -93 10 -534
14 -550 5z"/>
    <path d="M11800 8599 c-19 -6 -50 -13 -67 -16 -18 -3 -33 -9 -33 -14 0 -5 -11
-9 -24 -9 -14 0 -27 -4 -30 -9 -3 -5 -23 -12 -43 -16 -21 -3 -47 -12 -58 -19
-11 -7 -38 -16 -60 -20 -41 -8 -115 -31 -150 -46 -11 -5 -38 -14 -60 -21 -22
-6 -57 -18 -78 -25 -20 -8 -49 -14 -62 -14 -14 0 -25 -4 -25 -8 0 -4 -21 -13
-47 -20 -27 -8 -56 -18 -65 -23 -10 -5 -27 -9 -37 -9 -11 0 -22 -4 -25 -9 -4
-5 -25 -12 -48 -16 -23 -4 -50 -11 -60 -16 -10 -5 -27 -13 -38 -19 -11 -5 -27
-10 -35 -10 -8 0 -23 -4 -33 -9 -9 -5 -44 -17 -77 -26 -33 -10 -69 -21 -80
-26 -50 -20 -118 -39 -140 -39 -14 0 -25 -3 -25 -7 0 -5 -35 -19 -78 -32 -42
-13 -81 -27 -87 -31 -5 -4 -27 -10 -48 -14 -40 -7 -51 -15 -124 -80 -44 -40
-83 -107 -83 -145 0 -11 -4 -23 -10 -26 -13 -8 -13 -100 -1 -123 6 -9 13 -34
16 -54 3 -21 10 -38 15 -38 6 0 10 -6 10 -14 0 -17 100 -116 118 -116 6 0 12
-4 12 -8 0 -28 228 -48 253 -23 6 6 21 11 33 11 13 0 26 5 29 10 3 6 17 10 31
10 13 0 24 5 24 10 0 6 8 10 17 10 10 0 51 11 93 24 41 14 129 41 195 62 66
21 125 41 130 45 6 4 31 10 58 14 26 4 47 10 47 14 0 4 21 12 48 20 26 7 56
17 67 21 11 5 61 21 110 36 50 15 94 31 99 36 6 4 20 8 32 8 13 0 25 4 28 9 4
5 23 12 44 16 44 7 108 28 118 38 4 4 18 7 30 7 13 0 25 4 28 9 3 4 25 11 48
15 23 4 47 11 53 16 6 5 37 16 69 24 32 9 71 22 88 30 16 9 46 18 67 22 46 9
83 34 144 98 68 71 77 99 76 225 0 111 0 109 -58 192 -22 32 -85 81 -138 108
-31 16 -161 22 -203 10z"/>
    <path d="M225 8587 c-16 -6 -32 -14 -35 -17 -3 -3 -18 -12 -34 -20 -34 -18
-106 -96 -125 -136 -7 -16 -17 -37 -22 -46 -5 -10 -9 -53 -9 -97 0 -69 4 -86
31 -137 17 -33 40 -70 52 -83 33 -35 100 -79 133 -87 16 -4 34 -10 40 -15 5
-5 36 -15 68 -23 32 -9 71 -22 87 -30 17 -8 50 -18 74 -22 25 -3 45 -10 45
-15 0 -5 10 -9 23 -9 13 0 27 -4 32 -8 6 -5 28 -14 50 -20 136 -38 161 -46
169 -54 6 -4 20 -8 33 -8 13 0 23 -4 23 -10 0 -5 9 -10 20 -10 22 0 223 -64
252 -80 9 -5 35 -13 58 -16 22 -4 43 -11 46 -15 3 -5 14 -9 25 -9 10 0 27 -4
37 -10 26 -15 170 -60 191 -60 10 0 21 -3 25 -7 4 -4 13 -8 19 -8 7 -1 23 -6
37 -12 14 -6 52 -19 85 -29 33 -10 67 -21 75 -25 87 -38 211 -49 293 -25 31 9
57 21 57 26 0 6 6 10 14 10 16 0 116 106 116 123 1 7 9 30 20 52 23 47 26 147
6 186 -7 14 -16 37 -19 51 -10 38 -98 129 -149 154 -23 12 -68 29 -98 38 -30
9 -64 21 -75 25 -11 5 -40 15 -65 22 -25 7 -49 16 -55 20 -5 4 -26 10 -45 13
-19 4 -44 11 -55 16 -32 14 -178 60 -192 60 -7 0 -22 5 -33 10 -11 6 -29 15
-40 20 -11 6 -29 10 -40 10 -11 0 -20 4 -20 9 0 5 -22 11 -50 15 -27 4 -52 11
-55 16 -3 6 -15 10 -26 10 -10 0 -27 4 -37 9 -9 5 -37 15 -62 22 -25 7 -49 16
-55 20 -5 4 -27 10 -48 14 -20 4 -40 11 -43 16 -3 5 -16 9 -28 9 -20 0 -84 21
-151 51 -11 5 -41 13 -67 19 -55 12 -186 55 -195 64 -4 3 -17 6 -30 6 -12 0
-23 4 -23 9 0 22 -208 36 -255 18z"/>
    <path d="M10225 5366 c-5 -2 -29 -9 -52 -16 -24 -7 -43 -17 -43 -22 0 -4 -5
-8 -12 -8 -18 0 -101 -91 -121 -132 -9 -20 -17 -47 -17 -61 0 -14 -4 -29 -10
-32 -5 -3 -10 -26 -10 -50 0 -24 5 -47 10 -50 6 -3 10 -18 10 -32 0 -14 8 -41
17 -61 22 -46 124 -152 147 -152 9 0 16 -4 16 -10 0 -5 9 -10 20 -10 19 0 95
-22 135 -40 11 -4 41 -14 68 -21 26 -8 47 -16 47 -20 0 -4 22 -10 50 -14 27
-4 52 -11 56 -16 3 -5 16 -9 29 -9 13 0 26 -4 29 -9 3 -4 20 -12 38 -16 18 -4
35 -9 38 -10 3 -1 19 -5 35 -9 17 -4 38 -11 47 -17 10 -5 25 -9 33 -9 8 0 25
-5 38 -12 46 -24 57 -28 72 -28 15 0 95 -25 130 -40 11 -5 38 -14 60 -21 22
-7 45 -16 50 -20 6 -3 27 -10 49 -13 21 -4 46 -11 55 -16 9 -4 70 -25 136 -46
66 -20 127 -40 135 -42 8 -3 22 -7 30 -8 24 -5 113 -35 132 -45 10 -5 26 -9
36 -9 10 0 22 -3 26 -7 17 -18 88 -33 153 -33 87 0 157 28 218 87 87 84 95
103 95 238 0 98 -3 120 -21 152 -35 62 -131 149 -176 159 -16 3 -47 14 -70 25
-24 10 -52 19 -63 19 -11 0 -29 5 -40 10 -11 6 -28 14 -38 19 -10 5 -38 12
-62 16 -25 4 -49 10 -55 14 -5 4 -50 20 -100 35 -49 15 -98 32 -107 37 -10 5
-25 9 -33 9 -8 0 -23 4 -33 10 -27 15 -170 60 -192 60 -11 0 -20 5 -20 10 0 6
-11 10 -25 10 -14 0 -34 5 -45 10 -11 6 -29 15 -40 20 -11 6 -26 10 -35 10
-14 0 -149 42 -190 59 -11 5 -47 17 -80 26 -94 28 -208 66 -227 76 -10 5 -25
9 -33 9 -8 0 -23 4 -33 9 -44 22 -93 33 -167 37 -44 2 -84 2 -90 0z"/>
    <path d="M1710 5313 c-69 -24 -133 -44 -142 -44 -10 0 -20 -4 -23 -10 -4 -5
-15 -9 -25 -9 -19 0 -97 -23 -135 -40 -11 -5 -38 -14 -60 -21 -22 -6 -47 -15
-55 -19 -9 -4 -31 -11 -50 -14 -34 -7 -65 -18 -102 -37 -10 -5 -25 -9 -33 -9
-8 0 -23 -4 -33 -9 -9 -6 -44 -17 -77 -26 -60 -17 -94 -29 -127 -46 -10 -5
-27 -9 -37 -9 -11 0 -23 -4 -26 -10 -3 -5 -15 -10 -25 -10 -19 0 -155 -42
-195 -60 -11 -5 -36 -12 -55 -16 -19 -3 -39 -9 -45 -13 -16 -10 -79 -31 -93
-31 -7 0 -31 -9 -54 -20 -23 -11 -57 -23 -77 -26 -43 -8 -93 -38 -141 -85 -37
-36 -50 -57 -92 -141 -11 -24 -10 -154 1 -176 5 -9 16 -32 23 -49 7 -18 16
-33 20 -33 5 0 8 -6 8 -14 0 -18 66 -77 126 -112 43 -25 58 -29 134 -29 76 0
137 11 195 36 11 4 52 18 90 30 39 12 75 25 80 29 6 4 26 11 45 15 19 4 102
29 184 56 82 27 154 49 160 49 7 0 31 9 54 20 22 11 50 20 62 20 11 0 28 4 38
10 23 13 109 40 127 40 9 0 24 5 35 10 11 6 29 15 40 20 11 6 27 10 35 10 8 0
23 4 33 10 9 5 58 21 107 36 50 15 95 31 100 35 6 4 30 10 55 14 44 7 53 11
97 33 13 7 32 12 42 12 11 0 23 5 26 10 3 6 17 10 30 10 13 0 27 5 30 10 3 6
15 10 27 10 36 0 89 32 144 87 30 30 54 59 54 64 0 6 10 31 22 57 34 74 30
150 -14 243 -25 54 -47 85 -74 105 -21 16 -46 35 -55 43 -32 27 -94 41 -174
40 -68 -1 -99 -8 -205 -46z"/>
    <path d="M8660 3171 c-8 -5 -35 -11 -60 -15 -34 -5 -59 -19 -105 -57 -33 -28
-64 -61 -70 -73 -5 -11 -12 -23 -15 -26 -14 -14 -30 -52 -30 -74 0 -14 -4 -28
-10 -31 -5 -3 -10 -28 -10 -55 0 -27 5 -52 10 -55 6 -3 10 -17 10 -30 0 -13 5
-27 10 -30 6 -3 10 -15 10 -26 0 -10 5 -19 10 -19 6 0 10 -5 10 -11 0 -7 15
-30 33 -53 18 -23 41 -54 51 -69 9 -16 24 -36 31 -45 8 -9 39 -51 69 -92 30
-41 59 -79 63 -85 5 -5 20 -26 33 -45 13 -19 30 -41 37 -48 7 -7 13 -18 13
-23 0 -5 8 -18 18 -30 9 -11 27 -33 39 -47 13 -15 23 -30 23 -34 0 -4 6 -13
13 -20 7 -7 35 -44 62 -83 27 -38 52 -72 55 -75 4 -3 40 -52 80 -110 41 -58
80 -111 86 -117 7 -7 22 -29 35 -50 13 -21 26 -40 29 -43 6 -4 148 -199 198
-270 31 -44 106 -116 147 -140 35 -21 53 -24 145 -24 105 -1 105 -1 160 36 30
20 67 49 82 65 35 37 78 118 78 148 0 13 5 27 10 30 6 3 10 24 10 45 0 21 -4
42 -10 45 -5 3 -10 17 -10 30 0 34 -45 114 -110 195 -20 25 -45 58 -55 74 -11
16 -29 41 -40 56 -11 15 -38 54 -60 86 -22 32 -48 66 -57 75 -10 9 -18 20 -18
23 0 4 -6 14 -12 21 -30 33 -38 45 -38 54 0 5 -4 11 -8 13 -4 2 -30 35 -57 73
-55 78 -55 78 -88 120 -13 17 -57 77 -97 135 -41 58 -77 107 -82 108 -4 2 -8
10 -8 18 0 8 -3 14 -7 14 -5 0 -21 20 -38 45 -16 24 -33 45 -37 45 -5 0 -8 5
-8 10 0 9 -125 186 -163 230 -7 8 -25 34 -41 57 -50 75 -148 143 -205 143 -16
0 -33 5 -36 10 -7 12 -54 13 -75 1z"/>
    <path d="M3387 3136 c-86 -45 -113 -73 -244 -266 -21 -30 -46 -62 -55 -71 -10
-9 -18 -20 -18 -24 0 -4 -11 -21 -25 -39 -32 -39 -32 -40 -79 -106 -22 -30
-43 -56 -48 -58 -4 -2 -8 -10 -8 -18 0 -8 -4 -14 -9 -14 -5 0 -12 -8 -15 -18
-4 -10 -14 -27 -24 -38 -10 -10 -51 -66 -91 -124 -41 -58 -78 -106 -82 -108
-5 -2 -9 -10 -9 -18 0 -8 -4 -14 -8 -14 -4 0 -16 -15 -27 -32 -10 -18 -24 -38
-29 -44 -6 -6 -20 -23 -31 -39 -57 -80 -97 -135 -127 -175 -18 -25 -36 -49
-40 -55 -4 -5 -18 -23 -31 -40 -51 -66 -135 -192 -153 -230 -21 -46 -26 -207
-6 -227 7 -7 12 -19 12 -28 0 -10 10 -28 21 -41 12 -13 28 -34 36 -46 8 -12
40 -39 71 -60 l57 -38 115 0 115 0 58 39 c51 34 96 86 192 221 8 11 36 49 62
85 27 36 61 86 78 110 16 25 37 52 45 60 9 8 29 36 45 62 17 27 33 48 38 48 4
0 7 6 7 14 0 8 4 16 8 18 4 2 37 44 72 93 35 50 70 96 77 103 7 8 18 23 25 35
14 28 71 101 81 105 4 2 7 8 7 13 0 12 70 109 78 109 4 0 20 23 37 50 16 28
33 50 37 50 4 0 8 5 8 11 0 7 15 30 33 53 18 23 48 62 65 88 18 25 38 52 44
60 7 7 31 40 53 73 l40 60 0 113 c0 64 -4 116 -10 120 -6 4 -17 20 -25 37 -23
46 -58 82 -119 123 -54 35 -60 37 -156 40 -91 3 -104 1 -148 -22z"/>
    <path d="M6040 2320 c0 -5 -11 -10 -25 -10 -28 0 -120 -56 -150 -92 -28 -34
-65 -106 -65 -128 0 -10 -4 -22 -10 -25 -7 -4 -10 -317 -10 -906 0 -593 3
-899 10 -899 6 0 10 -8 10 -19 0 -64 95 -178 185 -220 54 -25 183 -29 236 -7
72 30 147 95 171 149 7 15 16 27 20 27 5 0 8 11 8 24 0 14 5 28 10 31 7 4 10
322 10 920 0 598 -3 916 -10 920 -5 3 -10 15 -10 26 0 10 -4 19 -10 19 -5 0
-10 9 -10 20 0 44 -140 160 -194 160 -14 0 -28 5 -31 10 -3 6 -35 10 -71 10
-36 0 -64 -4 -64 -10z"/>
  </g>
</svg>
