<svg width="18.000000" height="18.000000" viewBox="0 0 18 18" fill="none"
  xmlns="http://www.w3.org/2000/svg">

  <!-- navigation -->

  <g id="home">
    <defs>
      <clipPath id="clip1_1586">
        <rect width="18.000000" height="18.000000" fill="white" fill-opacity="0"/>
      </clipPath>
    </defs>
    <rect width="18.000000" height="18.000000" fill="#FFFFFF" fill-opacity="0"/>
    <g clip-path="url(#clip1_1586)">
      <path d="M14.99 15C14.99 15.19 14.92 15.38 14.78 15.53C14.63 15.67 14.44 15.75 14.24 15.75L3.74 15.75C3.55 15.75 3.36 15.67 3.21 15.53C3.07 15.38 2.99 15.19 2.99 15L2.99 8.25L0.74 8.25L8.49 1.2C8.63 1.08 8.81 1.01 8.99 1.01C9.18 1.01 9.36 1.08 9.5 1.2L17.24 8.25L14.99 8.25L14.99 15Z" fill-opacity="1.000000" fill-rule="nonzero"/>
    </g>
  </g>

  <g id="services">
    <defs>
      <clipPath id="clip1_1599">
        <rect width="16.500000" height="18.000000" transform="translate(1.000000 0.000000)" fill="white" fill-opacity="0"/>
      </clipPath>
      <clipPath id="clip1_1598">
        <rect width="18.000000" height="18.000000" fill="white" fill-opacity="0"/>
      </clipPath>
    </defs>
    <g clip-path="url(#clip1_1598)">
      <rect width="16.500000" height="18.000000" transform="translate(1.000000 0.000000)" fill="#000000" fill-opacity="0"/>
      <g clip-path="url(#clip1_1599)">
        <path d="M17.5 4.28L17.5 4.5L12 4.5L12 0L12.26 0C12.53 0 12.79 0.08 12.98 0.24L17.19 3.69C17.39 3.84 17.5 4.06 17.5 4.28ZM11.65 5.62C11.08 5.62 10.62 5.24 10.62 4.78L10.62 0L2.03 0C1.46 0 1 0.37 1 0.84L1 17.15C1 17.62 1.46 18 2.03 18L16.46 18C17.03 18 17.5 17.62 17.5 17.15L17.5 5.62L11.65 5.62ZM6.29 14.08C6.27 14.09 6.24 14.11 6.22 14.12C6.19 14.13 6.16 14.13 6.13 14.14C6.1 14.14 6.07 14.13 6.04 14.12C6.01 14.11 5.98 14.1 5.96 14.08L3.17 11.95C3.15 11.93 3.13 11.91 3.12 11.88C3.11 11.86 3.1 11.83 3.1 11.81C3.1 11.78 3.11 11.76 3.12 11.73C3.13 11.71 3.15 11.69 3.17 11.67L5.96 9.53C5.98 9.51 6.01 9.5 6.04 9.49C6.07 9.48 6.1 9.48 6.13 9.48C6.16 9.48 6.19 9.49 6.22 9.5C6.24 9.51 6.27 9.52 6.29 9.54L7.13 10.27C7.15 10.29 7.17 10.31 7.18 10.34C7.19 10.36 7.19 10.39 7.19 10.41C7.19 10.44 7.18 10.46 7.17 10.49C7.16 10.51 7.14 10.53 7.11 10.55L5.36 11.81L7.11 13.07C7.14 13.09 7.16 13.11 7.17 13.13C7.18 13.15 7.19 13.18 7.19 13.2C7.19 13.23 7.19 13.25 7.18 13.28C7.17 13.3 7.15 13.32 7.13 13.34L6.29 14.08ZM8.49 15.85L7.31 15.57C7.25 15.56 7.2 15.52 7.17 15.48C7.15 15.43 7.14 15.38 7.16 15.33L9.8 7.89C9.81 7.85 9.85 7.81 9.91 7.78C9.96 7.76 10.02 7.75 10.08 7.77L11.26 8.05C11.29 8.05 11.32 8.06 11.34 8.08C11.37 8.1 11.39 8.11 11.4 8.14C11.42 8.16 11.43 8.18 11.43 8.21C11.43 8.23 11.43 8.26 11.42 8.28L8.78 15.72C8.77 15.74 8.76 15.77 8.74 15.79C8.72 15.81 8.7 15.82 8.67 15.83C8.64 15.85 8.61 15.85 8.58 15.86C8.55 15.86 8.52 15.86 8.49 15.85ZM15.4 11.95L12.61 14.08C12.59 14.1 12.57 14.11 12.54 14.12C12.51 14.13 12.48 14.14 12.45 14.14C12.42 14.13 12.39 14.13 12.36 14.12C12.33 14.11 12.31 14.09 12.29 14.08L11.45 13.34C11.42 13.32 11.41 13.3 11.4 13.28C11.39 13.25 11.38 13.23 11.38 13.2C11.38 13.18 11.39 13.15 11.41 13.13C11.42 13.11 11.44 13.09 11.46 13.07L13.21 11.81L11.46 10.55C11.44 10.53 11.42 10.51 11.41 10.49C11.39 10.46 11.38 10.44 11.38 10.41C11.38 10.39 11.39 10.36 11.4 10.34C11.41 10.31 11.42 10.29 11.45 10.27L12.29 9.54C12.31 9.52 12.33 9.51 12.36 9.5C12.39 9.49 12.42 9.48 12.45 9.48C12.48 9.48 12.51 9.48 12.54 9.49C12.57 9.5 12.59 9.51 12.61 9.53L15.4 11.67C15.43 11.69 15.44 11.71 15.46 11.73C15.47 11.76 15.48 11.78 15.48 11.81C15.48 11.83 15.47 11.86 15.46 11.88C15.44 11.91 15.43 11.93 15.4 11.95Z" fill-opacity="1.000000" fill-rule="nonzero"/>
      </g>
    </g>
  </g>

  <g id="cv">
    <defs>
      <clipPath id="clip1_1601">
        <rect width="18.000000" height="18.000000" fill="white" fill-opacity="0"/>
      </clipPath>
    </defs>
    <rect width="18.000000" height="18.000000" fill="#FFFFFF" fill-opacity="0"/>
    <g clip-path="url(#clip1_1601)">
      <path d="M12.76 11.27L9.25 14.62L5.73 11.27C3.1 11.38 1 13.43 1 15.97L1 16.31C1 17.24 1.79 18 2.76 18L15.73 18C16.7 18 17.5 17.24 17.5 16.31L17.5 15.97C17.5 13.43 15.39 11.38 12.76 11.27ZM1.5 2.8L1.73 2.85L1.73 4.91C1.47 5.06 1.29 5.31 1.29 5.62C1.29 5.92 1.46 6.16 1.7 6.31L1.12 8.5C1.06 8.75 1.2 9 1.4 9L2.94 9C3.15 9 3.29 8.75 3.22 8.5L2.65 6.31C2.89 6.16 3.06 5.92 3.06 5.62C3.06 5.31 2.87 5.06 2.62 4.91L2.62 3.06L5.05 3.62C4.73 4.22 4.53 4.9 4.53 5.62C4.53 8.11 6.64 10.12 9.25 10.12C11.85 10.12 13.96 8.11 13.96 5.62C13.96 4.9 13.76 4.22 13.44 3.62L16.99 2.8C17.66 2.65 17.66 1.85 16.99 1.69L9.98 0.08C9.5 -0.03 8.99 -0.03 8.52 0.08L1.5 1.69C0.83 1.85 0.83 2.65 1.5 2.8Z" fill-opacity="1.000000" fill-rule="nonzero"/>
    </g>
  </g>

  <g id="portfolio">
    <defs>
      <clipPath id="clip1_1589">
        <rect width="18.000000" height="18.000000" fill="white" fill-opacity="0"/>
      </clipPath>
    </defs>
    <rect width="18.000000" height="18.000000" fill="#727272" fill-opacity="0"/>
    <g clip-path="url(#clip1_1589)">
      <path d="M6.75 9.75L6.75 12L11.25 12L11.25 9.75L16.5 9.75L16.5 15C16.5 15.19 16.42 15.38 16.28 15.53C16.13 15.67 15.94 15.75 15.75 15.75L2.25 15.75C2.05 15.75 1.86 15.67 1.71 15.53C1.57 15.38 1.5 15.19 1.5 15L1.5 9.75L6.75 9.75ZM8.25 8.25L9.75 8.25L9.75 10.5L8.25 10.5L8.25 8.25ZM5.25 3.75L5.25 1.5C5.25 1.3 5.32 1.11 5.46 0.96C5.61 0.82 5.8 0.75 6 0.75L12 0.75C12.19 0.75 12.38 0.82 12.53 0.96C12.67 1.11 12.75 1.3 12.75 1.5L12.75 3.75L15.75 3.75C15.94 3.75 16.13 3.82 16.28 3.96C16.42 4.11 16.5 4.3 16.5 4.5L16.5 8.25L11.25 8.25L11.25 6.75L6.75 6.75L6.75 8.25L1.5 8.25L1.5 4.5C1.5 4.3 1.57 4.11 1.71 3.96C1.86 3.82 2.05 3.75 2.25 3.75L5.25 3.75ZM6.75 2.25L6.75 3.75L11.25 3.75L11.25 2.25L6.75 2.25Z" fill-opacity="1.000000" fill-rule="nonzero"/>
    </g>
  </g>

  <g id="blog">
    <defs>
      <clipPath id="clip1_1592">
        <rect width="18.000000" height="18.000000" fill="white" fill-opacity="0"/>
      </clipPath>
    </defs>
    <rect width="18.000000" height="18.000000" fill="#FFFFFF" fill-opacity="0"/>
    <g clip-path="url(#clip1_1592)">
      <path d="M15.75 1.5C4.5 1.5 3 12 2.25 16.5L3.74 16.5C4.24 14 5.49 12.62 7.5 12.37C10.5 12 12.75 9.37 13.5 7.12L12.37 6.37L13.12 5.62C13.87 4.87 14.62 3.75 15.75 1.5Z" fill-opacity="1.000000" fill-rule="nonzero"/>
    </g>
  </g>

  <g id="contact">
    <defs>
      <clipPath id="clip1_1595">
        <rect width="18.000000" height="18.000000" fill="white" fill-opacity="0"/>
      </clipPath>
    </defs>
    <rect width="18.000000" height="18.000000" fill="#727272" fill-opacity="0"/>
    <g clip-path="url(#clip1_1595)">
      <path d="M4.84 14.25L1.5 16.87L1.5 3C1.5 2.8 1.57 2.61 1.71 2.46C1.86 2.32 2.05 2.25 2.25 2.25L15.75 2.25C15.94 2.25 16.13 2.32 16.28 2.46C16.42 2.61 16.5 2.8 16.5 3L16.5 13.5C16.5 13.69 16.42 13.88 16.28 14.03C16.13 14.17 15.94 14.25 15.75 14.25L4.84 14.25Z" fill-opacity="1.000000" fill-rule="nonzero"/>
    </g>
  </g>

  <!-- social -->

 <g id="facebook">
    <defs>
  		<clipPath id="clip1_1459">
  			<rect id="Icons-facebook" width="14.000000" height="14.000000" fill="white" fill-opacity="0"/>
  		</clipPath>
  	</defs>
  	<rect id="Icons-facebook" width="14.000000" height="14.000000" fill="#FFFFFF" fill-opacity="0"/>
  	<g clip-path="url(#clip1_1459)">
  		<path id="Vector" d="M8.16 7.87L9.62 7.87L10.2 5.54L8.16 5.54L8.16 4.37C8.16 3.77 8.16 3.2 9.33 3.2L10.2 3.2L10.2 1.24C10.01 1.22 9.3 1.16 8.54 1.16C6.95 1.16 5.83 2.13 5.83 3.9L5.83 5.54L4.08 5.54L4.08 7.87L5.83 7.87L5.83 12.83L8.16 12.83L8.16 7.87Z" fill-opacity="1.000000" fill-rule="nonzero"/>
  	</g>
 </g>

 <g id="instagram">
   <defs>
  		<clipPath id="clip1_1462">
  			<rect id="Icons-instagram" width="14.000000" height="14.000000" fill="white" fill-opacity="0"/>
  		</clipPath>
  	</defs>
  	<rect id="Icons-instagram" width="14.000000" height="14.000000" fill="#FFFFFF" fill-opacity="0"/>
  	<g clip-path="url(#clip1_1462)">
  		<path id="Vector" d="M7 1.16C8.58 1.16 8.78 1.17 9.4 1.2C10.02 1.23 10.44 1.32 10.82 1.47C11.2 1.62 11.53 1.82 11.85 2.14C12.15 2.43 12.38 2.78 12.52 3.17C12.67 3.55 12.76 3.97 12.79 4.59C12.82 5.21 12.83 5.41 12.83 7C12.83 8.58 12.82 8.78 12.79 9.4C12.76 10.02 12.67 10.44 12.52 10.82C12.38 11.21 12.15 11.56 11.85 11.85C11.56 12.15 11.21 12.38 10.82 12.52C10.44 12.67 10.02 12.76 9.4 12.79C8.78 12.82 8.58 12.83 7 12.83C5.41 12.83 5.21 12.82 4.59 12.79C3.97 12.76 3.55 12.67 3.17 12.52C2.78 12.38 2.43 12.15 2.14 11.85C1.84 11.56 1.61 11.21 1.47 10.82C1.32 10.44 1.23 10.02 1.2 9.4C1.17 8.78 1.16 8.58 1.16 7C1.16 5.41 1.17 5.21 1.2 4.59C1.23 3.97 1.32 3.55 1.47 3.17C1.61 2.78 1.84 2.43 2.14 2.14C2.43 1.84 2.78 1.61 3.17 1.47C3.55 1.32 3.97 1.23 4.59 1.2C5.21 1.17 5.41 1.16 7 1.16ZM7 4.08C6.22 4.08 5.48 4.39 4.93 4.93C4.39 5.48 4.08 6.22 4.08 7C4.08 7.77 4.39 8.51 4.93 9.06C5.48 9.6 6.22 9.91 7 9.91C7.77 9.91 8.51 9.6 9.06 9.06C9.6 8.51 9.91 7.77 9.91 7C9.91 6.22 9.6 5.48 9.06 4.93C8.51 4.39 7.77 4.08 7 4.08ZM10.79 3.93C10.79 3.74 10.71 3.55 10.57 3.42C10.44 3.28 10.25 3.2 10.06 3.2C9.86 3.2 9.68 3.28 9.54 3.42C9.41 3.55 9.33 3.74 9.33 3.93C9.33 4.13 9.41 4.31 9.54 4.45C9.68 4.58 9.86 4.66 10.06 4.66C10.25 4.66 10.44 4.58 10.57 4.45C10.71 4.31 10.79 4.13 10.79 3.93ZM7 5.25C7.46 5.25 7.9 5.43 8.23 5.76C8.56 6.09 8.75 6.53 8.75 7C8.75 7.46 8.56 7.9 8.23 8.23C7.9 8.56 7.46 8.75 7 8.75C6.53 8.75 6.09 8.56 5.76 8.23C5.43 7.9 5.25 7.46 5.25 7C5.25 6.53 5.43 6.09 5.76 5.76C6.09 5.43 6.53 5.25 7 5.25Z" fill-opacity="1.000000" fill-rule="nonzero"/>
  	</g>
 </g>

 <g id="twitter">
   <defs>
  		<clipPath id="clip1_1465">
  			<rect id="Icons-twitter" width="14.000000" height="14.000000" fill="white" fill-opacity="0"/>
  		</clipPath>
  	</defs>
  	<rect id="Icons-twitter" width="14.000000" height="14.000000" fill="#FFFFFF" fill-opacity="0"/>
  	<g clip-path="url(#clip1_1465)">
  		<path id="Vector" d="M12.92 3.29C12.48 3.49 12.01 3.62 11.52 3.68C12.03 3.37 12.41 2.89 12.6 2.33C12.12 2.61 11.59 2.81 11.05 2.92C10.68 2.53 10.19 2.27 9.66 2.18C9.13 2.09 8.59 2.18 8.11 2.44C7.64 2.69 7.26 3.09 7.04 3.58C6.82 4.07 6.77 4.62 6.89 5.15C5.92 5.1 4.97 4.84 4.1 4.41C3.24 3.97 2.47 3.35 1.86 2.6C1.64 2.97 1.53 3.39 1.53 3.82C1.53 4.67 1.96 5.42 2.62 5.85C2.23 5.84 1.85 5.74 1.51 5.55L1.51 5.58C1.51 6.14 1.71 6.69 2.06 7.12C2.42 7.56 2.92 7.86 3.47 7.97C3.11 8.07 2.73 8.08 2.37 8.01C2.52 8.5 2.82 8.92 3.23 9.23C3.64 9.53 4.14 9.7 4.64 9.71C4.14 10.11 3.56 10.4 2.94 10.57C2.32 10.75 1.67 10.8 1.03 10.72C2.15 11.44 3.45 11.82 4.77 11.81C9.26 11.81 11.71 8.1 11.71 4.87C11.71 4.77 11.71 4.66 11.71 4.56C12.18 4.21 12.6 3.79 12.92 3.3L12.92 3.29Z" fill-opacity="1.000000" fill-rule="nonzero"/>
  	</g>
 </g>

 <g id="linkedin">
   <defs>
  		<clipPath id="clip1_1468">
  			<rect id="Icons-linkedin" width="14.000000" height="14.000000" fill="white" fill-opacity="0"/>
  		</clipPath>
  	</defs>
  	<rect id="Icons-linkedin" width="14.000000" height="14.000000" fill="#FFFFFF" fill-opacity="0"/>
  	<g clip-path="url(#clip1_1468)">
  		<path id="Vector" d="M4.04 2.91C4.04 3.22 3.92 3.52 3.7 3.74C3.48 3.96 3.19 4.08 2.88 4.08C2.57 4.08 2.27 3.95 2.05 3.74C1.83 3.52 1.71 3.22 1.71 2.91C1.71 2.6 1.83 2.3 2.05 2.09C2.27 1.87 2.57 1.74 2.88 1.74C3.19 1.74 3.48 1.87 3.7 2.09C3.92 2.31 4.04 2.6 4.04 2.91ZM4.08 4.94L1.74 4.94L1.74 12.25L4.08 12.25L4.08 4.94ZM7.76 4.94L5.44 4.94L5.44 12.25L7.74 12.25L7.74 8.41C7.74 6.28 10.52 6.08 10.52 8.41L10.52 12.25L12.83 12.25L12.83 7.62C12.83 4.02 8.71 4.15 7.74 5.92L7.76 4.94Z" fill-opacity="1" fill-rule="nonzero"/>
  	</g>
 </g>

 <g id="youtube">
   <defs>
  		<clipPath id="clip1_1474">
  			<rect id="Icons-Youtube" width="14.000000" height="14.000000" fill="white" fill-opacity="0"/>
  		</clipPath>
  	</defs>
  	<rect id="Icons-Youtube" width="14.000000" height="14.000000" fill="#FFFFFF" fill-opacity="0"/>
  	<g clip-path="url(#clip1_1474)">
  		<path id="Vector" d="M12.56 3.79C12.83 4.83 12.83 7 12.83 7C12.83 7 12.83 9.16 12.56 10.2C12.41 10.78 11.98 11.23 11.43 11.38C10.43 11.66 7 11.66 7 11.66C7 11.66 3.56 11.66 2.56 11.38C2.01 11.23 1.57 10.78 1.43 10.2C1.16 9.16 1.16 7 1.16 7C1.16 7 1.16 4.83 1.43 3.79C1.58 3.21 2.01 2.76 2.56 2.61C3.56 2.33 7 2.33 7 2.33C7 2.33 10.43 2.33 11.43 2.61C11.98 2.76 12.42 3.21 12.56 3.79ZM5.83 9.04L9.33 7L5.83 4.95L5.83 9.04Z" fill-opacity="1.000000" fill-rule="nonzero"/>
  	</g>
 </g>

  <g id="dribbble">
    <defs>
      <clipPath id="clip1_1471">
        <rect id="Icons-dribbble" width="14.000000" height="14.000000" fill="white" fill-opacity="0"/>
      </clipPath>
    </defs>
    <rect id="Icons-dribbble" width="14.000000" height="14.000000" fill="#FFFFFF" fill-opacity="0"/>
    <g clip-path="url(#clip1_1471)">
      <path id="Vector" d="M11.66 6.75C11.61 5.83 11.29 4.94 10.74 4.21C10.57 4.39 10.39 4.56 10.2 4.71C9.62 5.2 8.97 5.59 8.27 5.89C8.37 6.09 8.46 6.29 8.53 6.48L8.53 6.48C8.56 6.53 8.58 6.58 8.6 6.64C9.48 6.54 10.41 6.57 11.31 6.69C11.43 6.71 11.55 6.73 11.66 6.75ZM6.18 2.4C6.75 3.2 7.27 4.03 7.75 4.89C8.46 4.61 9.05 4.25 9.53 3.86C9.69 3.72 9.85 3.58 9.99 3.42C9.15 2.71 8.09 2.33 7 2.33C6.72 2.33 6.45 2.35 6.18 2.4L6.18 2.4ZM2.48 5.83C2.87 5.82 3.27 5.79 3.67 5.75C4.62 5.67 5.57 5.51 6.5 5.28C6.02 4.43 5.49 3.61 4.93 2.81C4.33 3.11 3.8 3.53 3.37 4.05C2.95 4.57 2.64 5.18 2.48 5.83ZM3.37 9.93C3.59 9.6 3.89 9.23 4.29 8.82C5.14 7.95 6.14 7.28 7.29 6.91L7.33 6.89C7.23 6.68 7.14 6.49 7.05 6.31C5.98 6.63 4.85 6.82 3.73 6.92C3.18 6.97 2.69 6.99 2.33 7C2.33 8.07 2.69 9.1 3.37 9.93L3.37 9.93ZM8.75 11.32C8.52 10.19 8.2 9.07 7.8 7.99C6.63 8.41 5.7 9.03 4.98 9.77C4.69 10.07 4.43 10.39 4.21 10.74C5.01 11.34 5.99 11.66 7 11.66C7.6 11.66 8.19 11.55 8.75 11.32L8.75 11.32ZM9.84 10.69C10.75 9.99 11.37 8.98 11.58 7.85C11.38 7.8 11.13 7.75 10.86 7.71C10.24 7.63 9.62 7.62 9 7.7C9.35 8.67 9.63 9.68 9.84 10.69L9.84 10.69ZM7 12.83C3.77 12.83 1.16 10.22 1.16 7C1.16 3.77 3.77 1.16 7 1.16C10.22 1.16 12.83 3.77 12.83 7C12.83 10.22 10.22 12.83 7 12.83Z" fill-opacity="1.000000" fill-rule="nonzero"/>
    </g>
  </g>

  <!-- support icons -->

  <g id="list-item">
  	<rect x="0.500000" y="0.500000" width="9.000000" height="9.000000"  stroke-opacity="1.000000" stroke-width="1.000000"/>
  	<rect x="5.500000" y="5.500000" width="9.000000" height="9.000000" stroke-opacity="1.000000" stroke-width="1.000000"/>
  </g>

 <g id="download">
 <path d="M0.33 9.95L9.66 9.95L9.66 5.28L10.83 5.28L10.83 10.61C10.83 10.79 10.77 10.96 10.66 11.09C10.55 11.21 10.4 11.28 10.25 11.28L-0.25 11.28C-0.41 11.28 -0.56 11.21 -0.67 11.09C-0.78 10.96 -0.84 10.79 -0.84 10.61L-0.84 5.28L0.33 5.28L0.33 9.95ZM6.16 3.28L9.08 3.28L5 7.95L0.91 3.28L3.83 3.28L3.83 -0.72L6.16 -0.72L6.16 3.28Z" fill="#2B2B2B" fill-opacity="1.000000" fill-rule="nonzero"/>
 </g>
</svg>
