<svg width="68.000000" height="68.000000" viewBox="0 0 68 68" fill="none" xmlns="http://www.w3.org/2000/svg" xmlns:xlink="http://www.w3.org/1999/xlink">
	<desc>
			Created with Pixso.
	</desc>
	<defs>
		<clipPath id="clip1_1497">
			<rect width="68.000000" height="68.000000" fill="white" fill-opacity="0"/>
		</clipPath>
	</defs>
	<rect width="68.000000" height="68.000000" fill="#FFFFFF" fill-opacity="0"/>
	<g clip-path="url(#clip1_1497)">
		<path d="M31.6 49.33C31.05 49.33 30.61 49.78 30.61 50.33C30.61 50.88 31.05 51.33 31.6 51.33L36.39 51.33C36.94 51.33 37.38 50.88 37.38 50.33C37.38 49.78 36.94 49.33 36.39 49.33L31.6 49.33Z" fill="#2B2B2B" fill-opacity="1.000000" fill-rule="nonzero"/>
		<path d="M11.95 33.87L18.53 33.87C18.93 34.91 19.95 35.66 21.13 35.66C22.32 35.66 23.33 34.91 23.74 33.87L25.05 33.87C25.6 33.87 26.05 33.42 26.05 32.87C26.05 32.32 25.6 31.87 25.05 31.87L23.74 31.87C23.33 30.83 22.32 30.08 21.13 30.08C19.95 30.08 18.93 30.83 18.53 31.87L11.95 31.87C11.4 31.87 10.95 32.32 10.95 32.87C10.95 33.42 11.4 33.87 11.95 33.87ZM21.13 32.07C21.57 32.07 21.93 32.43 21.93 32.87C21.93 33.31 21.57 33.67 21.13 33.67C20.69 33.67 20.34 33.31 20.34 32.87C20.34 32.43 20.69 32.07 21.13 32.07Z" fill="#2B2B2B" fill-opacity="1.000000" fill-rule="nonzero"/>
		<path d="M11.95 28.16L13.22 28.16C13.62 29.2 14.64 29.95 15.82 29.95C17.01 29.95 18.02 29.2 18.42 28.16L25.05 28.16C25.6 28.16 26.05 27.71 26.05 27.16C26.05 26.61 25.6 26.16 25.05 26.16L18.42 26.16C18.02 25.12 17.01 24.37 15.82 24.37C14.64 24.37 13.62 25.12 13.22 26.16L11.95 26.16C11.4 26.16 10.95 26.61 10.95 27.16C10.95 27.71 11.4 28.16 11.95 28.16ZM15.82 26.36C16.26 26.36 16.62 26.72 16.62 27.16C16.62 27.6 16.26 27.96 15.82 27.96C15.38 27.96 15.03 27.6 15.03 27.16C15.03 26.72 15.38 26.36 15.82 26.36Z" fill="#2B2B2B" fill-opacity="1.000000" fill-rule="nonzero"/>
		<path d="M26.25 18C26.25 18.55 25.8 18.99 25.25 18.99C24.7 18.99 24.26 18.55 24.26 18C24.26 17.45 24.7 17 25.25 17C25.8 17 26.25 17.45 26.25 18Z" fill="#2B2B2B" fill-opacity="1.000000" fill-rule="evenodd"/>
		<path d="M23.5 18C23.5 18.55 23.06 18.99 22.51 18.99C21.96 18.99 21.51 18.55 21.51 18C21.51 17.45 21.96 17 22.51 17C23.06 17 23.5 17.45 23.5 18Z" fill="#2B2B2B" fill-opacity="1.000000" fill-rule="evenodd"/>
		<path d="M20.76 18C20.76 18.55 20.31 18.99 19.76 18.99C19.21 18.99 18.77 18.55 18.77 18C18.77 17.45 19.21 17 19.76 17C20.31 17 20.76 17.45 20.76 18Z" fill="#2B2B2B" fill-opacity="1.000000" fill-rule="evenodd"/>
		<path d="M65.01 6.7L64.63 6.7L64.91 6.42C65.75 5.59 65.75 4.23 64.91 3.4L62.73 1.22C61.9 0.38 60.54 0.38 59.71 1.22L54.23 6.7L2.98 6.7C1.34 6.7 0 8.04 0 9.69L0 51.05C0 53.07 1.63 54.71 3.65 54.71L27.24 54.71L27.24 61.75L22.44 61.75C21.16 61.75 20.12 62.8 20.12 64.08L20.12 65.07C20.12 66.35 21.16 67.4 22.44 67.4L45.55 67.4C46.83 67.4 47.87 66.35 47.87 65.07L47.87 64.08C47.87 62.8 46.83 61.75 45.55 61.75L40.75 61.75L40.75 54.71L51.39 54.71C51.94 54.71 52.39 54.26 52.39 53.71C52.39 53.16 51.94 52.71 51.39 52.71L3.65 52.71C2.73 52.71 1.99 51.97 1.99 51.05L1.99 48.11L66 48.11L66 51.05C66 51.97 65.26 52.71 64.34 52.71L56.04 52.71C55.49 52.71 55.05 53.16 55.05 53.71C55.05 54.26 55.49 54.71 56.04 54.71L64.34 54.71C66.36 54.71 68 53.07 68 51.05L68 9.69C68 8.04 66.65 6.7 65.01 6.7ZM45.55 63.75C45.73 63.75 45.88 63.89 45.88 64.08L45.88 65.07C45.88 65.26 45.73 65.4 45.55 65.4L22.44 65.4C22.26 65.4 22.11 65.26 22.11 65.07L22.11 64.08C22.11 63.89 22.26 63.75 22.44 63.75L45.55 63.75ZM29.23 54.71L38.76 54.71L38.76 61.75L29.23 61.75L29.23 54.71ZM61.12 2.63C61.17 2.57 61.27 2.57 61.32 2.63L63.5 4.81C63.56 4.86 63.56 4.96 63.5 5.01L61.42 7.09L59.04 4.71L61.12 2.63ZM57.63 6.12L60.01 8.5L59.32 9.2L56.93 6.81L57.63 6.12ZM55.52 8.22L57.91 10.61L46.12 22.39L43.74 20.01L55.52 8.22ZM54.05 17.33C55.4 17.33 56.51 18.43 56.51 19.78C56.51 21.14 55.4 22.24 54.05 22.24C52.69 22.24 51.59 21.14 51.59 19.78C51.59 19.77 51.59 19.75 51.6 19.74L54 17.33C54.02 17.33 54.03 17.33 54.05 17.33ZM44.39 23.48L41.45 24.68L42.65 21.74L44.39 23.48ZM66 46.11L1.99 46.11L1.99 9.69C1.99 9.14 2.43 8.69 2.98 8.69L52.24 8.69L50.72 10.21L16.86 10.21C16.31 10.21 15.87 10.66 15.87 11.21C15.87 11.76 16.31 12.2 16.86 12.2L48.72 12.2L41.7 19.23C41.5 19.43 41.34 19.66 41.24 19.93L39.01 25.37C38.81 25.87 38.92 26.44 39.31 26.83C39.56 27.08 39.9 27.22 40.25 27.22C40.42 27.22 40.59 27.18 40.76 27.12L46.21 24.89C46.46 24.79 46.69 24.64 46.88 24.45L49.91 21.42C50.57 23.06 52.17 24.23 54.05 24.23C56.5 24.23 58.5 22.24 58.5 19.78C58.5 17.91 57.33 16.3 55.68 15.65L59.13 12.2L62.49 12.2L62.49 42.6L61.96 42.6L58.35 36.35C58.08 35.87 57.47 35.71 56.99 35.99C56.52 36.26 56.35 36.87 56.63 37.35L59.66 42.6L45.75 42.6L44.26 40.02L51.21 27.97L54.3 33.32C54.58 33.8 55.19 33.96 55.67 33.69C56.14 33.41 56.3 32.8 56.03 32.33L52.73 26.61C52.42 26.06 51.85 25.74 51.21 25.74C50.58 25.74 50.01 26.06 49.69 26.61L43.11 38.03L34.65 23.38C34.33 22.83 33.77 22.51 33.13 22.51C32.5 22.51 31.93 22.83 31.61 23.38L29.37 27.27L29.37 16.6C29.37 15.31 28.33 14.27 27.04 14.27L9.96 14.27C8.67 14.27 7.63 15.31 7.63 16.6L7.63 38.38C7.63 39.29 8.38 40.04 9.29 40.04L22 40.04L20.52 42.6L5.5 42.6L5.5 12.2L12.21 12.2C12.76 12.2 13.21 11.76 13.21 11.21C13.21 10.66 12.76 10.21 12.21 10.21L5.17 10.21C4.25 10.21 3.51 10.96 3.51 11.87L3.51 42.93C3.51 43.85 4.25 44.6 5.17 44.6L62.82 44.6C63.74 44.6 64.48 43.85 64.48 42.93L64.48 11.87C64.48 10.96 63.74 10.21 62.82 10.21L61.12 10.21L62.64 8.69L65.01 8.69C65.56 8.69 66 9.14 66 9.69L66 46.11ZM27.38 22.11L27.38 38.05L9.62 38.05L9.62 22.11L27.38 22.11ZM9.62 20.12L9.62 16.6C9.62 16.41 9.77 16.26 9.96 16.26L27.04 16.26C27.23 16.26 27.38 16.41 27.38 16.6L27.38 20.12L9.62 20.12ZM24.3 40.04L27.71 40.04C28.62 40.04 29.37 39.29 29.37 38.38L29.37 36.27C29.62 36.39 29.9 36.45 30.19 36.45C30.87 36.45 31.47 36.1 31.81 35.51L33.51 32.58C33.56 32.49 33.64 32.47 33.7 32.47C33.75 32.47 33.83 32.49 33.88 32.58L34.93 34.39C35.27 34.97 35.88 35.33 36.56 35.33C37.24 35.33 37.85 34.97 38.19 34.39L38.44 33.94L43.45 42.6L22.82 42.6L24.3 40.04ZM29.37 32.93L29.37 31.26L33.13 24.74L37.29 31.94L36.56 33.22L35.61 31.58C35.21 30.89 34.49 30.48 33.7 30.48C32.9 30.48 32.18 30.89 31.78 31.58L30.19 34.35L29.37 32.93Z" fill="#2B2B2B" fill-opacity="1.000000" fill-rule="nonzero"/>
	</g>
</svg>
