<svg width="14.000000" height="14.000000" viewBox="0 0 14 14" fill="none" xmlns="http://www.w3.org/2000/svg" xmlns:xlink="http://www.w3.org/1999/xlink">
	<desc>
			Created with Pixso.
	</desc>
	<defs>
		<clipPath id="clip1_1462">
			<rect id="Icons-instagram" width="14.000000" height="14.000000" fill="white" fill-opacity="0"/>
		</clipPath>
	</defs>
	<rect id="Icons-instagram" width="14.000000" height="14.000000" fill="#FFFFFF" fill-opacity="0"/>
	<g clip-path="url(#clip1_1462)">
		<path id="Vector" d="M7 1.16C8.58 1.16 8.78 1.17 9.4 1.2C10.02 1.23 10.44 1.32 10.82 1.47C11.2 1.62 11.53 1.82 11.85 2.14C12.15 2.43 12.38 2.78 12.52 3.17C12.67 3.55 12.76 3.97 12.79 4.59C12.82 5.21 12.83 5.41 12.83 7C12.83 8.58 12.82 8.78 12.79 9.4C12.76 10.02 12.67 10.44 12.52 10.82C12.38 11.21 12.15 11.56 11.85 11.85C11.56 12.15 11.21 12.38 10.82 12.52C10.44 12.67 10.02 12.76 9.4 12.79C8.78 12.82 8.58 12.83 7 12.83C5.41 12.83 5.21 12.82 4.59 12.79C3.97 12.76 3.55 12.67 3.17 12.52C2.78 12.38 2.43 12.15 2.14 11.85C1.84 11.56 1.61 11.21 1.47 10.82C1.32 10.44 1.23 10.02 1.2 9.4C1.17 8.78 1.16 8.58 1.16 7C1.16 5.41 1.17 5.21 1.2 4.59C1.23 3.97 1.32 3.55 1.47 3.17C1.61 2.78 1.84 2.43 2.14 2.14C2.43 1.84 2.78 1.61 3.17 1.47C3.55 1.32 3.97 1.23 4.59 1.2C5.21 1.17 5.41 1.16 7 1.16ZM7 4.08C6.22 4.08 5.48 4.39 4.93 4.93C4.39 5.48 4.08 6.22 4.08 7C4.08 7.77 4.39 8.51 4.93 9.06C5.48 9.6 6.22 9.91 7 9.91C7.77 9.91 8.51 9.6 9.06 9.06C9.6 8.51 9.91 7.77 9.91 7C9.91 6.22 9.6 5.48 9.06 4.93C8.51 4.39 7.77 4.08 7 4.08ZM10.79 3.93C10.79 3.74 10.71 3.55 10.57 3.42C10.44 3.28 10.25 3.2 10.06 3.2C9.86 3.2 9.68 3.28 9.54 3.42C9.41 3.55 9.33 3.74 9.33 3.93C9.33 4.13 9.41 4.31 9.54 4.45C9.68 4.58 9.86 4.66 10.06 4.66C10.25 4.66 10.44 4.58 10.57 4.45C10.71 4.31 10.79 4.13 10.79 3.93ZM7 5.25C7.46 5.25 7.9 5.43 8.23 5.76C8.56 6.09 8.75 6.53 8.75 7C8.75 7.46 8.56 7.9 8.23 8.23C7.9 8.56 7.46 8.75 7 8.75C6.53 8.75 6.09 8.56 5.76 8.23C5.43 7.9 5.25 7.46 5.25 7C5.25 6.53 5.43 6.09 5.76 5.76C6.09 5.43 6.53 5.25 7 5.25Z" fill="#1B1B1B" fill-opacity="1.000000" fill-rule="nonzero"/>
	</g>
</svg>
