<svg width="14.000000" height="14.000000" viewBox="0 0 14 14" fill="none" xmlns="http://www.w3.org/2000/svg" xmlns:xlink="http://www.w3.org/1999/xlink">
	<desc>
			Created with Pixso.
	</desc>
	<defs>
		<clipPath id="clip1_1465">
			<rect id="Icons-twitter" width="14.000000" height="14.000000" fill="white" fill-opacity="0"/>
		</clipPath>
	</defs>
	<rect id="Icons-twitter" width="14.000000" height="14.000000" fill="#FFFFFF" fill-opacity="0"/>
	<g clip-path="url(#clip1_1465)">
		<path id="Vector" d="M12.92 3.29C12.48 3.49 12.01 3.62 11.52 3.68C12.03 3.37 12.41 2.89 12.6 2.33C12.12 2.61 11.59 2.81 11.05 2.92C10.68 2.53 10.19 2.27 9.66 2.18C9.13 2.09 8.59 2.18 8.11 2.44C7.64 2.69 7.26 3.09 7.04 3.58C6.82 4.07 6.77 4.62 6.89 5.15C5.92 5.1 4.97 4.84 4.1 4.41C3.24 3.97 2.47 3.35 1.86 2.6C1.64 2.97 1.53 3.39 1.53 3.82C1.53 4.67 1.96 5.42 2.62 5.85C2.23 5.84 1.85 5.74 1.51 5.55L1.51 5.58C1.51 6.14 1.71 6.69 2.06 7.12C2.42 7.56 2.92 7.86 3.47 7.97C3.11 8.07 2.73 8.08 2.37 8.01C2.52 8.5 2.82 8.92 3.23 9.23C3.64 9.53 4.14 9.7 4.64 9.71C4.14 10.11 3.56 10.4 2.94 10.57C2.32 10.75 1.67 10.8 1.03 10.72C2.15 11.44 3.45 11.82 4.77 11.81C9.26 11.81 11.71 8.1 11.71 4.87C11.71 4.77 11.71 4.66 11.71 4.56C12.18 4.21 12.6 3.79 12.92 3.3L12.92 3.29Z" fill="#1B1B1B" fill-opacity="1.000000" fill-rule="nonzero"/>
	</g>
</svg>
