<svg width="14.000000" height="14.000000" viewBox="0 0 14 14" fill="none" xmlns="http://www.w3.org/2000/svg" xmlns:xlink="http://www.w3.org/1999/xlink">
	<desc>
			Created with Pixso.
	</desc>
	<defs>
		<clipPath id="clip1_1471">
			<rect id="Icons-dribbble" width="14.000000" height="14.000000" fill="white" fill-opacity="0"/>
		</clipPath>
	</defs>
	<rect id="Icons-dribbble" width="14.000000" height="14.000000" fill="#FFFFFF" fill-opacity="0"/>
	<g clip-path="url(#clip1_1471)">
		<path id="Vector" d="M11.66 6.75C11.61 5.83 11.29 4.94 10.74 4.21C10.57 4.39 10.39 4.56 10.2 4.71C9.62 5.2 8.97 5.59 8.27 5.89C8.37 6.09 8.46 6.29 8.53 6.48L8.53 6.48C8.56 6.53 8.58 6.58 8.6 6.64C9.48 6.54 10.41 6.57 11.31 6.69C11.43 6.71 11.55 6.73 11.66 6.75ZM6.18 2.4C6.75 3.2 7.27 4.03 7.75 4.89C8.46 4.61 9.05 4.25 9.53 3.86C9.69 3.72 9.85 3.58 9.99 3.42C9.15 2.71 8.09 2.33 7 2.33C6.72 2.33 6.45 2.35 6.18 2.4L6.18 2.4ZM2.48 5.83C2.87 5.82 3.27 5.79 3.67 5.75C4.62 5.67 5.57 5.51 6.5 5.28C6.02 4.43 5.49 3.61 4.93 2.81C4.33 3.11 3.8 3.53 3.37 4.05C2.95 4.57 2.64 5.18 2.48 5.83ZM3.37 9.93C3.59 9.6 3.89 9.23 4.29 8.82C5.14 7.95 6.14 7.28 7.29 6.91L7.33 6.89C7.23 6.68 7.14 6.49 7.05 6.31C5.98 6.63 4.85 6.82 3.73 6.92C3.18 6.97 2.69 6.99 2.33 7C2.33 8.07 2.69 9.1 3.37 9.93L3.37 9.93ZM8.75 11.32C8.52 10.19 8.2 9.07 7.8 7.99C6.63 8.41 5.7 9.03 4.98 9.77C4.69 10.07 4.43 10.39 4.21 10.74C5.01 11.34 5.99 11.66 7 11.66C7.6 11.66 8.19 11.55 8.75 11.32L8.75 11.32ZM9.84 10.69C10.75 9.99 11.37 8.98 11.58 7.85C11.38 7.8 11.13 7.75 10.86 7.71C10.24 7.63 9.62 7.62 9 7.7C9.35 8.67 9.63 9.68 9.84 10.69L9.84 10.69ZM7 12.83C3.77 12.83 1.16 10.22 1.16 7C1.16 3.77 3.77 1.16 7 1.16C10.22 1.16 12.83 3.77 12.83 7C12.83 10.22 10.22 12.83 7 12.83Z" fill="#2B2B2B" fill-opacity="1.000000" fill-rule="nonzero"/>
	</g>
</svg>
