<svg width="14.000000" height="14.000000" viewBox="0 0 14 14" fill="none" xmlns="http://www.w3.org/2000/svg" xmlns:xlink="http://www.w3.org/1999/xlink">
	<desc>
			Created with Pixso.
	</desc>
	<defs>
		<clipPath id="clip1_1468">
			<rect id="Icons-linkedin" width="14.000000" height="14.000000" fill="white" fill-opacity="0"/>
		</clipPath>
	</defs>
	<rect id="Icons-linkedin" width="14.000000" height="14.000000" fill="#FFFFFF" fill-opacity="0"/>
	<g clip-path="url(#clip1_1468)">
		<path id="Vector" d="M4.04 2.91C4.04 3.22 3.92 3.52 3.7 3.74C3.48 3.96 3.19 4.08 2.88 4.08C2.57 4.08 2.27 3.95 2.05 3.74C1.83 3.52 1.71 3.22 1.71 2.91C1.71 2.6 1.83 2.3 2.05 2.09C2.27 1.87 2.57 1.74 2.88 1.74C3.19 1.74 3.48 1.87 3.7 2.09C3.92 2.31 4.04 2.6 4.04 2.91ZM4.08 4.94L1.74 4.94L1.74 12.25L4.08 12.25L4.08 4.94ZM7.76 4.94L5.44 4.94L5.44 12.25L7.74 12.25L7.74 8.41C7.74 6.28 10.52 6.08 10.52 8.41L10.52 12.25L12.83 12.25L12.83 7.62C12.83 4.02 8.71 4.15 7.74 5.92L7.76 4.94Z" fill="#1B1B1B" fill-opacity="0" fill-rule="nonzero"/>
	</g>
</svg>
