<svg width="140.000000" height="140.000000" viewBox="0 0 140 140" fill="none" xmlns="http://www.w3.org/2000/svg" xmlns:xlink="http://www.w3.org/1999/xlink">
	<desc>
			Created with Pixso.
	</desc>
	<defs>
		<clipPath id="clip10_1727">
			<rect id="Frame" width="140.000000" height="140.000000" fill="white" fill-opacity="0"/>
		</clipPath>
	</defs>
	<rect id="Frame" width="140.000000" height="140.000000" fill="#FFFFFF" fill-opacity="0"/>
	<g clip-path="url(#clip10_1727)">
		<path id="Vector" d="M28.25 56.92C28.27 57.63 28.19 58.37 28.01 59.12C27.82 59.88 27.56 60.62 27.24 61.32C26.82 62.22 26.31 63.03 25.71 63.75C25.12 64.47 24.47 65.09 23.78 65.61C23.14 66.08 22.47 66.44 21.76 66.68C21.06 66.92 20.38 67.04 19.72 67.04L19.61 67.04C18.79 67.03 18.05 66.83 17.39 66.47C16.74 66.11 16.19 65.58 15.75 64.88C15.46 65.39 15.2 65.84 14.98 66.24C14.76 66.65 14.58 66.96 14.43 67.18C13.08 69.44 11.8 71.13 10.59 72.25C9.9 72.87 9.2 73.33 8.5 73.64C7.81 73.95 7.09 74.1 6.34 74.1C5.26 74.1 4.44 73.81 3.9 73.24C3.38 72.68 3.13 71.96 3.13 71.08C3.13 70.31 3.31 69.49 3.66 68.62C4.02 67.76 4.51 66.93 5.13 66.14C5.81 65.29 6.54 64.62 7.32 64.15C8.11 63.69 8.89 63.45 9.65 63.45C10.29 63.45 10.81 63.64 11.22 64.01C11.57 64.35 11.74 64.81 11.74 65.39C11.74 65.87 11.62 66.39 11.37 66.93C11.12 67.47 10.79 67.97 10.37 68.44C9.93 68.93 9.44 69.31 8.91 69.59C8.29 69.9 7.69 70.06 7.1 70.06C6.96 70.06 6.84 70.02 6.75 69.92C6.66 69.83 6.61 69.71 6.61 69.56C6.61 69.41 6.66 69.29 6.75 69.21C6.84 69.13 6.96 69.08 7.1 69.08C7.54 69.08 7.98 68.97 8.43 68.75C8.88 68.52 9.3 68.2 9.68 67.77C10.01 67.4 10.27 66.99 10.47 66.57C10.67 66.14 10.78 65.75 10.78 65.39C10.78 65.3 10.77 65.19 10.75 65.08C10.73 64.97 10.68 64.87 10.6 64.77C10.52 64.68 10.4 64.6 10.25 64.54C10.11 64.47 9.91 64.44 9.65 64.44C9.03 64.44 8.39 64.64 7.73 65.04C7.08 65.44 6.45 66.02 5.87 66.76C5.32 67.46 4.88 68.18 4.56 68.95C4.24 69.71 4.08 70.43 4.08 71.08C4.08 71.72 4.25 72.2 4.58 72.54C4.92 72.93 5.51 73.13 6.33 73.13C7.56 73.13 8.75 72.58 9.92 71.5C11.07 70.45 12.3 68.85 13.6 66.68C13.74 66.44 13.94 66.11 14.19 65.68C14.43 65.26 14.71 64.78 15.01 64.24C15.31 63.7 15.62 63.12 15.94 62.49C16.26 61.86 16.57 61.22 16.86 60.57C17.3 59.62 17.64 58.79 17.89 58.09C18.13 57.39 18.31 56.79 18.41 56.28C18.51 55.78 18.55 55.37 18.54 55.05C18.53 54.73 18.5 54.48 18.45 54.29C18.34 53.96 18.14 53.73 17.85 53.62C17.43 53.45 17.01 53.4 16.6 53.44C16.19 53.49 15.79 53.6 15.42 53.78C15.05 53.95 14.7 54.19 14.38 54.49C14.06 54.79 13.78 55.11 13.54 55.44C13.16 56.04 12.92 56.62 12.83 57.18C12.79 57.37 12.79 57.57 12.81 57.8C12.84 58.02 12.94 58.24 13.1 58.44C13.47 58.89 13.92 58.92 14.45 58.55C14.83 58.31 15.12 57.96 15.32 57.51C15.52 57.12 15.56 56.79 15.43 56.53C15.3 56.24 15.38 56.02 15.68 55.89C15.79 55.83 15.91 55.82 16.03 55.86C16.16 55.9 16.26 55.98 16.31 56.11C16.44 56.38 16.49 56.66 16.46 56.97C16.43 57.28 16.35 57.58 16.21 57.88C16.08 58.18 15.9 58.46 15.69 58.73C15.48 59 15.25 59.22 14.99 59.39C14.59 59.65 14.15 59.78 13.67 59.78C13.2 59.76 12.76 59.53 12.36 59.08C11.92 58.54 11.75 57.86 11.86 57.04C11.97 56.31 12.27 55.59 12.74 54.88C13.03 54.47 13.38 54.08 13.78 53.72C14.19 53.35 14.62 53.06 15.1 52.85C15.57 52.63 16.08 52.5 16.59 52.46C17.12 52.41 17.64 52.49 18.17 52.7C18.72 52.92 19.11 53.34 19.35 53.96C19.44 54.27 19.49 54.63 19.5 55.04C19.51 55.44 19.46 55.89 19.35 56.39C19.84 55.85 20.34 55.38 20.83 54.99C21.51 54.42 22.18 53.96 22.86 53.62C23.54 53.28 24.17 53.07 24.75 52.98C25.79 52.83 26.61 53.07 27.19 53.71C27.9 54.41 28.25 55.48 28.25 56.92ZM26.36 60.9C27.02 59.58 27.33 58.26 27.29 56.95C27.29 56.37 27.23 55.87 27.1 55.43C26.97 54.99 26.78 54.65 26.52 54.4C26.17 53.99 25.63 53.84 24.9 53.95C24.41 54.03 23.86 54.22 23.26 54.53C22.65 54.83 22.05 55.24 21.45 55.74C20.82 56.25 20.26 56.8 19.76 57.41C19.26 58.02 18.83 58.64 18.48 59.28C18.48 59.29 18.48 59.3 18.47 59.3C18.46 59.3 18.46 59.31 18.46 59.33C18.35 59.59 18.24 59.86 18.13 60.13C18.02 60.4 17.89 60.69 17.75 60.99C17.27 62.01 16.79 62.97 16.29 63.87C16.62 64.58 17.07 65.12 17.65 65.48C18.23 65.85 18.89 66.04 19.64 66.06C20.22 66.07 20.82 65.98 21.44 65.76C22.05 65.55 22.65 65.23 23.23 64.8C23.87 64.33 24.46 63.77 24.99 63.12C25.52 62.46 25.97 61.73 26.36 60.9Z" fill="#767676" fill-opacity="1.000000" fill-rule="nonzero"/>
		<path id="Vector" d="M34.01 68.69C34.1 68.78 34.15 68.89 34.16 69.03C34.17 69.16 34.13 69.27 34.04 69.36C34.02 69.4 33.82 69.62 33.44 70.03C33.05 70.44 32.54 70.9 31.9 71.41C30.13 72.77 28.52 73.45 27.07 73.45C26.31 73.45 25.73 73.31 25.33 73.03C24.94 72.75 24.65 72.46 24.47 72.16C24.12 71.55 24.02 70.78 24.17 69.85C24.31 68.93 24.71 67.9 25.35 66.78C26.24 65.16 27.22 63.83 28.27 62.81C29.32 61.78 30.31 61.18 31.25 61.01C31.96 60.9 32.55 61.04 33.03 61.44C33.39 61.75 33.59 62.18 33.63 62.73C33.65 63.29 33.47 63.91 33.11 64.59C32.74 65.27 32.21 65.97 31.52 66.68C30.75 67.48 29.94 68.07 29.08 68.44C28.36 68.76 27.68 68.92 27.02 68.92C26.69 68.92 26.4 68.89 26.14 68.84C25.89 68.78 25.68 68.71 25.51 68.64C25.42 68.88 25.34 69.11 25.28 69.32C25.22 69.54 25.16 69.75 25.13 69.95C25.02 70.7 25.08 71.27 25.32 71.66C25.61 72.21 26.2 72.48 27.07 72.48C27.82 72.48 28.57 72.28 29.31 71.9C30.05 71.52 30.72 71.09 31.31 70.63C31.9 70.16 32.39 69.73 32.76 69.34C33.14 68.95 33.33 68.74 33.33 68.72C33.42 68.63 33.53 68.58 33.65 68.57C33.78 68.56 33.9 68.6 34.01 68.69ZM26.17 67.26C26.13 67.35 26.09 67.44 26.03 67.51C25.98 67.59 25.93 67.67 25.89 67.77C26.04 67.8 26.21 67.84 26.4 67.88C26.59 67.92 26.82 67.93 27.07 67.93C28.33 67.92 29.59 67.27 30.86 66C31.44 65.4 31.89 64.82 32.21 64.25C32.53 63.68 32.69 63.19 32.67 62.78C32.63 62.54 32.55 62.34 32.42 62.19C32.16 61.96 31.83 61.9 31.41 61.99C31.04 62.05 30.65 62.21 30.23 62.48C29.81 62.75 29.38 63.11 28.94 63.54C27.95 64.51 27.03 65.75 26.17 67.26Z" fill="#767676" fill-opacity="1.000000" fill-rule="nonzero"/>
		<path id="Vector" d="M40.65 61.57C40.96 61.61 41.11 61.79 41.11 62.11C41.1 62.26 41.04 62.37 40.93 62.46C40.83 62.54 40.72 62.57 40.59 62.55C40.19 62.51 39.71 62.5 39.17 62.5C38.62 62.5 38.07 62.51 37.52 62.53C37.12 63.2 36.73 63.87 36.36 64.56C35.98 65.24 35.66 65.86 35.38 66.42C34.85 67.47 34.47 68.34 34.22 69.04C33.97 69.74 33.8 70.31 33.71 70.73C33.62 71.16 33.59 71.49 33.63 71.71C33.67 71.94 33.71 72.09 33.77 72.16C33.79 72.2 33.83 72.25 33.9 72.32C33.98 72.38 34.13 72.42 34.37 72.42C34.68 72.42 35.06 72.31 35.51 72.09C35.96 71.88 36.45 71.58 36.98 71.18C37.42 70.85 37.86 70.47 38.31 70.05C38.75 69.63 39.14 69.21 39.47 68.8C39.56 68.71 39.67 68.66 39.8 68.63C39.93 68.62 40.05 68.65 40.15 68.75C40.25 68.84 40.3 68.95 40.32 69.08C40.34 69.21 40.3 69.33 40.21 69.44C39.85 69.87 39.43 70.31 38.97 70.75C38.5 71.19 38.02 71.59 37.53 71.97C36.28 72.92 35.23 73.4 34.37 73.4C33.95 73.4 33.63 73.32 33.42 73.16C33.2 73 33.04 72.83 32.95 72.67C32.6 72.1 32.59 71.21 32.92 69.97C33.2 68.93 33.73 67.59 34.54 65.97C34.8 65.46 35.08 64.92 35.39 64.33C35.7 63.74 36.04 63.14 36.41 62.52C36.15 62.54 35.92 62.55 35.71 62.56C35.5 62.57 35.32 62.58 35.17 62.58C34.99 62.59 34.82 62.6 34.68 62.6L34.65 62.6C34.36 62.6 34.19 62.45 34.15 62.13C34.15 61.98 34.2 61.86 34.28 61.76C34.36 61.67 34.47 61.62 34.62 61.62C34.66 61.62 34.9 61.61 35.35 61.59C35.79 61.58 36.34 61.56 36.98 61.54C37.31 60.98 37.62 60.45 37.92 59.94C38.22 59.44 38.49 58.99 38.72 58.59C38.95 58.2 39.21 57.78 39.5 57.3C39.58 57.19 39.67 57.12 39.8 57.08C39.93 57.04 40.05 57.06 40.16 57.13C40.43 57.32 40.49 57.56 40.32 57.84C40.07 58.23 39.84 58.59 39.64 58.93C39.44 59.27 39.21 59.65 38.94 60.09C38.68 60.53 38.39 61 38.1 61.51C38.58 61.51 39.04 61.51 39.49 61.51C39.93 61.52 40.32 61.54 40.65 61.57Z" fill="#767676" fill-opacity="1.000000" fill-rule="nonzero"/>
		<path id="Vector" d="M48.98 68.75C49.07 68.84 49.13 68.95 49.15 69.08C49.16 69.22 49.13 69.34 49.04 69.45C49 69.49 48.96 69.53 48.9 69.59C48.85 69.64 48.8 69.7 48.77 69.76C47.93 70.8 47.16 71.67 46.47 72.36C45.77 73.05 45.13 73.4 44.55 73.4C44.03 73.4 43.66 73.19 43.42 72.78C43.18 72.33 43.18 71.68 43.42 70.82C43.66 69.98 44.17 68.86 44.96 67.46C45.1 67.2 45.11 66.77 44.99 66.19C44.86 65.6 44.6 64.9 44.22 64.1C43.72 64.81 43.15 65.6 42.5 66.48C41.85 67.36 41.1 68.34 40.24 69.42C40.15 69.53 40.04 69.6 39.91 69.62C39.78 69.63 39.68 69.6 39.58 69.51C39.48 69.41 39.41 69.3 39.39 69.17C39.37 69.04 39.41 68.92 39.5 68.81C41.33 66.47 42.73 64.59 43.7 63.15C43.53 62.8 43.49 62.37 43.56 61.87C43.63 61.38 43.72 60.98 43.81 60.66C43.84 60.56 43.9 60.42 43.96 60.22C44.02 60.02 44.11 59.82 44.22 59.59C44.33 59.37 44.45 59.14 44.59 58.92C44.73 58.7 44.89 58.51 45.07 58.36C45.27 58.19 45.48 58.1 45.7 58.09C45.92 58.08 46.12 58.16 46.3 58.33C46.69 58.67 46.77 59.22 46.55 59.99C46.35 60.58 45.97 61.34 45.43 62.26C45.33 62.4 45.24 62.56 45.14 62.72C45.04 62.88 44.93 63.04 44.82 63.21C46.01 65.43 46.33 67.02 45.78 67.97C45.31 68.81 44.96 69.51 44.73 70.05C44.49 70.59 44.35 71.02 44.27 71.35C44.2 71.68 44.17 71.91 44.19 72.05C44.21 72.19 44.23 72.28 44.24 72.32C44.26 72.33 44.29 72.36 44.33 72.38C44.36 72.41 44.43 72.43 44.55 72.43C44.64 72.43 44.8 72.36 45.04 72.24C45.28 72.12 45.62 71.84 46.06 71.39C46.4 71.07 46.74 70.71 47.07 70.31C47.4 69.91 47.72 69.52 48.03 69.15C48.07 69.09 48.11 69.04 48.17 68.98C48.22 68.92 48.27 68.87 48.3 68.81C48.39 68.71 48.5 68.66 48.63 68.64C48.75 68.62 48.87 68.66 48.98 68.75ZM44.54 61.85C44.56 61.82 44.57 61.8 44.58 61.78C44.59 61.77 44.6 61.75 44.62 61.72C44.91 61.23 45.13 60.83 45.28 60.51C45.42 60.19 45.53 59.93 45.61 59.73C45.68 59.52 45.71 59.37 45.71 59.28C45.71 59.18 45.7 59.12 45.69 59.08C45.61 59.13 45.51 59.26 45.37 59.44C45.23 59.63 45.09 59.91 44.95 60.28C44.84 60.56 44.75 60.84 44.68 61.11C44.63 61.38 44.58 61.63 44.54 61.85Z" fill="#767676" fill-opacity="1.000000" fill-rule="nonzero"/>
		<path id="Vector" d="M56.33 68.89C56.1 69.32 55.8 69.79 55.43 70.32C55.06 70.84 54.64 71.34 54.17 71.81C53.69 72.29 53.16 72.69 52.59 73C52.01 73.32 51.4 73.48 50.74 73.48C50.08 73.48 49.57 73.35 49.21 73.09C48.86 72.83 48.6 72.56 48.43 72.28C48.03 71.59 47.93 70.69 48.13 69.59C48.33 68.54 48.76 67.42 49.42 66.22C49.68 65.77 50.02 65.24 50.46 64.63C50.9 64.01 51.41 63.41 52 62.83C52.22 62.61 52.47 62.38 52.75 62.15C53.04 61.92 53.33 61.71 53.63 61.52C53.93 61.33 54.24 61.18 54.56 61.05C54.88 60.93 55.2 60.87 55.51 60.87C55.65 60.87 55.77 60.92 55.86 61.01C55.95 61.11 56 61.23 56 61.38C56 61.53 55.95 61.64 55.86 61.73C55.77 61.81 55.65 61.85 55.51 61.85C55.14 61.85 54.71 62 54.22 62.29C53.72 62.58 53.21 62.99 52.68 63.53C52.13 64.08 51.65 64.64 51.23 65.21C50.81 65.79 50.48 66.29 50.24 66.7C49.64 67.78 49.25 68.8 49.09 69.75C48.92 70.59 48.99 71.26 49.28 71.77C49.52 72.26 50 72.5 50.73 72.5C51.12 72.5 51.48 72.42 51.83 72.26C52.18 72.1 52.51 71.9 52.83 71.66C53.15 71.42 53.45 71.15 53.72 70.85C54 70.55 54.24 70.26 54.46 69.98C54.61 69.79 54.74 69.61 54.85 69.43C54.96 69.25 55.07 69.08 55.18 68.91C54.79 68.87 54.48 68.78 54.26 68.63C54.03 68.48 53.85 68.33 53.72 68.18C53.34 67.73 53.15 67.15 53.15 66.44C53.15 66.02 53.21 65.58 53.34 65.13C53.47 64.68 53.66 64.27 53.92 63.9C54.52 63 55.21 62.55 55.97 62.55C56.56 62.55 57 62.8 57.32 63.31C57.61 63.77 57.73 64.38 57.68 65.13C57.64 65.87 57.4 66.71 56.96 67.65C56.81 67.95 56.69 68.18 56.6 68.36C56.52 68.55 56.42 68.72 56.33 68.89ZM55.98 63.54C55.76 63.54 55.54 63.62 55.32 63.79C55.1 63.96 54.9 64.18 54.72 64.46C54.54 64.74 54.39 65.05 54.28 65.4C54.17 65.74 54.11 66.09 54.11 66.45C54.11 66.6 54.13 66.78 54.17 66.98C54.2 67.19 54.29 67.37 54.44 67.54C54.68 67.82 55.06 67.96 55.59 67.96L55.73 67.96C55.82 67.78 55.9 67.63 55.95 67.53C56.01 67.42 56.04 67.37 56.06 67.34C56.32 66.77 56.49 66.27 56.58 65.86C56.67 65.45 56.72 65.1 56.72 64.82C56.72 64.54 56.69 64.32 56.65 64.16C56.6 64.01 56.56 63.9 56.53 63.84C56.38 63.64 56.2 63.54 55.98 63.54Z" fill="#767676" fill-opacity="1.000000" fill-rule="nonzero"/>
		<path id="Vector" d="M59.41 74.91C58.87 74.91 58.47 74.8 58.2 74.58C57.93 74.35 57.72 74.13 57.57 73.9C57.15 73.16 57.12 72.06 57.49 70.62C57.65 69.95 57.91 69.22 58.26 68.42C58.61 67.63 59.03 66.8 59.52 65.94C59.76 65.53 60.05 65.03 60.38 64.45C60.72 63.86 61.07 63.24 61.44 62.61C61.81 61.98 62.17 61.34 62.54 60.72C62.9 60.09 63.23 59.53 63.51 59.02C63.79 58.52 64.03 58.11 64.21 57.8C64.39 57.5 64.48 57.33 64.48 57.31C64.65 57.05 64.87 56.99 65.14 57.14C65.4 57.31 65.45 57.53 65.31 57.81C65.31 57.83 65.22 58 65.03 58.3C64.85 58.61 64.62 59.01 64.33 59.51C64.05 60 63.72 60.57 63.36 61.2C62.99 61.84 62.63 62.47 62.26 63.11C61.9 63.75 61.55 64.36 61.21 64.95C60.87 65.54 60.58 66.04 60.34 66.44C59.87 67.27 59.47 68.05 59.14 68.8C58.81 69.54 58.56 70.24 58.4 70.87C58.11 72.03 58.11 72.88 58.42 73.42C58.61 73.76 58.93 73.92 59.41 73.92C59.76 73.92 60.08 73.81 60.38 73.59C60.69 73.36 60.96 73.09 61.19 72.78C61.43 72.46 61.64 72.13 61.81 71.8C61.98 71.46 62.12 71.18 62.24 70.96L62.29 70.9C62.42 70.62 62.63 70.54 62.92 70.68C63.05 70.73 63.13 70.82 63.17 70.96C63.2 71.09 63.19 71.21 63.14 71.32L63.11 71.4C62.98 71.67 62.81 71.99 62.59 72.38C62.37 72.77 62.11 73.16 61.81 73.53C61.51 73.9 61.16 74.23 60.75 74.5C60.35 74.78 59.9 74.91 59.41 74.91Z" fill="#767676" fill-opacity="1.000000" fill-rule="nonzero"/>
		<path id="Vector" d="M75.45 61.66C74.79 62.73 74.21 63.77 73.71 64.81C73.21 65.85 72.81 66.84 72.52 67.8C72.23 68.75 72.06 69.59 72.02 70.32C71.99 71.05 72.09 71.63 72.32 72.06C72.62 72.63 73.18 72.93 74.02 72.93C75.25 72.93 76.69 71.91 78.33 69.9C79.05 69 79.7 68.08 80.31 67.12C80.91 66.17 81.42 65.34 81.84 64.63C81.95 64.44 82.05 64.27 82.14 64.11C82.24 63.95 82.33 63.81 82.42 63.67C82.42 63.66 82.42 63.65 82.43 63.65C82.44 63.65 82.45 63.64 82.45 63.62C82.79 62.98 83.13 62.37 83.45 61.78C83.77 61.19 84.07 60.66 84.37 60.17C84.42 60.04 84.51 59.96 84.64 59.92C84.77 59.88 84.9 59.9 85.02 59.97C85.13 60.05 85.21 60.15 85.24 60.28C85.28 60.41 85.26 60.53 85.19 60.64C84.79 61.34 84.36 62.1 83.91 62.94C83.47 63.78 83.01 64.64 82.54 65.52C82.07 66.4 81.61 67.28 81.16 68.15C80.7 69.03 80.27 69.85 79.88 70.62C79.49 71.38 79.14 72.07 78.84 72.68C78.53 73.29 78.3 73.75 78.14 74.06C78.33 73.95 78.54 73.84 78.75 73.71C78.96 73.59 79.18 73.46 79.39 73.31C80.09 72.86 80.86 72.28 81.7 71.57C82.54 70.86 83.38 69.94 84.22 68.8C84.31 68.69 84.42 68.62 84.55 68.6C84.68 68.58 84.8 68.61 84.9 68.68C85 68.78 85.06 68.89 85.08 69.02C85.11 69.15 85.08 69.27 84.99 69.38C84.09 70.58 83.2 71.54 82.31 72.28C81.43 73.02 80.63 73.63 79.91 74.12C79.44 74.44 78.99 74.71 78.56 74.95C78.12 75.18 77.72 75.37 77.34 75.52C76.75 76.47 76.15 77.25 75.52 77.84C74.65 78.69 73.87 79.11 73.19 79.14L73.11 79.14C72.58 79.14 72.2 78.93 71.96 78.52C71.78 78.24 71.74 77.9 71.85 77.51C71.96 77.14 72.2 76.78 72.55 76.44C72.91 76.11 73.34 75.85 73.86 75.66C73.97 75.62 74.1 75.58 74.24 75.53C74.39 75.49 74.54 75.44 74.71 75.38C74.97 75.3 75.26 75.22 75.59 75.11C75.91 75.01 76.28 74.88 76.68 74.73C76.74 74.64 76.8 74.54 76.86 74.43C76.93 74.32 76.98 74.2 77.04 74.09C77.08 74.05 77.23 73.76 77.51 73.21C77.78 72.66 78.13 71.96 78.55 71.12C77.93 71.83 77.31 72.42 76.69 72.89C75.75 73.56 74.87 73.9 74.02 73.9C73.27 73.9 72.7 73.75 72.31 73.45C71.92 73.15 71.64 72.84 71.47 72.52C70.87 71.4 70.91 69.73 71.58 67.51C71.89 66.52 72.31 65.48 72.83 64.38C73.35 63.29 73.96 62.2 74.65 61.12C75.09 60.43 75.64 59.69 76.3 58.9C76.15 58.72 76.03 58.53 75.92 58.34C75.44 57.41 75.33 56.27 75.59 54.92C75.7 54.33 75.88 53.72 76.14 53.1C76.39 52.49 76.7 51.91 77.07 51.37C77.27 51.11 77.5 51.06 77.75 51.23C77.86 51.32 77.93 51.43 77.96 51.56C77.99 51.69 77.96 51.81 77.86 51.93C77.54 52.41 77.25 52.93 77.01 53.48C76.78 54.03 76.61 54.58 76.52 55.12C76.43 55.67 76.4 56.17 76.44 56.63C76.48 57.1 76.59 57.52 76.79 57.89C76.81 57.93 76.83 57.98 76.86 58.04C76.89 58.09 76.92 58.14 76.96 58.18C77.8 57.26 78.68 56.41 79.62 55.63C79.91 55.38 80.27 55.11 80.69 54.8C81.11 54.49 81.55 54.2 82.02 53.92C82.49 53.64 82.96 53.41 83.43 53.22C83.91 53.03 84.36 52.93 84.78 52.91C85.2 52.87 85.52 52.93 85.76 53.08C86 53.23 86.17 53.38 86.29 53.53C86.49 53.79 86.58 54.12 86.56 54.51C86.54 54.9 86.42 55.34 86.2 55.83C85.95 56.35 85.6 56.87 85.16 57.38C84.72 57.9 84.22 58.36 83.65 58.77C83.18 59.11 82.58 59.44 81.87 59.76C81.16 60.09 80.34 60.26 79.41 60.26C78.6 60.26 77.88 60.08 77.24 59.72C77.2 59.71 77.16 59.69 77.13 59.67C77.09 59.65 77.06 59.62 77.02 59.58C76.43 60.26 75.91 60.95 75.45 61.66ZM74.87 77.15C75.2 76.82 75.5 76.47 75.78 76.11C75.63 76.15 75.49 76.19 75.35 76.23C75.21 76.26 75.08 76.3 74.96 76.34C74.81 76.37 74.67 76.41 74.53 76.45C74.39 76.49 74.28 76.52 74.19 76.56C73.78 76.73 73.46 76.93 73.21 77.16C72.96 77.39 72.82 77.6 72.76 77.79C72.74 77.9 72.74 77.97 72.76 77.99C72.8 78.02 72.84 78.07 72.89 78.11C72.95 78.16 73.03 78.17 73.14 78.15C73.6 78.12 74.18 77.79 74.87 77.15ZM80.22 56.42C79.31 57.15 78.46 57.96 77.67 58.86C78.11 59.14 78.69 59.28 79.4 59.28C80.09 59.28 80.76 59.15 81.39 58.9C82.02 58.65 82.59 58.33 83.11 57.95C83.63 57.56 84.08 57.15 84.46 56.69C84.83 56.23 85.12 55.8 85.32 55.38C85.49 55.07 85.58 54.8 85.6 54.59C85.61 54.37 85.6 54.23 85.54 54.15C85.5 54.11 85.44 54.06 85.35 53.98C85.26 53.9 85.08 53.88 84.83 53.9C84.29 53.91 83.63 54.15 82.83 54.58C82.02 55.02 81.16 55.63 80.22 56.42Z" fill="#767676" fill-opacity="1.000000" fill-rule="nonzero"/>
		<path id="Vector" d="M96.02 68.75C96.11 68.84 96.16 68.95 96.18 69.08C96.2 69.22 96.17 69.34 96.08 69.45C96.04 69.49 96 69.53 95.95 69.59C95.91 69.64 95.86 69.7 95.8 69.76C94.96 70.8 94.19 71.67 93.5 72.36C92.8 73.05 92.16 73.4 91.58 73.4C91.16 73.4 90.84 73.32 90.63 73.16C90.42 73 90.27 72.84 90.18 72.67C89.98 72.3 89.91 71.84 89.96 71.3C88.7 72.79 87.48 73.54 86.31 73.54C85.67 73.54 85.19 73.41 84.86 73.15C84.53 72.88 84.29 72.62 84.15 72.36C83.76 71.65 83.7 70.76 83.95 69.7C84.06 69.18 84.24 68.64 84.47 68.09C84.71 67.54 85.01 66.98 85.35 66.42C86.34 64.85 87.45 63.61 88.7 62.7C89.25 62.3 89.78 62 90.29 61.79C90.8 61.57 91.27 61.46 91.69 61.46C92.16 61.46 92.53 61.55 92.8 61.72C93.06 61.89 93.26 62.06 93.39 62.25C93.59 62.51 93.72 62.82 93.77 63.17C93.91 62.95 94.03 62.75 94.12 62.58C94.22 62.41 94.31 62.27 94.4 62.13C94.47 61.99 94.55 61.85 94.65 61.74C94.72 61.63 94.82 61.56 94.95 61.53C95.08 61.5 95.19 61.53 95.3 61.6C95.41 61.68 95.49 61.78 95.52 61.91C95.56 62.04 95.53 62.16 95.44 62.27C95.44 62.29 95.2 62.68 94.73 63.44C94.25 64.19 93.66 65.2 92.95 66.45C92.47 67.29 92.09 68.03 91.79 68.68C91.5 69.32 91.29 69.88 91.15 70.36C91.01 70.84 90.93 71.22 90.92 71.52C90.9 71.82 90.93 72.04 91.03 72.16C91.04 72.2 91.08 72.25 91.15 72.32C91.21 72.39 91.35 72.42 91.57 72.42C91.67 72.42 91.83 72.35 92.07 72.23C92.31 72.11 92.66 71.83 93.11 71.38C93.44 71.06 93.77 70.7 94.1 70.3C94.43 69.9 94.75 69.51 95.06 69.14C95.11 69.08 95.16 69.03 95.21 68.97C95.26 68.91 95.3 68.86 95.33 68.8C95.42 68.7 95.53 68.65 95.66 68.63C95.79 68.62 95.91 68.66 96.02 68.75ZM89.41 70.46C89.87 69.9 90.23 69.39 90.51 68.93C90.78 68.48 90.93 68.24 90.95 68.22C90.95 68.2 90.95 68.19 90.96 68.19C90.97 68.19 90.98 68.18 90.98 68.16C91.25 67.53 91.63 66.79 92.13 65.95C92.22 65.78 92.31 65.61 92.41 65.44C92.52 65.27 92.61 65.12 92.7 64.96L92.7 64.91C92.72 64.82 92.75 64.68 92.78 64.5C92.82 64.33 92.84 64.14 92.85 63.94C92.86 63.75 92.85 63.55 92.82 63.36C92.8 63.16 92.73 62.99 92.62 62.84C92.42 62.57 92.11 62.45 91.69 62.45C91.43 62.45 91.09 62.53 90.67 62.68C90.25 62.84 89.79 63.1 89.3 63.47C88.8 63.83 88.28 64.3 87.73 64.87C87.19 65.44 86.65 66.14 86.14 66.96C85.5 67.98 85.08 68.96 84.88 69.9C84.71 70.78 84.75 71.44 84.99 71.89C85.21 72.34 85.65 72.56 86.31 72.56C87.22 72.56 88.26 71.86 89.41 70.46Z" fill="#767676" fill-opacity="1.000000" fill-rule="nonzero"/>
		<path id="Vector" d="M104.82 68.75C104.91 68.84 104.97 68.95 104.99 69.08C105 69.22 104.97 69.34 104.88 69.45C104.84 69.49 104.8 69.53 104.74 69.59C104.69 69.64 104.64 69.7 104.6 69.76C103.77 70.8 103 71.67 102.3 72.36C101.61 73.05 100.97 73.4 100.38 73.4C99.87 73.4 99.49 73.19 99.26 72.78C99.02 72.33 99.02 71.68 99.26 70.82C99.49 69.98 100.01 68.86 100.8 67.46C100.94 67.2 100.95 66.77 100.82 66.19C100.69 65.6 100.44 64.9 100.05 64.1C99.56 64.81 98.99 65.6 98.34 66.48C97.69 67.36 96.94 68.34 96.08 69.42C95.99 69.53 95.88 69.6 95.75 69.62C95.62 69.63 95.51 69.6 95.42 69.51C95.31 69.41 95.25 69.3 95.23 69.17C95.21 69.04 95.24 68.92 95.34 68.81C97.16 66.47 98.56 64.59 99.53 63.15C99.37 62.8 99.32 62.37 99.39 61.87C99.47 61.38 99.55 60.98 99.64 60.66C99.68 60.56 99.73 60.42 99.79 60.22C99.86 60.02 99.95 59.82 100.05 59.59C100.16 59.37 100.29 59.14 100.42 58.92C100.56 58.7 100.72 58.51 100.9 58.36C101.1 58.19 101.32 58.1 101.53 58.09C101.75 58.08 101.95 58.16 102.14 58.33C102.52 58.67 102.6 59.22 102.38 59.99C102.18 60.58 101.81 61.34 101.26 62.26C101.17 62.4 101.07 62.56 100.97 62.72C100.87 62.88 100.76 63.04 100.66 63.21C101.85 65.43 102.16 67.02 101.61 67.97C101.14 68.81 100.79 69.51 100.56 70.05C100.33 70.59 100.18 71.02 100.1 71.35C100.03 71.68 100 71.91 100.02 72.05C100.04 72.19 100.06 72.28 100.08 72.32C100.09 72.33 100.12 72.36 100.16 72.38C100.2 72.41 100.27 72.43 100.38 72.43C100.47 72.43 100.64 72.36 100.87 72.24C101.11 72.12 101.45 71.84 101.89 71.39C102.23 71.07 102.57 70.71 102.9 70.31C103.23 69.91 103.56 69.52 103.86 69.15C103.9 69.09 103.94 69.04 104 68.98C104.06 68.92 104.1 68.87 104.14 68.81C104.23 68.71 104.34 68.66 104.47 68.64C104.59 68.62 104.71 68.66 104.82 68.75ZM100.38 61.85C100.4 61.82 100.41 61.8 100.42 61.78C100.43 61.77 100.44 61.75 100.46 61.72C100.75 61.23 100.97 60.83 101.12 60.51C101.26 60.19 101.37 59.93 101.45 59.73C101.52 59.52 101.55 59.37 101.55 59.28C101.55 59.18 101.54 59.12 101.53 59.08C101.45 59.13 101.35 59.26 101.21 59.44C101.07 59.63 100.93 59.91 100.79 60.28C100.68 60.56 100.59 60.84 100.52 61.11C100.47 61.38 100.42 61.63 100.38 61.85Z" fill="#767676" fill-opacity="1.000000" fill-rule="nonzero"/>
		<path id="Vector" d="M115.93 68.75C116.02 68.84 116.07 68.95 116.09 69.08C116.11 69.22 116.08 69.34 115.99 69.45C115.95 69.49 115.91 69.53 115.86 69.59C115.82 69.64 115.77 69.7 115.71 69.76C114.87 70.8 114.1 71.67 113.41 72.36C112.71 73.05 112.07 73.4 111.49 73.4C111.07 73.4 110.75 73.32 110.54 73.16C110.33 73 110.18 72.84 110.09 72.67C109.89 72.3 109.82 71.84 109.87 71.3C108.61 72.79 107.39 73.54 106.22 73.54C105.58 73.54 105.1 73.41 104.77 73.15C104.44 72.88 104.2 72.62 104.06 72.36C103.67 71.65 103.61 70.76 103.86 69.7C103.97 69.18 104.15 68.64 104.38 68.09C104.62 67.54 104.92 66.98 105.26 66.42C106.25 64.85 107.36 63.61 108.61 62.7C109.16 62.3 109.69 62 110.2 61.79C110.71 61.57 111.18 61.46 111.6 61.46C112.07 61.46 112.44 61.55 112.71 61.72C112.97 61.89 113.17 62.06 113.3 62.25C113.5 62.51 113.63 62.82 113.68 63.17C113.82 62.95 113.94 62.75 114.03 62.58C114.13 62.41 114.22 62.27 114.31 62.13C114.38 61.99 114.46 61.85 114.56 61.74C114.63 61.63 114.73 61.56 114.86 61.53C114.99 61.5 115.1 61.53 115.21 61.6C115.32 61.68 115.4 61.78 115.43 61.91C115.47 62.04 115.44 62.16 115.35 62.27C115.35 62.29 115.12 62.68 114.64 63.44C114.16 64.19 113.57 65.2 112.86 66.45C112.38 67.29 112 68.03 111.71 68.68C111.41 69.32 111.2 69.88 111.06 70.36C110.93 70.84 110.85 71.22 110.83 71.52C110.81 71.82 110.85 72.04 110.94 72.16C110.95 72.2 110.99 72.25 111.06 72.32C111.12 72.39 111.27 72.42 111.49 72.42C111.58 72.42 111.74 72.35 111.98 72.23C112.22 72.11 112.57 71.83 113.02 71.38C113.35 71.06 113.68 70.7 114.01 70.3C114.34 69.9 114.66 69.51 114.97 69.14C115.02 69.08 115.07 69.03 115.12 68.97C115.17 68.91 115.21 68.86 115.24 68.8C115.34 68.7 115.44 68.65 115.57 68.63C115.7 68.62 115.82 68.66 115.93 68.75ZM109.32 70.46C109.78 69.9 110.14 69.39 110.42 68.93C110.69 68.48 110.83 68.24 110.86 68.22C110.86 68.2 110.86 68.19 110.87 68.19C110.88 68.19 110.88 68.18 110.88 68.16C111.16 67.53 111.54 66.79 112.03 65.95C112.13 65.78 112.22 65.61 112.32 65.44C112.42 65.27 112.52 65.12 112.61 64.96L112.61 64.91C112.63 64.82 112.65 64.68 112.69 64.5C112.73 64.33 112.75 64.14 112.76 63.94C112.77 63.75 112.76 63.55 112.73 63.36C112.7 63.16 112.64 62.99 112.52 62.84C112.32 62.57 112.01 62.45 111.59 62.45C111.34 62.45 111 62.53 110.58 62.68C110.16 62.84 109.7 63.1 109.21 63.47C108.71 63.83 108.19 64.3 107.64 64.87C107.09 65.44 106.56 66.14 106.05 66.96C105.41 67.98 104.99 68.96 104.79 69.9C104.62 70.78 104.66 71.44 104.9 71.89C105.12 72.34 105.55 72.56 106.21 72.56C107.13 72.56 108.17 71.86 109.32 70.46Z" fill="#767676" fill-opacity="1.000000" fill-rule="nonzero"/>
		<path id="Vector" d="M127.28 68.75C127.39 68.84 127.45 68.95 127.47 69.08C127.49 69.22 127.46 69.34 127.37 69.45C127.33 69.49 127.3 69.52 127.27 69.56C127.24 69.6 127.21 69.63 127.18 69.67C126.99 69.89 126.76 70.17 126.47 70.51C126.19 70.85 125.86 71.19 125.49 71.56C125.11 71.92 124.7 72.28 124.27 72.64C123.83 73 123.35 73.29 122.84 73.54C122.49 73.71 122.14 73.86 121.77 73.99C121.41 74.12 121.04 74.25 120.67 74.38C120.18 75.27 119.64 76.05 119.06 76.7C118.22 77.64 117.43 78.15 116.7 78.24C116.66 78.24 116.62 78.25 116.59 78.26C116.55 78.27 116.51 78.27 116.48 78.27C116 78.27 115.63 78.08 115.35 77.71C115.13 77.47 115.07 77.12 115.16 76.67C115.25 76.26 115.47 75.87 115.82 75.51C116.17 75.15 116.6 74.83 117.14 74.57C117.48 74.42 117.86 74.28 118.26 74.15C118.66 74.02 119.07 73.88 119.49 73.73C119.58 73.69 119.67 73.66 119.75 73.65C119.83 73.63 119.92 73.6 120.01 73.56C120.09 73.42 120.16 73.27 120.22 73.11C120.28 72.97 120.35 72.82 120.43 72.67C120.44 72.63 120.49 72.51 120.56 72.32C120.64 72.12 120.75 71.85 120.89 71.52C119.57 72.86 118.39 73.53 117.33 73.53C116.69 73.53 116.2 73.4 115.87 73.14C115.54 72.88 115.31 72.62 115.16 72.36C114.78 71.65 114.71 70.76 114.96 69.7C115.07 69.17 115.25 68.64 115.49 68.08C115.72 67.53 116.02 66.98 116.36 66.42C117.35 64.85 118.47 63.6 119.71 62.69C120.26 62.3 120.79 62 121.3 61.78C121.81 61.57 122.28 61.46 122.7 61.46C123.17 61.46 123.55 61.54 123.81 61.71C124.07 61.88 124.27 62.06 124.4 62.24C124.51 62.38 124.61 62.55 124.7 62.78C124.79 62.57 124.88 62.38 124.97 62.19C125.07 62 125.16 61.81 125.25 61.6C125.39 61.32 125.61 61.25 125.91 61.38C126.01 61.43 126.09 61.53 126.14 61.66C126.18 61.79 126.18 61.91 126.13 62.02C125.87 62.56 125.62 63.1 125.37 63.63C125.12 64.16 124.87 64.7 124.62 65.24L124.59 65.3C124.13 66.33 123.7 67.3 123.3 68.23C122.9 69.15 122.55 69.97 122.26 70.69C121.96 71.41 121.73 71.98 121.55 72.4C121.38 72.82 121.29 73.04 121.29 73.06C121.29 73.1 121.28 73.11 121.27 73.11C121.47 73.04 121.66 72.97 121.84 72.89C122.03 72.81 122.21 72.73 122.39 72.64C122.85 72.41 123.28 72.14 123.69 71.82C124.1 71.51 124.48 71.17 124.83 70.83C125.18 70.48 125.49 70.15 125.75 69.84C126.01 69.52 126.24 69.25 126.42 69.02C126.46 68.98 126.49 68.95 126.52 68.91C126.54 68.87 126.57 68.84 126.61 68.8C126.7 68.71 126.81 68.65 126.94 68.63C127.08 68.62 127.19 68.66 127.28 68.75ZM120.62 70.4C121.07 69.88 121.46 69.4 121.77 68.96C122.08 68.52 122.25 68.25 122.29 68.16C122.51 67.65 122.74 67.13 122.99 66.57C123.24 66.02 123.49 65.46 123.75 64.88C123.76 64.77 123.79 64.62 123.83 64.46C123.86 64.29 123.88 64.11 123.88 63.91C123.88 63.72 123.87 63.52 123.84 63.32C123.81 63.13 123.75 62.96 123.63 62.83C123.43 62.57 123.12 62.44 122.7 62.44C122.45 62.44 122.11 62.52 121.69 62.68C121.27 62.84 120.81 63.1 120.32 63.47C119.82 63.83 119.3 64.3 118.75 64.87C118.2 65.44 117.67 66.13 117.16 66.95C116.52 67.98 116.1 68.96 115.9 69.89C115.73 70.77 115.77 71.43 116 71.88C116.22 72.33 116.66 72.55 117.32 72.55C117.78 72.55 118.28 72.37 118.83 72.01C119.38 71.65 119.98 71.11 120.62 70.4ZM118.34 76.03C118.51 75.86 118.67 75.67 118.82 75.47C118.98 75.27 119.13 75.05 119.28 74.83C118.62 75.03 118.04 75.25 117.55 75.47C117.11 75.67 116.77 75.91 116.52 76.19C116.27 76.46 116.13 76.7 116.09 76.9C116.08 77.01 116.08 77.08 116.09 77.1C116.13 77.16 116.18 77.21 116.26 77.26C116.33 77.3 116.44 77.31 116.59 77.27C117.1 77.21 117.68 76.8 118.34 76.03Z" fill="#767676" fill-opacity="1.000000" fill-rule="nonzero"/>
		<path id="Vector" d="M136.22 68.69C136.31 68.78 136.37 68.89 136.38 69.03C136.39 69.16 136.35 69.27 136.25 69.36C136.24 69.4 136.03 69.62 135.65 70.03C135.27 70.44 134.75 70.9 134.11 71.41C132.34 72.77 130.73 73.45 129.29 73.45C128.52 73.45 127.94 73.31 127.55 73.03C127.16 72.75 126.87 72.46 126.68 72.16C126.34 71.55 126.24 70.78 126.38 69.85C126.53 68.93 126.92 67.9 127.56 66.78C128.46 65.16 129.43 63.83 130.48 62.81C131.53 61.78 132.53 61.18 133.46 61.01C134.17 60.9 134.77 61.04 135.24 61.44C135.61 61.75 135.81 62.18 135.84 62.73C135.86 63.29 135.69 63.91 135.32 64.59C134.96 65.27 134.42 65.97 133.73 66.68C132.96 67.48 132.15 68.07 131.29 68.44C130.58 68.76 129.89 68.92 129.23 68.92C128.91 68.92 128.61 68.89 128.36 68.84C128.1 68.78 127.89 68.71 127.73 68.64C127.64 68.88 127.56 69.11 127.49 69.32C127.43 69.54 127.38 69.75 127.34 69.95C127.23 70.7 127.29 71.27 127.53 71.66C127.83 72.21 128.41 72.48 129.29 72.48C130.04 72.48 130.78 72.28 131.52 71.9C132.27 71.52 132.93 71.09 133.52 70.63C134.12 70.16 134.6 69.73 134.98 69.34C135.35 68.95 135.54 68.74 135.54 68.72C135.63 68.63 135.74 68.58 135.87 68.57C135.99 68.56 136.11 68.6 136.22 68.69ZM128.38 67.26C128.34 67.35 128.3 67.44 128.24 67.51C128.19 67.59 128.14 67.67 128.1 67.77C128.25 67.8 128.42 67.84 128.61 67.88C128.8 67.92 129.03 67.93 129.28 67.93C130.54 67.92 131.8 67.27 133.07 66C133.65 65.4 134.1 64.82 134.42 64.25C134.74 63.68 134.9 63.19 134.88 62.78C134.84 62.54 134.76 62.34 134.63 62.19C134.37 61.96 134.04 61.9 133.62 61.99C133.25 62.05 132.86 62.21 132.44 62.48C132.02 62.75 131.59 63.11 131.15 63.54C130.16 64.51 129.24 65.75 128.38 67.26Z" fill="#767676" fill-opacity="1.000000" fill-rule="nonzero"/>
		<path id="Vector" d="M46.32 93.21C46.26 93.21 46.2 93.18 46.15 93.13C46.09 93.04 46.1 92.9 46.2 92.83C47.53 91.81 48.92 90.68 50.45 89.36C50.54 89.29 50.67 89.3 50.74 89.39C50.81 89.48 50.8 89.61 50.71 89.69C49.18 91 47.78 92.14 46.44 93.17C46.4 93.2 46.36 93.21 46.32 93.21Z" fill="#767676" fill-opacity="1.000000" fill-rule="nonzero"/>
		<path id="Vector" d="M42.74 96.12C42.68 96.12 42.63 96.09 42.59 96.04C42.51 95.95 42.53 95.82 42.62 95.74L43.52 95.01C43.61 94.94 43.74 94.95 43.81 95.05C43.88 95.14 43.87 95.27 43.77 95.34L42.87 96.07C42.83 96.1 42.79 96.12 42.74 96.12Z" fill="#767676" fill-opacity="1.000000" fill-rule="nonzero"/>
		<path id="Vector" d="M42.63 90.17C42.54 90.17 42.45 90.11 42.43 90.01C42.41 89.89 42.48 89.78 42.59 89.76C43.78 89.51 45.04 89.21 46.45 88.83C46.55 88.79 46.67 88.86 46.7 88.97C46.73 89.08 46.66 89.2 46.55 89.23C45.14 89.61 43.87 89.92 42.68 90.17C42.66 90.17 42.65 90.17 42.63 90.17Z" fill="#767676" fill-opacity="1.000000" fill-rule="nonzero"/>
		<path id="Vector" d="M39.4 90.96C39.31 90.96 39.22 90.89 39.2 90.8C39.17 90.69 39.24 90.58 39.35 90.55L40.17 90.35C40.28 90.33 40.39 90.39 40.41 90.51C40.44 90.62 40.37 90.73 40.26 90.76L39.45 90.96C39.43 90.96 39.41 90.96 39.4 90.96Z" fill="#767676" fill-opacity="1.000000" fill-rule="nonzero"/>
		<path id="Vector" d="M108.32 90.9C108.3 90.9 108.29 90.9 108.28 90.9C106.85 90.61 105.58 90.33 104.39 90.02C104.28 89.99 104.22 89.88 104.24 89.77C104.27 89.66 104.38 89.59 104.49 89.62C105.67 89.92 106.94 90.21 108.35 90.49C108.47 90.51 108.54 90.62 108.52 90.73C108.5 90.83 108.41 90.9 108.32 90.9Z" fill="#767676" fill-opacity="1.000000" fill-rule="nonzero"/>
		<path id="Vector" d="M102.02 89.48C102 89.48 101.99 89.48 101.97 89.48L101.16 89.29C101.04 89.27 100.98 89.16 101 89.04C101.02 88.93 101.13 88.86 101.24 88.88L102.06 89.07C102.17 89.09 102.24 89.2 102.22 89.32C102.2 89.41 102.11 89.48 102.02 89.48Z" fill="#767676" fill-opacity="1.000000" fill-rule="nonzero"/>
		<path id="Vector" d="M61.59 91.82C61.55 91.82 61.52 91.81 61.49 91.79C61.39 91.73 61.35 91.61 61.41 91.51L62.19 90.14C62.24 90.04 62.37 90.01 62.47 90.07C62.57 90.13 62.6 90.25 62.54 90.35L61.77 91.72C61.73 91.78 61.66 91.82 61.59 91.82Z" fill="#767676" fill-opacity="1.000000" fill-rule="nonzero"/>
		<path id="Vector" d="M52.58 105.7C52.54 105.7 52.5 105.69 52.46 105.67C52.37 105.61 52.34 105.48 52.41 105.38L60.19 93.37C60.26 93.27 60.38 93.25 60.48 93.31C60.57 93.37 60.6 93.51 60.54 93.6L52.75 105.61C52.71 105.67 52.64 105.7 52.58 105.7Z" fill="#767676" fill-opacity="1.000000" fill-rule="nonzero"/>
		<path id="Vector" d="M64.48 110.98C64.46 110.98 64.45 110.98 64.43 110.97C64.32 110.95 64.25 110.84 64.28 110.73C65.22 106.35 66.38 101.96 67.5 97.72C68.2 95.05 68.93 92.29 69.59 89.56C69.62 89.45 69.73 89.38 69.84 89.41C69.95 89.43 70.02 89.55 69.99 89.66C69.32 92.39 68.59 95.15 67.89 97.83C66.77 102.07 65.62 106.45 64.67 110.81C64.66 110.91 64.57 110.98 64.48 110.98Z" fill="#767676" fill-opacity="1.000000" fill-rule="nonzero"/>
		<path id="Vector" d="M47.63 101.84C47.59 101.84 47.54 101.82 47.5 101.79C47.42 101.71 47.41 101.58 47.48 101.5L54.24 93.43C54.32 93.34 54.44 93.33 54.53 93.4C54.61 93.48 54.62 93.61 54.55 93.7L47.79 101.76C47.75 101.82 47.69 101.84 47.63 101.84Z" fill="#767676" fill-opacity="1.000000" fill-rule="nonzero"/>
		<path id="Vector" d="M58.64 108.22C58.61 108.22 58.59 108.22 58.57 108.21C58.46 108.16 58.41 108.05 58.45 107.94C59.95 103.8 61.73 99.71 63.46 95.76C64.01 94.5 64.56 93.24 65.11 91.97C65.15 91.87 65.27 91.82 65.38 91.87C65.48 91.91 65.53 92.04 65.48 92.14C64.94 93.41 64.39 94.67 63.84 95.93C62.11 99.88 60.33 103.96 58.83 108.09C58.8 108.17 58.72 108.22 58.64 108.22Z" fill="#767676" fill-opacity="1.000000" fill-rule="nonzero"/>
		<path id="Vector" d="M55.84 91.73C55.8 91.73 55.75 91.71 55.71 91.68C55.62 91.61 55.61 91.48 55.69 91.38L57.34 89.37C57.41 89.28 57.54 89.27 57.63 89.34C57.71 89.42 57.72 89.55 57.65 89.64L56 91.65C55.96 91.7 55.9 91.73 55.84 91.73Z" fill="#767676" fill-opacity="1.000000" fill-rule="nonzero"/>
		<path id="Vector" d="M58.64 108.22C58.61 108.22 58.59 108.22 58.57 108.21C58.46 108.16 58.41 108.05 58.45 107.94C59.95 103.8 61.73 99.71 63.46 95.76C64.01 94.5 64.56 93.24 65.11 91.97C65.15 91.87 65.27 91.82 65.38 91.87C65.48 91.91 65.53 92.04 65.48 92.14C64.94 93.41 64.39 94.67 63.84 95.93C62.11 99.88 60.33 103.96 58.83 108.09C58.8 108.17 58.72 108.22 58.64 108.22Z" fill="#767676" fill-opacity="1.000000" fill-rule="nonzero"/>
		<path id="Vector" d="M79.25 112.63C79.15 112.63 79.06 112.55 79.04 112.44C78.57 108.35 78.23 104.18 77.9 100.15C77.62 96.7 77.33 93.12 76.96 89.62C76.95 89.51 77.03 89.4 77.14 89.39C77.25 89.38 77.35 89.46 77.37 89.58C77.74 93.08 78.03 96.66 78.31 100.11C78.64 104.14 78.98 108.31 79.45 112.4C79.46 112.51 79.38 112.61 79.27 112.63C79.26 112.63 79.26 112.63 79.25 112.63Z" fill="#767676" fill-opacity="1.000000" fill-rule="nonzero"/>
		<path id="Vector" d="M86.5 111.36C86.41 111.36 86.32 111.3 86.3 111.2C85.21 106.7 83.88 102.18 82.6 97.81C82.02 95.84 81.42 93.8 80.85 91.79C80.82 91.68 80.88 91.56 80.99 91.53C81.1 91.5 81.21 91.56 81.24 91.67C81.81 93.68 82.41 95.72 82.99 97.68C84.27 102.06 85.6 106.58 86.69 111.1C86.72 111.21 86.65 111.32 86.54 111.35C86.53 111.36 86.51 111.36 86.5 111.36Z" fill="#767676" fill-opacity="1.000000" fill-rule="nonzero"/>
		<path id="Vector" d="M94.88 107.97C94.8 107.97 94.73 107.93 94.7 107.86C93.51 105.49 92.33 103.08 91.18 100.74C89.52 97.35 87.8 93.84 86.05 90.43C86 90.33 86.04 90.21 86.14 90.15C86.24 90.1 86.36 90.14 86.41 90.24C88.16 93.66 89.88 97.16 91.54 100.55C92.69 102.89 93.87 105.3 95.05 107.67C95.11 107.77 95.07 107.89 94.97 107.95C94.94 107.96 94.91 107.97 94.88 107.97Z" fill="#767676" fill-opacity="1.000000" fill-rule="nonzero"/>
		<path id="Vector" d="M99.71 92.65C99.66 92.65 99.61 92.63 99.57 92.59L96.57 89.68C96.49 89.6 96.48 89.47 96.56 89.39C96.64 89.31 96.77 89.3 96.85 89.38L99.85 92.29C99.93 92.37 99.94 92.5 99.86 92.58C99.82 92.63 99.76 92.65 99.71 92.65Z" fill="#767676" fill-opacity="1.000000" fill-rule="nonzero"/>
		<path id="Vector" d="M104.76 97.99C104.7 97.99 104.65 97.97 104.61 97.93L103.26 96.5C103.18 96.42 103.18 96.28 103.26 96.2C103.34 96.12 103.47 96.13 103.55 96.21L104.9 97.64C104.98 97.72 104.98 97.85 104.9 97.93C104.86 97.98 104.81 97.99 104.76 97.99Z" fill="#767676" fill-opacity="1.000000" fill-rule="nonzero"/>
		<path id="Vector" d="M71.7 106.57C71.69 106.57 71.69 106.57 71.68 106.57C71.57 106.56 71.49 106.46 71.5 106.35C71.86 101.63 72.19 97.49 72.5 93.72C72.51 93.61 72.62 93.53 72.72 93.53C72.84 93.54 72.92 93.64 72.91 93.75C72.6 97.53 72.27 101.66 71.9 106.38C71.9 106.49 71.81 106.57 71.7 106.57Z" fill="#767676" fill-opacity="1.000000" fill-rule="nonzero"/>
		<path id="Vector" d="M71.22 112.67C71.21 112.67 71.21 112.67 71.2 112.67C71.09 112.66 71.01 112.56 71.02 112.45L71.45 107.26C71.46 107.14 71.56 107.06 71.67 107.07C71.78 107.08 71.86 107.18 71.85 107.29L71.42 112.48C71.42 112.59 71.32 112.67 71.22 112.67Z" fill="#767676" fill-opacity="1.000000" fill-rule="nonzero"/>
		<path id="Vector" d="M100.26 103.74C100.2 103.74 100.13 103.71 100.09 103.65C96.7 98.85 93.34 94.14 90.1 89.64C90.03 89.55 90.05 89.42 90.14 89.35C90.23 89.28 90.36 89.3 90.43 89.4C93.66 93.9 97.03 98.61 100.42 103.41C100.49 103.5 100.47 103.64 100.37 103.7C100.34 103.73 100.3 103.74 100.26 103.74Z" fill="#767676" fill-opacity="1.000000" fill-rule="nonzero"/>
		<path id="Vector" d="M94.54 55.46C94.48 55.46 94.42 55.43 94.38 55.38C94.31 55.3 94.32 55.16 94.41 55.09L107.48 43.8C107.57 43.72 107.7 43.73 107.77 43.82C107.84 43.91 107.83 44.04 107.75 44.11L94.67 55.41C94.63 55.44 94.59 55.46 94.54 55.46Z" fill="#767676" fill-opacity="1.000000" fill-rule="nonzero"/>
		<path id="Vector" d="M87.27 50.63C87.24 50.63 87.2 50.62 87.17 50.6C87.07 50.54 87.04 50.42 87.09 50.32L87.88 48.95C87.93 48.85 88.06 48.82 88.16 48.87C88.25 48.93 88.29 49.06 88.23 49.16L87.45 50.53C87.41 50.59 87.34 50.63 87.27 50.63Z" fill="#767676" fill-opacity="1.000000" fill-rule="nonzero"/>
		<path id="Vector" d="M89.27 47.38C89.24 47.38 89.2 47.37 89.16 47.35C89.07 47.29 89.04 47.15 89.11 47.06L96.89 35.05C96.96 34.95 97.08 34.93 97.18 34.99C97.27 35.05 97.3 35.18 97.24 35.28L89.45 47.29C89.4 47.35 89.34 47.38 89.27 47.38Z" fill="#767676" fill-opacity="1.000000" fill-rule="nonzero"/>
		<path id="Vector" d="M80.78 47.94C80.77 47.94 80.75 47.94 80.73 47.94C80.62 47.91 80.56 47.79 80.58 47.68C80.95 46.19 81.33 44.7 81.7 43.22C82.8 38.84 83.93 34.32 84.96 29.85C84.98 29.74 85.09 29.67 85.2 29.69C85.31 29.72 85.38 29.83 85.36 29.95C84.33 34.42 83.19 38.95 82.09 43.32C81.72 44.81 81.35 46.3 80.98 47.79C80.96 47.88 80.88 47.94 80.78 47.94Z" fill="#767676" fill-opacity="1.000000" fill-rule="nonzero"/>
		<path id="Vector" d="M99.25 42.53C99.2 42.53 99.15 42.51 99.12 42.48C99.03 42.4 99.02 42.27 99.09 42.18L101.85 38.89C101.92 38.81 102.05 38.8 102.14 38.87C102.22 38.95 102.23 39.08 102.16 39.16L99.4 42.45C99.36 42.51 99.3 42.53 99.25 42.53Z" fill="#767676" fill-opacity="1.000000" fill-rule="nonzero"/>
		<path id="Vector" d="M89.09 37.54C89.06 37.54 89.04 37.54 89.01 37.53C88.91 37.48 88.86 37.36 88.9 37.26C89.16 36.57 89.45 35.9 89.73 35.25C90.12 34.34 90.49 33.48 90.8 32.58C90.84 32.48 90.96 32.42 91.06 32.46C91.17 32.5 91.23 32.62 91.19 32.72C90.86 33.63 90.48 34.54 90.1 35.42C89.83 36.06 89.54 36.73 89.27 37.41C89.24 37.49 89.17 37.54 89.09 37.54Z" fill="#767676" fill-opacity="1.000000" fill-rule="nonzero"/>
		<path id="Vector" d="M98.91 55.71C98.83 55.71 98.76 55.67 98.73 55.6C98.68 55.5 98.71 55.37 98.81 55.32L107.81 50.5C107.91 50.45 108.03 50.49 108.08 50.59C108.13 50.69 108.09 50.82 108 50.87L99 55.69C98.97 55.71 98.94 55.71 98.91 55.71Z" fill="#767676" fill-opacity="1.000000" fill-rule="nonzero"/>
		<path id="Vector" d="M108.45 50.59C108.38 50.59 108.3 50.54 108.27 50.48C108.22 50.37 108.26 50.25 108.36 50.2L110.58 49.01C110.68 48.95 110.8 48.99 110.85 49.09C110.91 49.2 110.87 49.32 110.77 49.37L108.54 50.57C108.52 50.58 108.48 50.59 108.45 50.59Z" fill="#767676" fill-opacity="1.000000" fill-rule="nonzero"/>
		<path id="Vector" d="M103.51 57.21C103.43 57.21 103.34 57.16 103.32 57.07C103.28 56.96 103.34 56.84 103.45 56.8L110.97 54.19C111.07 54.16 111.19 54.21 111.23 54.32C111.27 54.43 111.21 54.55 111.1 54.59L103.58 57.2C103.55 57.21 103.53 57.21 103.51 57.21Z" fill="#767676" fill-opacity="1.000000" fill-rule="nonzero"/>
		<path id="Vector" d="M88.72 55.54C88.67 55.54 88.62 55.53 88.58 55.5C88.49 55.42 88.48 55.29 88.56 55.2L96.34 45.71C96.42 45.61 96.54 45.6 96.63 45.68C96.72 45.75 96.73 45.88 96.66 45.97L88.87 55.47C88.83 55.52 88.78 55.54 88.72 55.54Z" fill="#767676" fill-opacity="1.000000" fill-rule="nonzero"/>
		<path id="Vector" d="M84.55 48.81C84.52 48.81 84.49 48.8 84.47 48.79C84.36 48.75 84.32 48.62 84.36 48.52C85.76 45.25 87.01 42.3 88.09 39.23C88.13 39.12 88.25 39.06 88.35 39.1C88.46 39.14 88.51 39.26 88.47 39.37C87.39 42.45 86.14 45.41 84.73 48.68C84.7 48.77 84.62 48.81 84.55 48.81Z" fill="#767676" fill-opacity="1.000000" fill-rule="nonzero"/>
		<path id="Vector" d="M72.45 50.19C72.35 50.19 72.26 50.12 72.25 50.01C71.79 45.75 71.39 41.41 71.02 37.21C70.75 34.28 70.48 31.24 70.18 28.26C70.17 28.15 70.25 28.04 70.37 28.03C70.48 28.02 70.58 28.11 70.59 28.22C70.89 31.2 71.16 34.24 71.42 37.17C71.8 41.37 72.19 45.7 72.66 49.96C72.67 50.07 72.59 50.18 72.48 50.19C72.47 50.19 72.46 50.19 72.45 50.19Z" fill="#767676" fill-opacity="1.000000" fill-rule="nonzero"/>
		<path id="Vector" d="M68.99 51.14C68.9 51.14 68.81 51.07 68.79 50.98L65.37 38.45C65.34 38.34 65.4 38.23 65.51 38.2C65.62 38.17 65.73 38.23 65.76 38.34L69.18 50.87C69.21 50.98 69.15 51.1 69.04 51.13C69.02 51.14 69 51.14 68.99 51.14Z" fill="#767676" fill-opacity="1.000000" fill-rule="nonzero"/>
		<path id="Vector" d="M64.64 35.2C64.55 35.2 64.46 35.14 64.44 35.05L62.94 29.57C62.91 29.46 62.98 29.34 63.09 29.31C63.19 29.28 63.31 29.34 63.34 29.46L64.83 34.94C64.86 35.05 64.8 35.16 64.69 35.19C64.67 35.2 64.65 35.2 64.64 35.2Z" fill="#767676" fill-opacity="1.000000" fill-rule="nonzero"/>
		<path id="Vector" d="M65.09 53.31C65.01 53.31 64.94 53.26 64.9 53.19C61.29 45.92 57.91 39.31 54.58 33C54.52 32.9 54.56 32.77 54.66 32.72C54.76 32.66 54.88 32.7 54.94 32.8C58.27 39.11 61.65 45.72 65.27 53C65.32 53.11 65.28 53.23 65.18 53.28C65.15 53.3 65.12 53.31 65.09 53.31Z" fill="#767676" fill-opacity="1.000000" fill-rule="nonzero"/>
		<path id="Vector" d="M57.26 55.52C57.2 55.52 57.15 55.5 57.12 55.46L49.79 48.38C49.71 48.3 49.7 48.16 49.78 48.08C49.86 48 49.99 48 50.07 48.07L57.4 55.16C57.48 55.24 57.48 55.37 57.4 55.45C57.36 55.5 57.31 55.52 57.26 55.52Z" fill="#767676" fill-opacity="1.000000" fill-rule="nonzero"/>
		<path id="Vector" d="M47.6 46.06C47.55 46.06 47.49 46.04 47.45 46L43.15 41.44C43.07 41.36 43.07 41.22 43.15 41.14C43.23 41.07 43.36 41.07 43.44 41.15L47.75 45.72C47.83 45.8 47.82 45.93 47.74 46.01C47.7 46.04 47.65 46.06 47.6 46.06Z" fill="#767676" fill-opacity="1.000000" fill-rule="nonzero"/>
		<path id="Vector" d="M43.64 55.27C43.61 55.27 43.58 55.26 43.55 55.25L36.28 51.68C36.18 51.63 36.13 51.51 36.18 51.4C36.23 51.3 36.35 51.25 36.46 51.31L43.73 54.87C43.83 54.92 43.88 55.04 43.83 55.15C43.79 55.22 43.72 55.27 43.64 55.27Z" fill="#767676" fill-opacity="1.000000" fill-rule="nonzero"/>
		<path id="Vector" d="M76.76 48.52C76.75 48.52 76.75 48.52 76.74 48.52C76.63 48.52 76.55 48.42 76.55 48.3C76.59 47.77 76.62 47.25 76.65 46.72C76.84 43.75 77.03 40.69 77.38 37.69C77.39 37.57 77.5 37.5 77.61 37.51C77.72 37.52 77.8 37.62 77.79 37.74C77.43 40.73 77.24 43.78 77.06 46.74C77.03 47.27 76.99 47.8 76.96 48.33C76.95 48.44 76.86 48.52 76.76 48.52Z" fill="#767676" fill-opacity="1.000000" fill-rule="nonzero"/>
		<path id="Vector" d="M77.99 33.6C77.98 33.6 77.98 33.6 77.97 33.6C77.86 33.59 77.77 33.49 77.78 33.37L78.21 28.19C78.22 28.07 78.33 27.99 78.43 28C78.55 28.01 78.63 28.11 78.62 28.22L78.19 33.41C78.18 33.52 78.09 33.6 77.99 33.6Z" fill="#767676" fill-opacity="1.000000" fill-rule="nonzero"/>
		<path id="Vector" d="M50.54 38.92C50.48 38.92 50.42 38.9 50.38 38.84C49.82 38.09 49.27 37.31 48.72 36.55L48.41 36.11C48.34 36.02 48.36 35.89 48.45 35.82C48.54 35.75 48.67 35.77 48.73 35.87L49.05 36.31C49.59 37.06 50.15 37.84 50.71 38.59C50.77 38.68 50.76 38.81 50.66 38.88C50.63 38.91 50.59 38.92 50.54 38.92Z" fill="#767676" fill-opacity="1.000000" fill-rule="nonzero"/>
		<path id="Vector" d="M62.01 54.82C61.95 54.82 61.89 54.79 61.85 54.74C59.56 51.64 57.29 48.46 55.09 45.38L53.53 43.2C53.46 43.1 53.48 42.97 53.57 42.91C53.66 42.84 53.79 42.86 53.86 42.95L55.41 45.13C57.62 48.21 59.89 51.39 62.17 54.49C62.24 54.58 62.22 54.71 62.13 54.78C62.09 54.81 62.05 54.82 62.01 54.82Z" fill="#767676" fill-opacity="1.000000" fill-rule="nonzero"/>
		<path id="Vector" d="M50.66 55.47C50.62 55.47 50.58 55.46 50.55 55.43L44.88 51.44C44.79 51.37 44.77 51.24 44.83 51.15C44.89 51.05 45.02 51.03 45.11 51.09L50.78 55.09C50.87 55.16 50.9 55.29 50.83 55.38C50.79 55.44 50.73 55.47 50.66 55.47Z" fill="#767676" fill-opacity="1.000000" fill-rule="nonzero"/>
		<path id="Vector" d="M43.29 50.25C43.25 50.25 43.21 50.24 43.18 50.22L39.79 47.83C39.7 47.76 39.68 47.63 39.74 47.54C39.81 47.45 39.94 47.42 40.03 47.49L43.41 49.87C43.5 49.94 43.53 50.07 43.46 50.16C43.42 50.22 43.36 50.25 43.29 50.25Z" fill="#767676" fill-opacity="1.000000" fill-rule="nonzero"/>
		<path id="Vector" d="M38.75 82.88L38.75 83.76C38.75 84.41 38.23 84.94 37.6 84.94L36.22 84.94C36.12 84.94 36.04 84.86 36.04 84.76L36.04 79.95C36.04 79.85 36.12 79.77 36.22 79.77L37.48 79.77C38.12 79.77 38.63 80.3 38.63 80.95L38.63 81.43C38.63 81.68 38.57 81.9 38.44 82.08C38.63 82.29 38.75 82.58 38.75 82.88ZM36.91 81.71L37.48 81.71C37.64 81.71 37.77 81.58 37.77 81.42L37.77 80.91C37.77 80.75 37.64 80.62 37.48 80.62L36.91 80.62L36.91 81.71ZM37.88 82.84C37.88 82.68 37.75 82.55 37.6 82.55L36.91 82.55L36.91 84.08L37.6 84.08C37.75 84.08 37.88 83.95 37.88 83.78L37.88 82.84Z" fill="#767676" fill-opacity="1.000000" fill-rule="nonzero"/>
		<path id="Vector" d="M40.42 80.61L40.42 81.71L41.06 81.71C41.16 81.71 41.23 81.79 41.23 81.89L41.23 82.35C41.23 82.45 41.16 82.53 41.06 82.53L40.42 82.53L40.42 84.09L41.42 84.09C41.53 84.09 41.6 84.17 41.6 84.28L41.6 84.75C41.6 84.85 41.53 84.93 41.42 84.93L39.72 84.93C39.62 84.93 39.54 84.85 39.54 84.75L39.54 79.95C39.54 79.84 39.62 79.76 39.72 79.76L41.42 79.76C41.53 79.76 41.6 79.85 41.6 79.95L41.6 80.42C41.6 80.53 41.53 80.6 41.42 80.6L40.42 80.6L40.42 80.61Z" fill="#767676" fill-opacity="1.000000" fill-rule="nonzero"/>
		<path id="Vector" d="M44.11 81.07L44.11 80.92C44.11 80.75 43.98 80.63 43.82 80.63L43.49 80.63C43.33 80.63 43.2 80.75 43.2 80.92L43.2 81.37C43.2 81.53 43.33 81.65 43.49 81.66L43.82 81.66C44.46 81.66 44.98 82.19 44.98 82.84L44.98 83.75C44.98 84.4 44.46 84.94 43.82 84.94L43.49 84.94C42.85 84.94 42.33 84.4 42.33 83.75L42.33 83.15C42.33 83.04 42.41 82.96 42.51 82.96L43.01 82.96C43.11 82.96 43.19 83.05 43.19 83.15L43.19 83.79C43.19 83.95 43.32 84.09 43.48 84.09L43.81 84.09C43.97 84.09 44.1 83.95 44.1 83.79L44.1 82.83C44.1 82.67 43.97 82.54 43.81 82.54L43.48 82.54C42.84 82.54 42.32 82.02 42.32 81.37L42.32 80.94C42.32 80.29 42.84 79.76 43.48 79.76L43.81 79.76C44.46 79.76 44.97 80.29 44.97 80.94L44.97 81.07C44.97 81.17 44.89 81.25 44.79 81.25L44.29 81.25C44.18 81.26 44.11 81.18 44.11 81.07Z" fill="#767676" fill-opacity="1.000000" fill-rule="nonzero"/>
		<path id="Vector" d="M48.06 79.95L48.06 80.44C48.06 80.54 47.97 80.62 47.88 80.62L47.25 80.62L47.25 84.75C47.25 84.86 47.18 84.94 47.07 84.94L46.57 84.94C46.47 84.94 46.39 84.85 46.39 84.75L46.39 80.62L45.77 80.62C45.67 80.62 45.59 80.54 45.59 80.44L45.59 79.95C45.59 79.85 45.67 79.77 45.77 79.77L47.87 79.77C47.97 79.76 48.06 79.85 48.06 79.95Z" fill="#767676" fill-opacity="1.000000" fill-rule="nonzero"/>
		<path id="Vector" d="M52.8 84.09L53.09 84.09C53.17 84.09 53.26 84.17 53.26 84.27L53.26 84.75C53.26 84.85 53.17 84.93 53.07 84.93L51.64 84.93C51.07 84.93 50.62 84.47 50.62 83.9L50.62 80.8C50.62 80.22 51.08 79.76 51.64 79.76L52.24 79.76C52.81 79.76 53.26 80.23 53.26 80.8L53.26 83.35C53.27 83.68 53.07 83.96 52.8 84.09ZM52.4 80.81C52.4 80.7 52.31 80.62 52.21 80.62L51.67 80.62C51.57 80.62 51.49 80.71 51.49 80.81L51.49 83.9C51.49 84 51.58 84.09 51.67 84.09L52.4 84.09L52.4 80.81Z" fill="#767676" fill-opacity="1.000000" fill-rule="nonzero"/>
		<path id="Vector" d="M56.1 79.76L56.6 79.76C56.7 79.76 56.78 79.85 56.78 79.96L56.78 83.99C56.78 84.51 56.36 84.94 55.86 84.94L55.06 84.94C54.55 84.94 54.14 84.51 54.14 83.99L54.14 79.96C54.14 79.85 54.22 79.76 54.32 79.76L54.82 79.76C54.93 79.76 55 79.85 55 79.96L55 83.9C55 84.01 55.09 84.09 55.19 84.09L55.73 84.09C55.83 84.09 55.92 84.01 55.92 83.9L55.92 79.96C55.92 79.85 56 79.76 56.1 79.76Z" fill="#767676" fill-opacity="1.000000" fill-rule="nonzero"/>
		<path id="Vector" d="M60.21 84.1L60.21 84.75C60.21 84.86 60.13 84.94 60.03 84.94L59.52 84.94C59.42 84.94 59.35 84.85 59.35 84.75L59.35 84.08L58.38 84.08L58.38 84.75C58.38 84.86 58.3 84.94 58.2 84.94L57.69 84.94C57.59 84.94 57.51 84.85 57.51 84.75L57.51 84.1C57.51 84.07 57.51 84.05 57.52 84.01L58.14 79.93C58.15 79.83 58.24 79.76 58.33 79.76L59.41 79.76C59.51 79.76 59.58 79.85 59.59 79.93L60.21 84.01C60.21 84.05 60.21 84.07 60.21 84.1ZM59.24 83.24L58.86 80.64L58.48 83.24L59.24 83.24Z" fill="#767676" fill-opacity="1.000000" fill-rule="nonzero"/>
		<path id="Vector" d="M61.8 79.95L61.8 84.1L62.82 84.1C62.92 84.1 63 84.18 63 84.28L63 84.75C63 84.86 62.92 84.94 62.82 84.94L61.12 84.94C61.01 84.94 60.94 84.85 60.94 84.75L60.94 79.95C60.94 79.85 61.01 79.77 61.12 79.77L61.62 79.77C61.73 79.76 61.8 79.85 61.8 79.95Z" fill="#767676" fill-opacity="1.000000" fill-rule="nonzero"/>
		<path id="Vector" d="M64.37 84.94L63.87 84.94C63.76 84.94 63.69 84.85 63.69 84.75L63.69 79.96C63.69 79.85 63.77 79.76 63.87 79.76L64.37 79.76C64.47 79.76 64.55 79.85 64.55 79.96L64.55 84.75C64.55 84.86 64.47 84.94 64.37 84.94Z" fill="#767676" fill-opacity="1.000000" fill-rule="nonzero"/>
		<path id="Vector" d="M67.7 79.95L67.7 80.44C67.7 80.54 67.62 80.62 67.53 80.62L66.9 80.62L66.9 84.75C66.9 84.86 66.82 84.94 66.72 84.94L66.21 84.94C66.12 84.94 66.04 84.85 66.04 84.75L66.04 80.62L65.42 80.62C65.32 80.62 65.24 80.54 65.24 80.44L65.24 79.95C65.24 79.85 65.32 79.77 65.42 79.77L67.52 79.77C67.62 79.76 67.7 79.85 67.7 79.95Z" fill="#767676" fill-opacity="1.000000" fill-rule="nonzero"/>
		<path id="Vector" d="M70.34 79.76L70.84 79.76C70.94 79.76 71.02 79.85 71.02 79.95L71.02 80.68C71.02 80.76 71.01 80.84 70.97 80.91L70.05 82.84L70.05 84.75C70.05 84.85 69.97 84.93 69.87 84.93L69.37 84.93C69.27 84.93 69.19 84.85 69.19 84.75L69.19 82.84L68.26 80.91C68.23 80.84 68.21 80.76 68.21 80.68L68.21 79.95C68.21 79.84 68.29 79.76 68.39 79.76L68.9 79.76C69 79.76 69.08 79.85 69.08 79.95L69.08 80.51C69.08 80.57 69.09 80.63 69.12 80.68L69.62 81.73L70.12 80.68C70.14 80.63 70.16 80.57 70.16 80.51L70.16 79.95C70.16 79.85 70.24 79.76 70.34 79.76Z" fill="#767676" fill-opacity="1.000000" fill-rule="nonzero"/>
		<path id="Vector" d="M75.53 82.35C75.53 82.92 75.08 83.38 74.53 83.38C73.98 83.38 73.52 82.92 73.52 82.35C73.52 81.79 73.98 81.32 74.53 81.32C75.08 81.32 75.53 81.79 75.53 82.35Z" fill="#767676" fill-opacity="1.000000" fill-rule="nonzero"/>
		<path id="Vector" d="M80.91 82.88L80.91 83.75C80.91 84.4 80.4 84.94 79.76 84.94L78.39 84.94C78.28 84.94 78.21 84.85 78.21 84.75L78.21 79.95C78.21 79.85 78.29 79.77 78.39 79.77L79.65 79.77C80.28 79.77 80.8 80.3 80.8 80.95L80.8 81.43C80.8 81.67 80.73 81.9 80.6 82.08C80.79 82.29 80.91 82.57 80.91 82.88ZM79.07 81.71L79.65 81.71C79.8 81.71 79.93 81.58 79.93 81.42L79.93 80.91C79.93 80.75 79.8 80.62 79.65 80.62L79.07 80.62L79.07 81.71ZM80.04 82.84C80.04 82.68 79.91 82.55 79.76 82.55L79.07 82.55L79.07 84.08L79.76 84.08C79.91 84.08 80.04 83.95 80.04 83.78L80.04 82.84Z" fill="#767676" fill-opacity="1.000000" fill-rule="nonzero"/>
		<path id="Vector" d="M82.58 80.61L82.58 81.71L83.22 81.71C83.32 81.71 83.4 81.79 83.4 81.89L83.4 82.35C83.4 82.45 83.32 82.53 83.22 82.53L82.58 82.53L82.58 84.09L83.59 84.09C83.69 84.09 83.77 84.17 83.77 84.28L83.77 84.75C83.77 84.85 83.69 84.93 83.59 84.93L81.89 84.93C81.79 84.93 81.71 84.85 81.71 84.75L81.71 79.95C81.71 79.84 81.79 79.76 81.89 79.76L83.59 79.76C83.69 79.76 83.77 79.85 83.77 79.95L83.77 80.42C83.77 80.53 83.69 80.6 83.59 80.6L82.58 80.6L82.58 80.61Z" fill="#767676" fill-opacity="1.000000" fill-rule="nonzero"/>
		<path id="Vector" d="M86.27 81.07L86.27 80.92C86.27 80.75 86.14 80.63 85.98 80.63L85.65 80.63C85.49 80.63 85.36 80.75 85.36 80.92L85.36 81.37C85.36 81.53 85.49 81.65 85.65 81.66L85.98 81.66C86.63 81.66 87.14 82.19 87.14 82.84L87.14 83.75C87.14 84.4 86.62 84.94 85.98 84.94L85.65 84.94C85.01 84.94 84.49 84.4 84.49 83.75L84.49 83.15C84.49 83.04 84.57 82.96 84.67 82.96L85.18 82.96C85.28 82.96 85.36 83.05 85.36 83.15L85.36 83.79C85.36 83.95 85.48 84.09 85.64 84.09L85.97 84.09C86.13 84.09 86.26 83.95 86.26 83.79L86.26 82.83C86.26 82.67 86.13 82.54 85.97 82.54L85.64 82.54C85.01 82.54 84.49 82.02 84.49 81.37L84.49 80.94C84.49 80.29 85.01 79.76 85.64 79.76L85.97 79.76C86.62 79.76 87.13 80.29 87.13 80.94L87.13 81.07C87.13 81.17 87.05 81.25 86.95 81.25L86.45 81.25C86.35 81.26 86.27 81.18 86.27 81.07Z" fill="#767676" fill-opacity="1.000000" fill-rule="nonzero"/>
		<path id="Vector" d="M90.22 79.95L90.22 80.44C90.22 80.54 90.13 80.62 90.04 80.62L89.41 80.62L89.41 84.75C89.41 84.86 89.34 84.94 89.23 84.94L88.73 84.94C88.63 84.94 88.55 84.85 88.55 84.75L88.55 80.62L87.93 80.62C87.83 80.62 87.75 80.54 87.75 80.44L87.75 79.95C87.75 79.85 87.83 79.77 87.93 79.77L90.03 79.77C90.13 79.76 90.22 79.85 90.22 79.95Z" fill="#767676" fill-opacity="1.000000" fill-rule="nonzero"/>
		<path id="Vector" d="M95.36 80.95L95.36 81.42C95.36 82.07 94.84 82.6 94.21 82.6L93.65 82.6L93.65 84.75C93.65 84.86 93.57 84.94 93.47 84.94L92.97 84.94C92.87 84.94 92.79 84.85 92.79 84.75L92.79 79.95C92.79 79.85 92.87 79.77 92.97 79.77L94.21 79.77C94.84 79.76 95.36 80.3 95.36 80.95ZM94.49 80.91C94.49 80.75 94.37 80.62 94.21 80.62L93.66 80.62L93.66 81.71L94.21 81.71C94.37 81.71 94.49 81.58 94.49 81.42L94.49 80.91Z" fill="#767676" fill-opacity="1.000000" fill-rule="nonzero"/>
		<path id="Vector" d="M97.94 82.52L98.59 83.76C98.63 83.84 98.64 83.93 98.64 84.01L98.64 84.75C98.64 84.85 98.57 84.93 98.47 84.93L97.96 84.93C97.86 84.93 97.77 84.85 97.77 84.75L97.77 84.23C97.77 84.15 97.76 84.07 97.72 83.98L96.95 82.51L96.95 84.75C96.95 84.86 96.87 84.94 96.77 84.94L96.27 84.94C96.17 84.94 96.09 84.85 96.09 84.75L96.09 79.95C96.09 79.85 96.18 79.77 96.27 79.77L97.52 79.77C98.15 79.77 98.66 80.3 98.66 80.95L98.66 81.42C98.66 81.92 98.36 82.34 97.94 82.52ZM97.51 80.62L96.95 80.62L96.95 81.72L97.51 81.72C97.67 81.72 97.79 81.58 97.79 81.41L97.79 80.9C97.8 80.74 97.67 80.62 97.51 80.62Z" fill="#767676" fill-opacity="1.000000" fill-rule="nonzero"/>
		<path id="Vector" d="M100.07 84.94L99.57 84.94C99.47 84.94 99.39 84.85 99.39 84.75L99.39 79.96C99.39 79.85 99.47 79.76 99.57 79.76L100.07 79.76C100.18 79.76 100.25 79.85 100.25 79.96L100.25 84.75C100.26 84.86 100.18 84.94 100.07 84.94Z" fill="#767676" fill-opacity="1.000000" fill-rule="nonzero"/>
		<path id="Vector" d="M103.01 82.54L103.51 82.54C103.62 82.54 103.69 82.63 103.69 82.73L103.69 83.99C103.69 84.5 103.28 84.93 102.77 84.93L101.97 84.93C101.47 84.93 101.05 84.5 101.05 83.99L101.05 80.71C101.05 80.18 101.46 79.76 101.97 79.76L102.77 79.76C103.28 79.76 103.69 80.19 103.69 80.71L103.69 81.52C103.69 81.63 103.61 81.72 103.51 81.72L103.01 81.72C102.91 81.72 102.83 81.63 102.83 81.52L102.83 80.79C102.83 80.69 102.74 80.61 102.65 80.61L102.11 80.61C102.01 80.61 101.92 80.69 101.92 80.79L101.92 83.89C101.92 84 102.01 84.08 102.11 84.08L102.65 84.08C102.75 84.08 102.83 84 102.83 83.89L102.83 82.74C102.83 82.63 102.91 82.54 103.01 82.54Z" fill="#767676" fill-opacity="1.000000" fill-rule="nonzero"/>
		<path id="Vector" d="M105.37 80.61L105.37 81.71L106.01 81.71C106.11 81.71 106.19 81.79 106.19 81.89L106.19 82.35C106.19 82.45 106.11 82.53 106.01 82.53L105.37 82.53L105.37 84.09L106.38 84.09C106.48 84.09 106.56 84.17 106.56 84.28L106.56 84.75C106.56 84.85 106.48 84.93 106.38 84.93L104.68 84.93C104.58 84.93 104.5 84.85 104.5 84.75L104.5 79.95C104.5 79.84 104.58 79.76 104.68 79.76L106.38 79.76C106.48 79.76 106.56 79.85 106.56 79.95L106.56 80.42C106.56 80.53 106.48 80.6 106.38 80.6L105.37 80.6L105.37 80.61Z" fill="#767676" fill-opacity="1.000000" fill-rule="nonzero"/>
		<path id="Vector" d="M109.25 80.57C114.48 80.57 119.7 80.57 124.93 80.57C125.59 80.57 125.59 79.52 124.93 79.52C119.7 79.52 114.48 79.52 109.25 79.52C108.59 79.52 108.59 80.57 109.25 80.57Z" fill="#767676" fill-opacity="1.000000" fill-rule="nonzero"/>
		<path id="Vector" d="M109.25 82.8C112.66 82.8 116.06 82.8 119.47 82.8C120.13 82.8 120.13 81.75 119.47 81.75C116.07 81.75 112.66 81.75 109.25 81.75C108.59 81.75 108.59 82.8 109.25 82.8Z" fill="#767676" fill-opacity="1.000000" fill-rule="nonzero"/>
		<path id="Vector" d="M109.25 84.88C110.8 84.88 112.34 84.88 113.88 84.88C114.54 84.88 114.54 83.84 113.88 83.84C112.34 83.84 110.8 83.84 109.25 83.84C108.59 83.84 108.59 84.88 109.25 84.88Z" fill="#767676" fill-opacity="1.000000" fill-rule="nonzero"/>
		<path id="Vector" d="M32.79 79.52C27.57 79.52 22.34 79.52 17.12 79.52C16.46 79.52 16.46 80.57 17.12 80.57C22.34 80.57 27.57 80.57 32.79 80.57C33.45 80.57 33.45 79.52 32.79 79.52Z" fill="#767676" fill-opacity="1.000000" fill-rule="nonzero"/>
		<path id="Vector" d="M32.79 81.75C29.39 81.75 25.98 81.75 22.57 81.75C21.91 81.75 21.91 82.8 22.57 82.8C25.98 82.8 29.38 82.8 32.79 82.8C33.45 82.8 33.45 81.75 32.79 81.75Z" fill="#767676" fill-opacity="1.000000" fill-rule="nonzero"/>
		<path id="Vector" d="M32.79 83.84C31.25 83.84 29.7 83.84 28.16 83.84C27.5 83.84 27.5 84.88 28.16 84.88C29.7 84.88 31.25 84.88 32.79 84.88C33.45 84.88 33.45 83.84 32.79 83.84Z" fill="#767676" fill-opacity="1.000000" fill-rule="nonzero"/>
	</g>
</svg>
