<svg width="140.000000" height="140.000000" viewBox="0 0 140 140" fill="none" xmlns="http://www.w3.org/2000/svg" xmlns:xlink="http://www.w3.org/1999/xlink">
	<desc>
			Created with Pixso.
	</desc>
	<defs>
		<clipPath id="clip10_1869">
			<rect id="Frame" width="140.000000" height="140.000000" fill="white" fill-opacity="0"/>
		</clipPath>
	</defs>
	<rect id="Frame" width="140.000000" height="140.000000" fill="#FFFFFF" fill-opacity="0"/>
	<g clip-path="url(#clip10_1869)">
		<path id="Vector" d="M51.9 86.19C51.8 86.06 51.6 86.03 51.47 86.14C49.1 88.03 47.25 89.44 45.45 90.69C45.31 90.78 45.27 90.98 45.37 91.13C45.43 91.22 45.53 91.26 45.62 91.26C45.68 91.26 45.75 91.25 45.8 91.21C47.61 89.95 49.47 88.54 51.85 86.64C51.99 86.53 52.01 86.33 51.9 86.19Z" fill="#767676" fill-opacity="1.000000" fill-rule="nonzero"/>
		<path id="Vector" d="M42.34 93.69C42.4 93.69 42.47 93.67 42.52 93.63L43.35 93.02C43.49 92.91 43.52 92.72 43.42 92.57C43.32 92.43 43.13 92.4 42.99 92.5L42.16 93.11C42.02 93.22 41.99 93.41 42.09 93.56C42.15 93.64 42.25 93.69 42.34 93.69Z" fill="#767676" fill-opacity="1.000000" fill-rule="nonzero"/>
		<path id="Vector" d="M61.47 86.33L59.4 89.62C59.3 89.77 59.35 89.97 59.49 90.06C59.54 90.09 59.6 90.11 59.66 90.11C59.76 90.11 59.86 90.06 59.92 89.97L61.99 86.68C62.08 86.53 62.04 86.33 61.89 86.24C61.75 86.14 61.56 86.18 61.47 86.33Z" fill="#767676" fill-opacity="1.000000" fill-rule="nonzero"/>
		<path id="Vector" d="M51.38 101.67C51.47 101.67 51.57 101.62 51.63 101.54L58.79 91.54C58.89 91.4 58.86 91.2 58.72 91.1C58.58 90.99 58.39 91.02 58.28 91.17L51.13 101.16C51.02 101.3 51.05 101.5 51.2 101.61C51.25 101.65 51.31 101.67 51.38 101.67Z" fill="#767676" fill-opacity="1.000000" fill-rule="nonzero"/>
		<path id="Vector" d="M67.33 86.41C66.6 89.23 65.77 92.08 64.97 94.84C63.95 98.37 62.89 102.02 62.01 105.66C61.97 105.83 62.07 106.01 62.24 106.05C62.26 106.05 62.29 106.06 62.31 106.06C62.45 106.06 62.58 105.96 62.62 105.82C63.48 102.19 64.54 98.54 65.57 95.02C66.37 92.26 67.2 89.4 67.93 86.57C67.98 86.4 67.88 86.23 67.71 86.18C67.55 86.14 67.38 86.24 67.33 86.41Z" fill="#767676" fill-opacity="1.000000" fill-rule="nonzero"/>
		<path id="Vector" d="M46.83 98.45C46.92 98.45 47 98.42 47.06 98.35L53.28 91.63C53.39 91.5 53.39 91.31 53.27 91.18C53.14 91.06 52.95 91.07 52.83 91.2L46.61 97.91C46.49 98.04 46.5 98.24 46.62 98.36C46.68 98.42 46.76 98.45 46.83 98.45Z" fill="#767676" fill-opacity="1.000000" fill-rule="nonzero"/>
		<path id="Vector" d="M42.18 86.08L38.94 87.75C38.79 87.83 38.72 88.02 38.8 88.17C38.86 88.28 38.97 88.35 39.08 88.35C39.13 88.35 39.18 88.33 39.22 88.31L42.46 86.65C42.61 86.57 42.68 86.38 42.6 86.22C42.52 86.07 42.33 86 42.18 86.08Z" fill="#767676" fill-opacity="1.000000" fill-rule="nonzero"/>
		<path id="Vector" d="M54.61 89.93L57.55 86.68C57.67 86.55 57.66 86.35 57.54 86.23C57.41 86.11 57.21 86.12 57.1 86.25L54.15 89.5C54.03 89.63 54.04 89.83 54.17 89.95C54.23 90.01 54.3 90.04 54.38 90.04C54.46 90.04 54.55 90 54.61 89.93Z" fill="#767676" fill-opacity="1.000000" fill-rule="nonzero"/>
		<path id="Vector" d="M65.03 86.65C65.1 86.49 65.03 86.3 64.87 86.23C64.72 86.16 64.53 86.22 64.46 86.39C63.44 88.67 62.34 90.97 61.27 93.18C59.68 96.47 58.04 99.87 56.66 103.32C56.59 103.49 56.67 103.67 56.83 103.74C56.87 103.75 56.91 103.76 56.95 103.76C57.07 103.76 57.19 103.69 57.23 103.56C58.61 100.13 60.24 96.74 61.82 93.46C62.9 91.24 64.01 88.94 65.03 86.65Z" fill="#767676" fill-opacity="1.000000" fill-rule="nonzero"/>
		<path id="Vector" d="M75.58 107.15C75.6 107.31 75.73 107.43 75.89 107.43C75.9 107.43 75.91 107.43 75.93 107.43C76.1 107.4 76.22 107.24 76.2 107.07C75.76 103.68 75.45 100.21 75.15 96.85C74.84 93.41 74.52 89.85 74.07 86.36C74.05 86.19 73.89 86.07 73.72 86.09C73.55 86.12 73.43 86.27 73.45 86.45C73.9 89.92 74.22 93.48 74.53 96.91C74.83 100.27 75.15 103.75 75.58 107.15Z" fill="#767676" fill-opacity="1.000000" fill-rule="nonzero"/>
		<path id="Vector" d="M78.85 95C80.03 98.63 81.24 102.39 82.25 106.14C82.29 106.28 82.41 106.38 82.55 106.38C82.57 106.38 82.6 106.37 82.63 106.37C82.79 106.32 82.89 106.15 82.85 105.98C81.84 102.21 80.62 98.44 79.44 94.8C78.54 92.05 77.62 89.19 76.8 86.36C76.75 86.2 76.57 86.1 76.41 86.15C76.25 86.2 76.15 86.38 76.2 86.54C77.03 89.38 77.96 92.24 78.85 95Z" fill="#767676" fill-opacity="1.000000" fill-rule="nonzero"/>
		<path id="Vector" d="M89.98 103.39C90.04 103.5 90.14 103.56 90.25 103.56C90.3 103.56 90.35 103.54 90.4 103.52C90.55 103.43 90.6 103.24 90.52 103.09C89.43 101.12 88.34 99.11 87.29 97.16C85.36 93.6 83.37 89.91 81.29 86.35C81.21 86.2 81.01 86.15 80.87 86.24C80.72 86.33 80.67 86.53 80.76 86.67C82.83 90.23 84.82 93.91 86.75 97.47C87.8 99.41 88.89 101.42 89.98 103.39Z" fill="#767676" fill-opacity="1.000000" fill-rule="nonzero"/>
		<path id="Vector" d="M94.49 90.72C94.55 90.77 94.62 90.8 94.69 90.8C94.78 90.8 94.86 90.76 94.93 90.69C95.04 90.55 95.02 90.36 94.89 90.24L90.16 86.1C90.03 85.98 89.83 86 89.72 86.13C89.61 86.27 89.63 86.46 89.76 86.58L94.49 90.72Z" fill="#767676" fill-opacity="1.000000" fill-rule="nonzero"/>
		<path id="Vector" d="M99.12 95.16C99.18 95.22 99.25 95.25 99.33 95.25C99.41 95.25 99.49 95.22 99.56 95.15C99.67 95.02 99.67 94.82 99.54 94.7L98.3 93.51C98.17 93.39 97.97 93.39 97.86 93.52C97.74 93.65 97.75 93.85 97.87 93.97L99.12 95.16Z" fill="#767676" fill-opacity="1.000000" fill-rule="nonzero"/>
		<path id="Vector" d="M70.37 86.14C70.21 86.13 70.05 86.25 70.04 86.43C69.61 91.01 69.17 95.97 68.64 102.04C68.63 102.22 68.75 102.37 68.92 102.39C68.93 102.39 68.94 102.39 68.95 102.39C69.11 102.39 69.24 102.26 69.26 102.1C69.78 96.03 70.22 91.06 70.65 86.49C70.67 86.31 70.55 86.16 70.37 86.14Z" fill="#767676" fill-opacity="1.000000" fill-rule="nonzero"/>
		<path id="Vector" d="M68.93 102.51C68.77 102.5 68.61 102.63 68.6 102.8L68.2 107.12C68.19 107.29 68.31 107.45 68.48 107.47C68.49 107.47 68.5 107.47 68.51 107.47C68.67 107.47 68.81 107.35 68.82 107.18L69.21 102.86C69.23 102.69 69.1 102.53 68.93 102.51Z" fill="#767676" fill-opacity="1.000000" fill-rule="nonzero"/>
		<path id="Vector" d="M95.19 100.03C95.26 100.03 95.33 100.01 95.39 99.96C95.52 99.85 95.54 99.65 95.43 99.51C91.89 94.98 88.38 90.53 85.01 86.29C84.9 86.16 84.7 86.14 84.57 86.25C84.44 86.36 84.42 86.56 84.53 86.69C87.9 90.93 91.41 95.37 94.95 99.91C95.01 99.99 95.1 100.03 95.19 100.03Z" fill="#767676" fill-opacity="1.000000" fill-rule="nonzero"/>
		<path id="Vector" d="M99.22 88.27C99.32 88.27 99.42 88.22 99.48 88.12C99.57 87.97 99.53 87.78 99.38 87.68L97.01 86.17C96.87 86.08 96.68 86.12 96.59 86.27C96.5 86.42 96.54 86.61 96.68 86.71L99.06 88.22C99.11 88.25 99.16 88.27 99.22 88.27Z" fill="#767676" fill-opacity="1.000000" fill-rule="nonzero"/>
		<path id="Vector" d="M88.66 57.27C88.72 57.35 88.81 57.39 88.9 57.39C88.97 57.39 89.03 57.37 89.09 57.33L98.19 50.2C98.33 50.1 98.36 49.9 98.25 49.76C98.15 49.62 97.95 49.59 97.81 49.7L88.71 56.83C88.58 56.93 88.55 57.13 88.66 57.27Z" fill="#767676" fill-opacity="1.000000" fill-rule="nonzero"/>
		<path id="Vector" d="M84.14 50.84C84 50.75 83.81 50.79 83.71 50.94L79.95 56.91C79.86 57.06 79.9 57.26 80.05 57.35C80.1 57.39 80.16 57.4 80.21 57.4C80.31 57.4 80.42 57.35 80.47 57.26L84.23 51.28C84.33 51.13 84.28 50.94 84.14 50.84Z" fill="#767676" fill-opacity="1.000000" fill-rule="nonzero"/>
		<path id="Vector" d="M92 39.36L84.84 49.36C84.74 49.5 84.77 49.7 84.91 49.8C84.97 49.84 85.03 49.86 85.09 49.86C85.19 49.86 85.29 49.81 85.35 49.73L92.5 39.73C92.61 39.59 92.58 39.4 92.43 39.29C92.3 39.19 92.1 39.22 92 39.36Z" fill="#767676" fill-opacity="1.000000" fill-rule="nonzero"/>
		<path id="Vector" d="M81.62 35.24C81.66 35.07 81.56 34.9 81.4 34.85C81.23 34.81 81.06 34.91 81.02 35.08C80.54 36.97 80.03 38.89 79.51 40.79C79.71 40.87 79.89 40.97 80.08 41.08C80.6 39.14 81.12 37.18 81.62 35.24Z" fill="#767676" fill-opacity="1.000000" fill-rule="nonzero"/>
		<path id="Vector" d="M75.11 57.02C75.07 57.19 75.17 57.36 75.33 57.41C75.36 57.41 75.39 57.41 75.41 57.41C75.55 57.41 75.67 57.32 75.71 57.18C75.98 56.1 76.27 55.01 76.56 53.93L75.91 53.93C75.64 54.96 75.37 55.99 75.11 57.02Z" fill="#767676" fill-opacity="1.000000" fill-rule="nonzero"/>
		<path id="Vector" d="M94.49 45.72L97.02 42.98C97.13 42.86 97.13 42.66 97.01 42.54C96.88 42.42 96.69 42.42 96.57 42.55L94.03 45.28C93.92 45.41 93.92 45.61 94.05 45.73C94.11 45.79 94.18 45.82 94.26 45.82C94.34 45.82 94.43 45.79 94.49 45.72Z" fill="#767676" fill-opacity="1.000000" fill-rule="nonzero"/>
		<path id="Vector" d="M86.8 37.16C86.64 37.1 86.46 37.18 86.39 37.34C86.11 38.08 85.77 38.79 85.41 39.55C85.15 40.09 84.89 40.65 84.64 41.23C84.57 41.39 84.64 41.57 84.8 41.64C84.84 41.66 84.89 41.67 84.93 41.67C85.05 41.67 85.16 41.6 85.21 41.48C85.45 40.92 85.71 40.37 85.97 39.83C86.32 39.1 86.67 38.34 86.97 37.58C87.03 37.41 86.96 37.23 86.8 37.16Z" fill="#767676" fill-opacity="1.000000" fill-rule="nonzero"/>
		<path id="Vector" d="M96.09 57.22C96.14 57.33 96.25 57.39 96.37 57.39C96.41 57.39 96.46 57.38 96.51 57.36L103.99 53.51C104.14 53.43 104.21 53.25 104.13 53.09C104.05 52.93 103.87 52.87 103.71 52.95L96.23 56.79C96.07 56.87 96.01 57.06 96.09 57.22Z" fill="#767676" fill-opacity="1.000000" fill-rule="nonzero"/>
		<path id="Vector" d="M83.67 57.35C83.73 57.41 83.8 57.44 83.88 57.44C83.96 57.44 84.05 57.4 84.11 57.34L91.97 48.65C92.08 48.52 92.07 48.32 91.95 48.2C91.82 48.08 91.62 48.09 91.51 48.22L83.65 56.91C83.53 57.03 83.54 57.23 83.67 57.35Z" fill="#767676" fill-opacity="1.000000" fill-rule="nonzero"/>
		<path id="Vector" d="M77.54 56.98C77.47 57.15 77.54 57.33 77.7 57.4C77.74 57.42 77.79 57.43 77.83 57.43C77.95 57.43 78.06 57.36 78.11 57.24C78.66 55.97 79.23 54.71 79.81 53.46C79.55 53.61 79.26 53.72 78.97 53.8C78.48 54.85 78 55.91 77.54 56.98Z" fill="#767676" fill-opacity="1.000000" fill-rule="nonzero"/>
		<path id="Vector" d="M84.48 43.11C84.54 42.95 84.46 42.76 84.3 42.7C84.15 42.63 83.96 42.71 83.9 42.87C83.4 44.17 82.84 45.46 82.26 46.75L82.26 48.25C83.04 46.55 83.81 44.83 84.48 43.11Z" fill="#767676" fill-opacity="1.000000" fill-rule="nonzero"/>
		<path id="Vector" d="M68.05 33.75C68.03 33.58 67.88 33.45 67.71 33.47C67.54 33.49 67.42 33.65 67.43 33.82C67.68 36.02 67.9 38.27 68.12 40.47L68.74 40.47C68.52 38.25 68.3 35.97 68.05 33.75Z" fill="#767676" fill-opacity="1.000000" fill-rule="nonzero"/>
		<path id="Vector" d="M70.02 57.12C70.05 57.28 70.18 57.39 70.33 57.39C70.35 57.39 70.36 57.39 70.38 57.39C70.55 57.37 70.67 57.2 70.64 57.03C70.49 56.01 70.35 54.97 70.21 53.93L69.59 53.93C69.72 55 69.87 56.07 70.02 57.12Z" fill="#767676" fill-opacity="1.000000" fill-rule="nonzero"/>
		<path id="Vector" d="M67.45 57.04C67.49 57.17 67.61 57.26 67.74 57.26C67.77 57.26 67.8 57.26 67.84 57.24C68 57.19 68.09 57.01 68.04 56.85L67.16 53.93L66.51 53.93L67.45 57.04Z" fill="#767676" fill-opacity="1.000000" fill-rule="nonzero"/>
		<path id="Vector" d="M62.46 39.72C62.49 39.72 62.52 39.72 62.55 39.71C62.71 39.65 62.81 39.48 62.76 39.31L61.38 34.75C61.33 34.58 61.16 34.49 60.99 34.54C60.83 34.59 60.74 34.76 60.79 34.93L62.16 39.5C62.2 39.63 62.33 39.72 62.46 39.72Z" fill="#767676" fill-opacity="1.000000" fill-rule="nonzero"/>
		<path id="Vector" d="M64.02 57.23C64.08 57.33 64.19 57.39 64.3 57.39C64.35 57.39 64.4 57.38 64.45 57.35C64.6 57.27 64.65 57.07 64.57 56.92C64.02 55.91 63.48 54.92 62.93 53.93L62.22 53.93C62.82 55.02 63.42 56.12 64.02 57.23Z" fill="#767676" fill-opacity="1.000000" fill-rule="nonzero"/>
		<path id="Vector" d="M57.64 44.46C56.28 42.06 54.95 39.74 53.65 37.5C53.56 37.35 53.37 37.3 53.22 37.39C53.08 37.48 53.02 37.68 53.11 37.83C54.57 40.32 56.06 42.92 57.58 45.62L57.58 45.22C57.58 44.96 57.61 44.71 57.64 44.46Z" fill="#767676" fill-opacity="1.000000" fill-rule="nonzero"/>
		<path id="Vector" d="M48.71 50.21C48.6 50.35 48.61 50.54 48.74 50.66L56.37 57.34C56.43 57.39 56.5 57.41 56.57 57.41C56.66 57.41 56.74 57.38 56.81 57.3C56.92 57.17 56.9 56.97 56.77 56.86L49.15 50.18C49.02 50.06 48.82 50.08 48.71 50.21Z" fill="#767676" fill-opacity="1.000000" fill-rule="nonzero"/>
		<path id="Vector" d="M43.06 44.42C42.93 44.3 42.74 44.3 42.62 44.43C42.5 44.56 42.51 44.76 42.63 44.88L46.59 48.68C46.65 48.74 46.73 48.76 46.8 48.76C46.89 48.76 46.97 48.73 47.03 48.66C47.15 48.54 47.14 48.33 47.02 48.21L43.06 44.42Z" fill="#767676" fill-opacity="1.000000" fill-rule="nonzero"/>
		<path id="Vector" d="M37.2 54.75C37.04 54.68 36.85 54.75 36.79 54.92C36.72 55.08 36.79 55.26 36.95 55.33L41.66 57.43C41.7 57.45 41.75 57.45 41.79 57.45C41.91 57.45 42.02 57.38 42.07 57.26C42.14 57.1 42.07 56.91 41.91 56.84L37.2 54.75Z" fill="#767676" fill-opacity="1.000000" fill-rule="nonzero"/>
		<path id="Vector" d="M72.65 57.07C72.63 57.25 72.74 57.41 72.92 57.43C72.93 57.43 72.95 57.43 72.96 57.43C73.11 57.43 73.24 57.32 73.27 57.16C73.42 56.09 73.53 55.01 73.64 53.93L73.01 53.93C72.91 54.98 72.8 56.03 72.65 57.07Z" fill="#767676" fill-opacity="1.000000" fill-rule="nonzero"/>
		<path id="Vector" d="M75.15 33.44C74.99 33.42 74.83 33.55 74.81 33.72L74.42 38.04C74.4 38.22 74.53 38.37 74.7 38.39C74.71 38.39 74.72 38.39 74.73 38.39C74.89 38.39 75.02 38.27 75.04 38.1L75.43 33.78C75.45 33.61 75.32 33.45 75.15 33.44Z" fill="#767676" fill-opacity="1.000000" fill-rule="nonzero"/>
		<path id="Vector" d="M48.24 40.42L47.94 40.03C47.83 39.9 47.64 39.88 47.5 39.99C47.37 40.1 47.35 40.29 47.45 40.43L47.76 40.82C48.25 41.44 48.76 42.09 49.27 42.71C49.33 42.78 49.42 42.82 49.51 42.82C49.58 42.82 49.65 42.8 49.71 42.75C49.84 42.63 49.86 42.43 49.75 42.3C49.24 41.69 48.73 41.04 48.24 40.42Z" fill="#767676" fill-opacity="1.000000" fill-rule="nonzero"/>
		<path id="Vector" d="M60.93 57.31C60.99 57.39 61.08 57.43 61.17 57.43C61.24 57.43 61.31 57.4 61.37 57.35C61.5 57.24 61.52 57.04 61.41 56.91C58.95 53.92 56.47 50.78 54.07 47.74L52.65 45.94C52.54 45.8 52.34 45.78 52.21 45.89C52.07 46 52.05 46.2 52.16 46.33L53.59 48.14C55.99 51.17 58.46 54.32 60.93 57.31Z" fill="#767676" fill-opacity="1.000000" fill-rule="nonzero"/>
		<path id="Vector" d="M44.15 52.78C44.06 52.93 44.1 53.13 44.25 53.22L50.79 57.39C50.84 57.43 50.9 57.44 50.95 57.44C51.06 57.44 51.16 57.39 51.21 57.29C51.3 57.14 51.26 56.95 51.12 56.86L44.58 52.68C44.43 52.59 44.24 52.63 44.15 52.78Z" fill="#767676" fill-opacity="1.000000" fill-rule="nonzero"/>
		<path id="Vector" d="M11.4 66.5C11.46 66.25 11.73 65.88 12.31 65.59C12.95 65.19 13.87 64.97 14.87 64.97C15.11 64.97 15.36 64.98 15.6 65.01C17.45 65.18 18.78 66.05 19.21 66.78L19.27 66.85L23.46 64.03L23.44 64C22.01 61.75 19.26 60.22 16.08 59.91C15.69 59.88 15.29 59.85 14.9 59.85C13.09 59.85 11.36 60.28 9.92 61.08C7.89 62.19 6.61 64.01 6.4 66.07C6.01 70.22 9.34 73.38 14.68 73.93C16.2 74.08 17.31 74.45 17.98 75.03C18.46 75.52 18.46 75.99 18.43 76.19C18.41 76.5 18.05 76.91 17.54 77.18C16.86 77.56 15.95 77.76 14.99 77.76C14.74 77.76 14.49 77.75 14.25 77.73C12.43 77.56 11.09 76.69 10.6 75.94L10.57 75.89L6.37 78.67L6.42 78.73C7.84 80.98 10.6 82.51 13.78 82.82C14.15 82.85 14.54 82.88 14.96 82.88C16.73 82.88 18.49 82.46 19.9 81.69C21.96 80.53 23.25 78.71 23.42 76.7C23.81 72.44 20.57 69.35 15.17 68.83C13.81 68.68 11.27 68.01 11.39 66.55L11.39 66.52L11.4 66.5ZM10.67 69.36C11.68 70.19 13.17 70.72 14.99 70.9C18.3 71.23 21.73 72.87 21.39 76.47C21.27 77.79 20.4 78.99 18.96 79.83C17.85 80.44 16.43 80.78 14.96 80.78C14.62 80.78 14.3 80.78 13.97 80.75C12.43 80.58 10.99 80.08 9.92 79.34L9.55 79.09L10.36 78.53L10.53 78.64C11.48 79.26 12.74 79.67 14.07 79.79C14.34 79.82 14.64 79.85 14.96 79.85C16.25 79.85 17.52 79.55 18.52 79.01C19.7 78.31 20.39 77.4 20.49 76.38C20.58 75.36 20.17 74.32 19.39 73.51C18.43 72.59 16.95 72.04 14.87 71.83C12.47 71.6 10.47 70.71 9.38 69.37C8.66 68.49 8.36 67.45 8.46 66.27C8.56 64.94 9.45 63.73 10.9 62.94C12 62.29 13.39 61.95 14.9 61.95C15.24 61.95 15.57 61.95 15.89 61.98C17.4 62.15 18.84 62.65 19.94 63.39L20.34 63.66L19.47 64.19L19.31 64.09C18.35 63.48 17.1 63.06 15.8 62.91C15.5 62.88 15.21 62.88 14.9 62.88C13.5 62.88 12.27 63.18 11.33 63.76C10.15 64.38 9.45 65.3 9.37 66.35C9.25 67.51 9.7 68.55 10.67 69.36Z" fill="#767676" fill-opacity="1.000000" fill-rule="nonzero"/>
		<path id="Vector" d="M31.61 82.88L36.75 82.88L36.75 65.13L42.3 65.13L42.3 59.85L26.08 59.85L26.08 65.13L31.61 65.13L31.61 82.88L31.61 82.88ZM28.17 62.97L28.17 62.05L40.19 62.05L40.19 62.97L34.63 62.97L34.63 80.72L33.73 80.72L33.73 62.97L28.17 62.97Z" fill="#767676" fill-opacity="1.000000" fill-rule="nonzero"/>
		<path id="Vector" d="M48.5 75.98L57.35 75.98L53.11 64.03L48.5 75.98ZM50.49 74.57L53.07 67.95L55.4 74.57L50.49 74.57Z" fill="#767676" fill-opacity="1.000000" fill-rule="nonzero"/>
		<path id="Vector" d="M54.82 59.85L51.47 59.85L42.61 82.88L48.11 82.88L49.59 79.06L56.23 79.06L57.56 82.88L63.03 82.88L54.82 59.85ZM57.69 76.9L48.14 76.9L46.66 80.72L45.68 80.72L52.92 61.98L53.36 61.98L60.02 80.72L59.05 80.72L57.69 76.9Z" fill="#767676" fill-opacity="1.000000" fill-rule="nonzero"/>
		<path id="Vector" d="M73.5 82.88L73.5 65.13L79.05 65.13L79.05 59.85L62.83 59.85L62.83 65.13L68.35 65.13L68.35 82.88L73.5 82.88ZM64.92 62.97L64.92 62.05L76.93 62.05L76.93 62.97L71.38 62.97L71.38 80.72L70.47 80.72L70.47 62.97L64.92 62.97Z" fill="#767676" fill-opacity="1.000000" fill-rule="nonzero"/>
		<path id="Vector" d="M81.99 82.88L87.1 82.88L87.1 59.85L81.99 59.85L81.99 82.88ZM84.08 61.98L85.01 61.98L85.01 80.75L84.08 80.75L84.08 61.98Z" fill="#767676" fill-opacity="1.000000" fill-rule="nonzero"/>
		<path id="Vector" d="M112.49 71.33C112.49 64.98 107.42 59.82 101.19 59.82C94.98 59.82 89.92 64.98 89.92 71.33C89.92 77.7 94.98 82.88 101.19 82.88C107.42 82.88 112.49 77.7 112.49 71.33ZM92.01 71.33C92.01 66.16 96.13 61.95 101.19 61.95C106.27 61.95 110.41 66.16 110.41 71.33C110.41 76.52 106.27 80.75 101.19 80.75C96.13 80.75 92.01 76.52 92.01 71.33Z" fill="#767676" fill-opacity="1.000000" fill-rule="nonzero"/>
		<path id="Vector" d="M109.53 71.33C109.53 66.65 105.79 62.84 101.19 62.84C96.61 62.84 92.88 66.65 92.88 71.33C92.88 76.03 96.61 79.85 101.19 79.85C105.79 79.85 109.53 76.03 109.53 71.33ZM101.19 78.48C97.35 78.48 94.23 75.27 94.23 71.33C94.23 67.41 97.35 64.22 101.19 64.22C105.05 64.22 108.18 67.41 108.18 71.33C108.18 75.27 105.05 78.48 101.19 78.48Z" fill="#767676" fill-opacity="1.000000" fill-rule="nonzero"/>
		<path id="Vector" d="M129.47 59.82L129.47 72.37L120.23 59.82L115.96 59.82L115.96 82.88L121.1 82.88L121.1 69.76L130.8 82.88L134.64 82.88L134.64 59.82L129.47 59.82ZM132.5 80.69L131.83 80.69L119.02 63.33L119.02 80.69L118.08 80.69L118.08 61.98L119.18 61.98L131.59 78.81L131.59 61.98L132.5 61.98L132.5 80.69L132.5 80.69Z" fill="#767676" fill-opacity="1.000000" fill-rule="nonzero"/>
		<path id="Vector" d="M33.86 89.41L33.65 88.97C33.61 88.88 33.51 88.85 33.42 88.89L31.96 89.61L31.62 88.89L33.08 88.17C33.17 88.12 33.2 88.02 33.16 87.93L32.96 87.49C32.91 87.41 32.82 87.37 32.73 87.41L28.73 89.38C28.64 89.42 28.61 89.53 28.65 89.61L28.85 90.05C28.9 90.14 28.99 90.18 29.08 90.14L30.92 89.23L31.26 89.96L29.42 90.86C29.34 90.9 29.3 91 29.34 91.09L29.55 91.53C29.59 91.61 29.69 91.66 29.77 91.61L33.78 89.64C33.86 89.6 33.89 89.49 33.86 89.41Z" fill="#767676" fill-opacity="1.000000" fill-rule="nonzero"/>
		<path id="Vector" d="M34.65 90.9L34.42 90.47C34.37 90.38 34.26 90.36 34.18 90.4L30.31 92.61C30.22 92.66 30.19 92.76 30.24 92.85L30.47 93.28C30.52 93.36 30.62 93.39 30.71 93.34L34.58 91.14C34.66 91.09 34.7 90.98 34.65 90.9Z" fill="#767676" fill-opacity="1.000000" fill-rule="nonzero"/>
		<path id="Vector" d="M34.79 94.98C34.87 94.93 34.9 94.82 34.84 94.74L34.33 93.92C34.28 93.84 34.18 93.82 34.1 93.87L33.74 94.1C33.66 94.16 33.63 94.27 33.69 94.35L33.84 94.6L32.79 95.29C32.71 95.34 32.61 95.31 32.56 95.23L32.28 94.79C32.23 94.71 32.25 94.6 32.33 94.55L34.75 92.97C34.82 92.92 34.94 92.95 34.99 93.02L35.26 93.46C35.31 93.55 35.29 93.66 35.21 93.71L34.98 93.86C34.9 93.91 34.88 94.02 34.93 94.1L35.19 94.51C35.24 94.6 35.34 94.62 35.43 94.57L35.72 94.37C36.13 94.11 36.24 93.55 35.98 93.14L35.58 92.49C35.32 92.07 34.78 91.95 34.37 92.22L31.82 93.89C31.41 94.15 31.29 94.71 31.55 95.12L31.95 95.77C32.21 96.18 32.76 96.3 33.16 96.04L34.79 94.98Z" fill="#767676" fill-opacity="1.000000" fill-rule="nonzero"/>
		<path id="Vector" d="M38.23 96.34L37.94 95.95C37.88 95.87 37.78 95.86 37.7 95.92L36.4 96.92L35.93 96.28L37.23 95.27C37.3 95.22 37.32 95.11 37.26 95.03L36.97 94.64C36.92 94.56 36.81 94.55 36.73 94.61L33.19 97.34C33.11 97.4 33.1 97.5 33.16 97.58L33.44 97.97C33.5 98.05 33.6 98.07 33.68 98.01L35.31 96.75L35.78 97.39L34.15 98.65C34.08 98.71 34.06 98.82 34.12 98.9L34.41 99.29C34.46 99.36 34.57 99.38 34.65 99.32L38.19 96.59C38.27 96.53 38.28 96.41 38.23 96.34Z" fill="#767676" fill-opacity="1.000000" fill-rule="nonzero"/>
		<path id="Vector" d="M39.4 102.72L41.08 101.04C41.47 100.66 41.48 100.04 41.11 99.65L40.71 99.22C40.33 98.83 39.72 98.82 39.34 99.2L37.29 101.24C36.91 101.62 36.9 102.24 37.27 102.63L38.21 103.62C38.28 103.69 38.39 103.69 38.46 103.63L38.78 103.31C38.85 103.24 38.85 103.13 38.79 103.07L38.6 102.87C38.86 102.98 39.18 102.93 39.4 102.72ZM38.34 102.6L37.86 102.1C37.8 102.03 37.8 101.91 37.86 101.85L39.91 99.81C39.98 99.74 40.1 99.74 40.16 99.81L40.52 100.18C40.58 100.25 40.58 100.37 40.51 100.44L38.34 102.6Z" fill="#767676" fill-opacity="1.000000" fill-rule="nonzero"/>
		<path id="Vector" d="M44.1 102.48L43.74 102.16C43.67 102.1 43.56 102.11 43.5 102.18L41.09 104.98C41.03 105.06 40.92 105.06 40.85 104.99L40.47 104.65C40.39 104.59 40.38 104.47 40.45 104.4L42.85 101.6C42.91 101.53 42.91 101.42 42.84 101.35L42.48 101.03C42.41 100.97 42.3 100.98 42.24 101.05L39.78 103.91C39.46 104.28 39.49 104.85 39.86 105.17L40.42 105.68C40.78 106.01 41.34 105.97 41.66 105.6L44.12 102.74C44.17 102.66 44.17 102.55 44.1 102.48Z" fill="#767676" fill-opacity="1.000000" fill-rule="nonzero"/>
		<path id="Vector" d="M46.18 104.13L45.36 103.5C45.29 103.44 45.19 103.45 45.12 103.51L42.39 106.23C42.36 106.26 42.35 106.28 42.33 106.3L41.97 106.79C41.91 106.87 41.93 106.98 42 107.04L42.38 107.33C42.46 107.39 42.57 107.37 42.62 107.29L43 106.79L43.73 107.35L43.35 107.86C43.3 107.94 43.31 108.04 43.38 108.1L43.77 108.39C43.85 108.45 43.96 108.44 44.01 108.36L44.37 107.87C44.39 107.85 44.4 107.83 44.42 107.79L46.22 104.36C46.26 104.29 46.25 104.18 46.18 104.13ZM44.12 106.66L43.54 106.21L45.28 104.47L44.12 106.66Z" fill="#767676" fill-opacity="1.000000" fill-rule="nonzero"/>
		<path id="Vector" d="M46.65 109.39L45.85 108.86L47.94 105.57C47.99 105.49 47.97 105.39 47.89 105.33L47.49 105.07C47.41 105.02 47.3 105.04 47.25 105.12L44.83 108.93C44.78 109.01 44.8 109.11 44.88 109.17L46.23 110.06C46.31 110.11 46.41 110.09 46.46 110.01L46.7 109.63C46.75 109.55 46.73 109.44 46.65 109.39Z" fill="#767676" fill-opacity="1.000000" fill-rule="nonzero"/>
		<path id="Vector" d="M50.13 106.74L49.72 106.5C49.64 106.45 49.53 106.48 49.48 106.57L47.26 110.49C47.22 110.57 47.24 110.68 47.33 110.73L47.74 110.97C47.82 111.02 47.92 110.99 47.97 110.91L50.19 106.99C50.24 106.9 50.21 106.79 50.13 106.74Z" fill="#767676" fill-opacity="1.000000" fill-rule="nonzero"/>
		<path id="Vector" d="M52.67 108.83L52.87 108.42C52.91 108.33 52.88 108.23 52.8 108.18L51.02 107.26C50.94 107.22 50.84 107.26 50.79 107.34L50.59 107.75C50.55 107.84 50.58 107.94 50.67 107.99L51.18 108.25L49.46 111.73C49.41 111.82 49.45 111.93 49.53 111.97L49.96 112.19C50.04 112.23 50.14 112.2 50.19 112.11L51.92 108.63L52.44 108.9C52.52 108.94 52.63 108.91 52.67 108.83Z" fill="#767676" fill-opacity="1.000000" fill-rule="nonzero"/>
		<path id="Vector" d="M55.49 110.32L55.76 109.68C55.79 109.59 55.75 109.49 55.66 109.45L55.22 109.26C55.13 109.22 55.04 109.26 55 109.36L54.8 109.84C54.78 109.9 54.75 109.94 54.71 109.98L53.9 110.71L53.84 109.61C53.83 109.55 53.84 109.49 53.86 109.44L54.06 108.95C54.1 108.86 54.06 108.76 53.97 108.72L53.53 108.53C53.44 108.5 53.34 108.54 53.3 108.63L53.04 109.26C53.01 109.33 53 109.41 53 109.49L53.11 111.52L52.43 113.18C52.39 113.27 52.43 113.37 52.52 113.41L52.96 113.6C53.05 113.63 53.15 113.59 53.18 113.5L53.87 111.84L55.36 110.5C55.42 110.45 55.46 110.39 55.49 110.32Z" fill="#767676" fill-opacity="1.000000" fill-rule="nonzero"/>
		<path id="Vector" d="M55.69 113.79L55.26 113.63C55.17 113.6 55.07 113.64 55.04 113.73L54.89 114.18C54.85 114.27 54.9 114.36 54.99 114.4L55.12 114.44L54.98 114.57C54.95 114.6 54.93 114.63 54.91 114.67L54.87 114.8C54.85 114.85 54.88 114.91 54.93 114.93L55.15 115.01C55.19 115.02 55.25 115 55.27 114.94L55.28 114.91C55.3 114.87 55.33 114.85 55.34 114.84L55.53 114.64C55.56 114.61 55.58 114.58 55.59 114.55L55.78 114C55.81 113.9 55.76 113.82 55.69 113.79Z" fill="#767676" fill-opacity="1.000000" fill-rule="nonzero"/>
		<path id="Vector" d="M60.46 115.21L59.53 114.97L60.46 111.17C60.48 111.08 60.43 110.98 60.33 110.96L59.87 110.84C59.78 110.82 59.69 110.88 59.66 110.97L58.59 115.38C58.57 115.47 58.62 115.56 58.72 115.59L60.27 115.99C60.37 116.01 60.46 115.95 60.48 115.86L60.59 115.42C60.61 115.33 60.55 115.23 60.46 115.21Z" fill="#767676" fill-opacity="1.000000" fill-rule="nonzero"/>
		<path id="Vector" d="M63.82 111.71L63.09 111.58C62.61 111.49 62.16 111.83 62.07 112.31L61.55 115.36C61.47 115.85 61.79 116.31 62.27 116.39L63 116.52C63.48 116.61 63.93 116.28 64.02 115.8L64.53 112.75C64.62 112.26 64.29 111.79 63.82 111.71ZM63.22 115.56C63.21 115.66 63.11 115.73 63.02 115.71L62.52 115.62C62.42 115.61 62.36 115.51 62.37 115.41L62.86 112.52C62.88 112.43 62.97 112.37 63.07 112.39L63.57 112.48C63.66 112.49 63.73 112.58 63.71 112.67L63.22 115.56Z" fill="#767676" fill-opacity="1.000000" fill-rule="nonzero"/>
		<path id="Vector" d="M68.79 112.26L68.19 112.21C68.13 112.2 68.07 112.25 68.07 112.31L68.02 112.91C68.02 112.96 68.02 112.99 68.01 113.05L67.66 114.8L67.47 112.25C67.46 112.19 67.41 112.14 67.36 112.14L66.84 112.1C66.79 112.09 66.74 112.13 66.73 112.18L66.12 114.67L66.06 112.88C66.06 112.83 66.06 112.8 66.06 112.75L66.11 112.15C66.12 112.09 66.07 112.03 66.01 112.03L65.41 111.98C65.35 111.97 65.3 112.02 65.3 112.08L65.24 112.75C65.24 112.78 65.24 112.82 65.24 112.89L65.46 116.73C65.47 116.82 65.53 116.89 65.62 116.9L66.16 116.94C66.24 116.95 66.32 116.9 66.33 116.8L66.96 113.95L67.12 116.87C67.13 116.96 67.19 117.03 67.28 117.04L67.8 117.08C67.89 117.09 67.96 117.04 67.98 116.95L68.82 113.19C68.83 113.13 68.84 113.09 68.84 113.06L68.89 112.39C68.89 112.32 68.85 112.27 68.79 112.26Z" fill="#767676" fill-opacity="1.000000" fill-rule="nonzero"/>
		<path id="Vector" d="M72.71 112.2L71.54 112.26C71.44 112.27 71.37 112.35 71.37 112.44L71.59 116.98C71.6 117.08 71.68 117.15 71.77 117.14L72.25 117.12C72.35 117.11 72.42 117.03 72.41 116.93L72.31 114.91L72.84 114.88C73.43 114.85 73.9 114.32 73.87 113.71L73.85 113.26C73.82 112.65 73.3 112.17 72.71 112.2ZM72.8 114.04L72.27 114.06L72.22 113.03L72.75 113C72.9 113 73.02 113.12 73.03 113.27L73.05 113.75C73.06 113.9 72.95 114.03 72.8 114.04Z" fill="#767676" fill-opacity="1.000000" fill-rule="nonzero"/>
		<path id="Vector" d="M77.27 115.53L76.52 114.45C76.89 114.23 77.13 113.79 77.07 113.32L77.01 112.88C76.94 112.27 76.4 111.84 75.8 111.91L74.63 112.06C74.54 112.08 74.47 112.16 74.48 112.26L75.03 116.76C75.04 116.86 75.13 116.92 75.22 116.91L75.69 116.85C75.79 116.84 75.85 116.75 75.84 116.66L75.58 114.56L76.48 115.84C76.52 115.92 76.54 115.99 76.55 116.07L76.61 116.55C76.62 116.65 76.71 116.71 76.81 116.7L77.29 116.64C77.38 116.63 77.44 116.54 77.43 116.45L77.34 115.76C77.34 115.68 77.31 115.6 77.27 115.53ZM76.03 113.74L75.5 113.81L75.37 112.78L75.9 112.71C76.04 112.69 76.18 112.79 76.2 112.95L76.25 113.43C76.28 113.58 76.17 113.72 76.03 113.74Z" fill="#767676" fill-opacity="1.000000" fill-rule="nonzero"/>
		<path id="Vector" d="M78.22 111.52L77.75 111.61C77.65 111.63 77.59 111.72 77.61 111.82L78.41 116.28C78.43 116.38 78.52 116.44 78.61 116.42L79.08 116.33C79.18 116.31 79.24 116.22 79.22 116.13L78.42 111.67C78.4 111.57 78.31 111.5 78.22 111.52Z" fill="#767676" fill-opacity="1.000000" fill-rule="nonzero"/>
		<path id="Vector" d="M82.23 113.47C82.2 113.37 82.11 113.31 82.02 113.33L81.55 113.45C81.46 113.47 81.41 113.57 81.43 113.67L81.69 114.73C81.71 114.83 81.65 114.92 81.56 114.94L81.06 115.07C80.97 115.09 80.87 115.04 80.85 114.94L80.17 112.1C80.14 112 80.21 111.91 80.3 111.88L80.8 111.76C80.88 111.74 80.98 111.79 81 111.89L81.16 112.56C81.19 112.65 81.28 112.72 81.37 112.69L81.84 112.58C81.93 112.55 81.98 112.45 81.96 112.36L81.78 111.61C81.66 111.13 81.19 110.84 80.72 110.96L79.99 111.14C79.52 111.26 79.24 111.74 79.35 112.22L80.07 115.23C80.18 115.71 80.66 116.01 81.13 115.89L81.86 115.71C82.33 115.59 82.62 115.1 82.5 114.63L82.23 113.47Z" fill="#767676" fill-opacity="1.000000" fill-rule="nonzero"/>
		<path id="Vector" d="M85.42 113.98C85.39 113.89 85.29 113.83 85.2 113.86L84.3 114.16L83.86 112.76L84.43 112.57C84.52 112.54 84.57 112.44 84.54 112.35L84.41 111.94C84.38 111.85 84.29 111.79 84.2 111.82L83.62 112.01L83.31 111.02L84.22 110.72C84.31 110.69 84.36 110.6 84.33 110.5L84.19 110.08C84.16 109.99 84.07 109.94 83.98 109.97L82.45 110.47C82.36 110.5 82.31 110.59 82.34 110.69L83.7 115.01C83.73 115.1 83.82 115.15 83.91 115.12L85.44 114.62C85.53 114.59 85.58 114.49 85.55 114.4L85.42 113.98Z" fill="#767676" fill-opacity="1.000000" fill-rule="nonzero"/>
		<path id="Vector" d="M87.27 113.98C87.27 113.95 87.27 113.91 87.26 113.88L87.05 113.33C87.02 113.24 86.93 113.2 86.86 113.23L86.43 113.4C86.34 113.43 86.29 113.53 86.33 113.62L86.49 114.06C86.52 114.15 86.62 114.19 86.71 114.16L86.83 114.11L86.81 114.3C86.81 114.34 86.81 114.38 86.82 114.42L86.87 114.54C86.89 114.59 86.95 114.62 86.99 114.61L87.21 114.52C87.26 114.5 87.28 114.44 87.27 114.39L87.25 114.36C87.24 114.32 87.25 114.28 87.25 114.27L87.27 113.98Z" fill="#767676" fill-opacity="1.000000" fill-rule="nonzero"/>
		<path id="Vector" d="M91.6 109.77C91.47 109.51 91.25 109.33 91 109.23C91.03 109.02 90.99 108.8 90.89 108.6L90.69 108.19C90.42 107.64 89.77 107.42 89.23 107.69L88.17 108.24C88.08 108.28 88.05 108.39 88.09 108.48L90.09 112.53C90.13 112.62 90.24 112.65 90.32 112.61L91.48 112.01C92.02 111.74 92.23 111.06 91.96 110.51L91.6 109.77ZM89.1 108.66L89.58 108.41C89.71 108.34 89.88 108.4 89.95 108.53L90.16 108.97C90.22 109.1 90.17 109.26 90.04 109.33L89.56 109.58L89.1 108.66ZM91.12 111.28L90.54 111.58L89.9 110.29L90.48 109.99C90.61 109.92 90.78 109.98 90.85 110.11L91.23 110.9C91.31 111.05 91.25 111.22 91.12 111.28Z" fill="#767676" fill-opacity="1.000000" fill-rule="nonzero"/>
		<path id="Vector" d="M94.76 109.4C94.71 109.32 94.6 109.29 94.52 109.34L93.71 109.84L92.97 108.57L93.49 108.26C93.57 108.21 93.59 108.1 93.55 108.02L93.33 107.65C93.28 107.57 93.18 107.54 93.09 107.59L92.58 107.9L92.05 107.01L92.87 106.51C92.95 106.46 92.98 106.36 92.93 106.27L92.71 105.89C92.66 105.81 92.55 105.78 92.47 105.83L91.09 106.67C91.01 106.72 90.99 106.83 91.03 106.91L93.32 110.8C93.36 110.89 93.47 110.91 93.55 110.87L94.93 110.02C95.01 109.97 95.03 109.87 94.99 109.78L94.76 109.4Z" fill="#767676" fill-opacity="1.000000" fill-rule="nonzero"/>
		<path id="Vector" d="M96.86 106.3C96.51 105.79 95.84 105.67 95.34 106.02L95.08 106.2C94.96 106.29 94.79 106.26 94.7 106.14L94.47 105.79C94.38 105.66 94.41 105.49 94.54 105.41L94.79 105.22C94.92 105.13 95.08 105.16 95.17 105.29L95.25 105.41C95.31 105.49 95.41 105.5 95.49 105.45L95.89 105.17C95.96 105.11 95.98 105.01 95.93 104.92L95.86 104.83C95.52 104.32 94.84 104.2 94.34 104.55L94.08 104.73C93.59 105.09 93.47 105.79 93.81 106.29L94.04 106.62C94.38 107.12 95.06 107.23 95.56 106.88L95.81 106.7C95.94 106.61 96.1 106.64 96.19 106.77L96.7 107.51C96.79 107.63 96.76 107.81 96.63 107.9L96.38 108.08C96.25 108.17 96.08 108.14 96 108.01L95.66 107.51C95.6 107.43 95.5 107.42 95.42 107.47L95.02 107.75C94.95 107.81 94.93 107.91 94.98 108L95.31 108.46C95.65 108.97 96.34 109.09 96.83 108.74L97.08 108.56C97.58 108.2 97.7 107.5 97.35 107L96.86 106.3Z" fill="#767676" fill-opacity="1.000000" fill-rule="nonzero"/>
		<path id="Vector" d="M97.4 103.17L97.85 102.79C97.92 102.74 97.93 102.62 97.87 102.55L97.59 102.19C97.53 102.12 97.42 102.11 97.35 102.17L95.81 103.45C95.74 103.51 95.73 103.62 95.79 103.7L96.07 104.05C96.13 104.13 96.24 104.14 96.31 104.08L96.76 103.7L99.17 106.72C99.23 106.8 99.34 106.81 99.41 106.75L99.78 106.44C99.86 106.38 99.86 106.27 99.8 106.19L97.4 103.17Z" fill="#767676" fill-opacity="1.000000" fill-rule="nonzero"/>
		<path id="Vector" d="M102.98 100.51C102.91 100.44 102.8 100.44 102.73 100.51L102.4 100.86C102.33 100.93 102.34 101.04 102.41 101.11L103.18 101.87C103.25 101.94 103.24 102.06 103.18 102.12L102.83 102.5C102.76 102.57 102.65 102.57 102.58 102.5L100.52 100.46C100.45 100.4 100.45 100.28 100.52 100.21L100.87 99.84C100.94 99.77 101.05 99.76 101.12 99.83L101.6 100.31C101.67 100.38 101.78 100.38 101.85 100.31L102.18 99.96C102.25 99.89 102.24 99.78 102.17 99.71L101.63 99.18C101.28 98.83 100.73 98.84 100.39 99.2L99.87 99.75C99.53 100.11 99.54 100.67 99.89 101.02L102.07 103.17C102.41 103.51 102.97 103.5 103.31 103.15L103.83 102.6C104.17 102.24 104.15 101.68 103.81 101.33L102.98 100.51Z" fill="#767676" fill-opacity="1.000000" fill-rule="nonzero"/>
		<path id="Vector" d="M103.16 96.21C103.09 96.14 102.98 96.16 102.92 96.23L102.62 96.61C102.56 96.68 102.56 96.79 102.64 96.85L103.89 97.91L103.39 98.53L102.14 97.47C102.06 97.41 101.96 97.42 101.9 97.5L101.59 97.87C101.53 97.95 101.54 98.05 101.61 98.12L105.03 101.01C105.11 101.07 105.21 101.06 105.28 100.98L105.58 100.61C105.64 100.53 105.63 100.42 105.56 100.36L103.99 99.03L104.49 98.41L106.06 99.75C106.13 99.81 106.24 99.8 106.3 99.72L106.6 99.35C106.66 99.28 106.66 99.16 106.58 99.1L103.16 96.21Z" fill="#767676" fill-opacity="1.000000" fill-rule="nonzero"/>
		<path id="Vector" d="M108.14 95.64L105.65 93.89C105.25 93.61 104.7 93.71 104.43 94.12L104 94.75C103.73 95.16 103.83 95.71 104.23 96L106.72 97.75C107.13 98.03 107.67 97.93 107.94 97.52L108.37 96.89C108.64 96.48 108.55 95.92 108.14 95.64ZM107.65 96.53L107.36 96.96C107.31 97.04 107.2 97.06 107.12 97L104.75 95.34C104.67 95.29 104.66 95.18 104.72 95.1L105 94.67C105.06 94.59 105.16 94.56 105.24 94.62L107.6 96.28C107.69 96.34 107.71 96.45 107.65 96.53Z" fill="#767676" fill-opacity="1.000000" fill-rule="nonzero"/>
		<path id="Vector" d="M109.75 94.4L105.98 92.02C105.9 91.97 105.79 91.99 105.74 92.07L105.48 92.48C105.43 92.57 105.46 92.68 105.54 92.73L109.31 95.11C109.39 95.17 109.5 95.14 109.55 95.06L109.8 94.64C109.86 94.56 109.83 94.45 109.75 94.4Z" fill="#767676" fill-opacity="1.000000" fill-rule="nonzero"/>
		<path id="Vector" d="M110.87 90.9L109.84 90.33C109.76 90.29 109.65 90.32 109.61 90.4L109.38 90.83C109.34 90.92 109.37 91.03 109.46 91.07L110.4 91.59C110.48 91.64 110.51 91.75 110.47 91.83L110.23 92.29C110.18 92.38 110.08 92.41 109.99 92.37L107.47 90.97C107.38 90.92 107.36 90.81 107.4 90.73L107.65 90.27C107.69 90.19 107.79 90.15 107.88 90.2L108.47 90.53C108.56 90.57 108.66 90.55 108.71 90.46L108.94 90.03C108.98 89.94 108.94 89.84 108.86 89.79L108.2 89.42C107.77 89.19 107.25 89.35 107.02 89.78L106.66 90.46C106.43 90.89 106.58 91.43 107.01 91.67L109.68 93.14C110.1 93.37 110.64 93.21 110.86 92.78L111.22 92.11C111.45 91.67 111.29 91.13 110.87 90.9Z" fill="#767676" fill-opacity="1.000000" fill-rule="nonzero"/>
		<path id="Vector" d="M112.75 88.45L112.35 88.27C112.26 88.23 112.17 88.26 112.12 88.35L111.73 89.24L110.42 88.63L110.67 88.07C110.71 87.98 110.67 87.88 110.58 87.84L110.2 87.66C110.11 87.62 110.01 87.66 109.97 87.74L109.72 88.3L108.8 87.88L109.19 86.99C109.23 86.9 109.19 86.8 109.1 86.76L108.7 86.58C108.62 86.54 108.52 86.57 108.48 86.66L107.82 88.16C107.78 88.25 107.81 88.35 107.9 88.39L111.94 90.26C112.03 90.3 112.13 90.26 112.17 90.17L112.83 88.68C112.87 88.59 112.84 88.49 112.75 88.45Z" fill="#767676" fill-opacity="1.000000" fill-rule="nonzero"/>
		<path id="Vector" d="M28.85 49.88L32.79 51.96C32.88 52 32.98 51.97 33.02 51.88L33.24 51.45C33.29 51.36 33.25 51.26 33.17 51.21L31.4 50.28L31.64 49.81C31.91 49.27 31.7 48.59 31.16 48.31L30.78 48.1C30.24 47.82 29.58 48.04 29.31 48.58L28.77 49.65C28.73 49.73 28.76 49.84 28.85 49.88ZM30.01 48.94C30.08 48.81 30.24 48.76 30.37 48.83L30.79 49.05C30.92 49.12 30.97 49.28 30.91 49.42L30.67 49.89L29.77 49.42L30.01 48.94Z" fill="#767676" fill-opacity="1.000000" fill-rule="nonzero"/>
		<path id="Vector" d="M30.65 46.44L34.42 48.84C34.5 48.89 34.61 48.86 34.65 48.79L34.91 48.37C34.96 48.29 34.93 48.18 34.85 48.13L33.1 47.01L34.63 47.11C34.72 47.12 34.79 47.15 34.85 47.19L35.26 47.45C35.34 47.5 35.45 47.47 35.5 47.39L35.75 46.97C35.8 46.89 35.78 46.79 35.7 46.74L35.12 46.37C35.05 46.33 34.98 46.3 34.9 46.29L33.6 46.2C33.67 45.77 33.49 45.31 33.1 45.06L32.73 44.82C32.22 44.5 31.55 44.65 31.23 45.17L30.6 46.19C30.55 46.27 30.57 46.38 30.65 46.44ZM31.89 45.6C31.97 45.47 32.13 45.43 32.26 45.51L32.66 45.76C32.79 45.85 32.83 46.02 32.75 46.15L32.47 46.61L31.61 46.06L31.89 45.6Z" fill="#767676" fill-opacity="1.000000" fill-rule="nonzero"/>
		<path id="Vector" d="M36.3 45.86C36.38 45.92 36.48 45.9 36.54 45.83L37.49 44.51C37.55 44.43 37.53 44.32 37.46 44.26L37.1 44C37.02 43.94 36.92 43.95 36.86 44.03L36.3 44.81L35.14 43.94L35.5 43.45C35.55 43.37 35.54 43.26 35.46 43.2L35.12 42.94C35.04 42.89 34.94 42.9 34.88 42.98L34.53 43.48L33.71 42.86L34.27 42.08C34.32 42 34.31 41.89 34.23 41.83L33.88 41.57C33.8 41.51 33.7 41.52 33.64 41.6L32.69 42.92C32.63 43 32.65 43.11 32.73 43.17L36.3 45.86Z" fill="#767676" fill-opacity="1.000000" fill-rule="nonzero"/>
		<path id="Vector" d="M37.46 42.97C37.5 43.01 37.53 43.04 37.55 43.06L38.02 43.5C38.09 43.56 38.2 43.55 38.26 43.48L38.58 43.11C38.64 43.04 38.64 42.93 38.56 42.87L38.17 42.51C38.14 42.48 38.11 42.45 38.09 42.42L36.63 40.76L38.36 41.93C38.43 41.97 38.53 41.96 38.58 41.89L38.93 41.5C38.98 41.44 38.98 41.34 38.93 41.27L37.59 39.66L39.38 40.93C39.41 40.96 39.44 40.98 39.47 41.01L39.87 41.37C39.94 41.43 40.05 41.43 40.11 41.35L40.43 40.99C40.49 40.92 40.48 40.8 40.41 40.74L39.93 40.31C39.92 40.3 39.88 40.27 39.84 40.24L36.7 38.14C36.62 38.09 36.53 38.11 36.48 38.17L36.13 38.57C36.08 38.63 36.08 38.73 36.13 38.79L37.69 40.73L35.62 39.38C35.55 39.34 35.46 39.35 35.4 39.42L35.06 39.81C35 39.88 35 39.97 35.05 40.04L37.46 42.97Z" fill="#767676" fill-opacity="1.000000" fill-rule="nonzero"/>
		<path id="Vector" d="M41.16 40.01C41.23 40.08 41.34 40.09 41.4 40.02L41.75 39.68C41.82 39.61 41.82 39.5 41.75 39.43L38.67 36.18C38.6 36.11 38.49 36.1 38.42 36.17L38.08 36.51C38.01 36.57 38.01 36.69 38.08 36.76L41.16 40.01Z" fill="#767676" fill-opacity="1.000000" fill-rule="nonzero"/>
		<path id="Vector" d="M42.16 38.05C42.47 38.42 43.02 38.47 43.39 38.15L43.96 37.66C44.33 37.34 44.38 36.77 44.07 36.4L41.66 33.49C41.6 33.41 41.49 33.4 41.42 33.46L41.05 33.77C40.98 33.84 40.97 33.95 41.04 34.03L43.39 36.87C43.46 36.95 43.44 37.06 43.37 37.12L42.98 37.46C42.91 37.52 42.79 37.51 42.73 37.44L40.38 34.59C40.32 34.52 40.21 34.5 40.13 34.57L39.77 34.88C39.7 34.94 39.69 35.06 39.75 35.13L42.16 38.05Z" fill="#767676" fill-opacity="1.000000" fill-rule="nonzero"/>
		<path id="Vector" d="M44.88 35.66C44.91 35.71 44.93 35.75 44.95 35.77L45.3 36.3C45.36 36.38 45.46 36.41 45.54 36.35L45.93 36.07C46.01 36.02 46.03 35.91 45.98 35.83L45.68 35.38C45.65 35.35 45.63 35.32 45.62 35.28L44.59 33.31L46 34.87C46.06 34.93 46.15 34.94 46.22 34.89L46.65 34.58C46.72 34.54 46.74 34.45 46.7 34.37L45.78 32.47L47.22 34.15C47.24 34.18 47.26 34.21 47.29 34.24L47.59 34.69C47.64 34.77 47.75 34.79 47.83 34.74L48.22 34.46C48.29 34.41 48.32 34.3 48.26 34.22L47.89 33.69C47.88 33.67 47.85 33.63 47.82 33.59L45.26 30.79C45.21 30.73 45.11 30.72 45.04 30.77L44.61 31.07C44.55 31.12 44.52 31.21 44.56 31.29L45.62 33.55L43.93 31.74C43.87 31.68 43.78 31.66 43.71 31.72L43.28 32.01C43.21 32.06 43.19 32.16 43.22 32.23L44.88 35.66Z" fill="#767676" fill-opacity="1.000000" fill-rule="nonzero"/>
		<path id="Vector" d="M50.65 32C50.87 32.44 51.4 32.62 51.83 32.41L52.5 32.07C52.93 31.85 53.11 31.31 52.9 30.87L52.05 29.1C52.01 29.01 51.91 28.97 51.82 29.02L50.97 29.44C50.89 29.48 50.85 29.59 50.9 29.67L51.08 30.06C51.13 30.15 51.23 30.19 51.31 30.15L51.58 30.01L52.13 31.15C52.17 31.24 52.13 31.35 52.04 31.39L51.58 31.62C51.5 31.66 51.4 31.63 51.36 31.54L50.09 28.91C50.05 28.83 50.09 28.72 50.17 28.68L50.63 28.44C50.72 28.4 50.82 28.44 50.86 28.52L50.98 28.77C51.02 28.86 51.13 28.89 51.21 28.85L51.64 28.63C51.73 28.59 51.76 28.49 51.72 28.4L51.57 28.08C51.35 27.64 50.82 27.46 50.39 27.67L49.72 28.01C49.28 28.23 49.1 28.76 49.32 29.21L50.65 32Z" fill="#767676" fill-opacity="1.000000" fill-rule="nonzero"/>
		<path id="Vector" d="M53.83 30.46C53.84 30.51 53.85 30.52 53.86 30.55L54.08 31.12C54.11 31.21 54.21 31.25 54.3 31.22L54.74 31.04C54.83 31 54.87 30.91 54.84 30.81L54.61 30.22L55.46 29.88L55.69 30.47C55.73 30.56 55.82 30.61 55.91 30.57L56.36 30.39C56.45 30.36 56.49 30.26 56.45 30.17L56.24 29.6C56.23 29.57 56.22 29.55 56.2 29.51L54.28 26.14C54.24 26.07 54.15 26.03 54.06 26.06L53.11 26.44C53.03 26.48 52.98 26.56 53 26.65L53.83 30.46ZM55.09 29.19L54.42 29.46L53.88 27.03L55.09 29.19Z" fill="#767676" fill-opacity="1.000000" fill-rule="nonzero"/>
		<path id="Vector" d="M56.46 26.79C56.63 27.38 57.24 27.71 57.82 27.54L58.12 27.45C58.27 27.4 58.42 27.48 58.46 27.63L58.72 28.5C58.76 28.64 58.68 28.8 58.53 28.84L58.23 28.94C58.08 28.98 57.93 28.9 57.89 28.75L57.72 28.16C57.69 28.07 57.6 28.02 57.5 28.04L57.05 28.18C56.95 28.21 56.9 28.31 56.93 28.4L57.09 28.95C57.26 29.54 57.88 29.88 58.45 29.7L58.75 29.61C59.33 29.44 59.66 28.81 59.49 28.22L59.25 27.4C59.08 26.8 58.47 26.47 57.89 26.65L57.59 26.74C57.44 26.77 57.29 26.7 57.25 26.55L57.13 26.14C57.09 25.99 57.17 25.84 57.31 25.8L57.62 25.7C57.76 25.66 57.91 25.74 57.95 25.88L57.99 26.03C58.02 26.12 58.11 26.17 58.21 26.14L58.66 26C58.76 25.98 58.81 25.88 58.78 25.79L58.75 25.67C58.57 25.08 57.97 24.75 57.38 24.92L57.08 25.01C56.51 25.19 56.17 25.81 56.35 26.4L56.46 26.79Z" fill="#767676" fill-opacity="1.000000" fill-rule="nonzero"/>
		<path id="Vector" d="M60.67 28.15C60.76 28.64 61.22 28.95 61.7 28.85L62.43 28.69C62.9 28.59 63.21 28.12 63.11 27.64L62.5 24.61C62.4 24.13 61.94 23.81 61.47 23.91L60.73 24.06C60.26 24.16 59.95 24.64 60.05 25.13L60.67 28.15ZM61.01 24.82L61.51 24.72C61.6 24.7 61.7 24.75 61.71 24.85L62.29 27.72C62.31 27.82 62.25 27.92 62.16 27.93L61.66 28.04C61.57 28.06 61.47 27.99 61.45 27.9L60.87 25.03C60.85 24.93 60.92 24.85 61.01 24.82Z" fill="#767676" fill-opacity="1.000000" fill-rule="nonzero"/>
		<path id="Vector" d="M64.59 28.31L66.18 28.11C66.28 28.1 66.35 28.01 66.33 27.91L66.28 27.47C66.27 27.37 66.18 27.31 66.09 27.32L65.14 27.44L64.66 23.56C64.65 23.46 64.57 23.39 64.47 23.41L64 23.47C63.9 23.48 63.84 23.57 63.85 23.66L64.41 28.17C64.41 28.26 64.5 28.33 64.59 28.31Z" fill="#767676" fill-opacity="1.000000" fill-rule="nonzero"/>
		<path id="Vector" d="M67.56 27.99L68.04 27.96C68.13 27.95 68.2 27.87 68.2 27.77L67.9 23.25C67.9 23.16 67.82 23.08 67.72 23.09L67.24 23.12C67.15 23.13 67.08 23.21 67.08 23.31L67.38 27.83C67.38 27.93 67.46 28 67.56 27.99Z" fill="#767676" fill-opacity="1.000000" fill-rule="nonzero"/>
		<path id="Vector" d="M69.55 27.88L70 27.88C70.09 27.88 70.17 27.8 70.17 27.71L70.17 24.83L71.06 27.76C71.08 27.83 71.15 27.88 71.23 27.88L71.73 27.88C71.83 27.88 71.9 27.81 71.9 27.71L71.91 23.17C71.91 23.07 71.83 23 71.74 23L71.28 23C71.18 23 71.11 23.07 71.11 23.17L71.11 25.62L70.31 23.11C70.28 23.04 70.22 23 70.15 23L69.56 23C69.46 23 69.39 23.07 69.39 23.17L69.38 27.71C69.38 27.8 69.46 27.88 69.55 27.88Z" fill="#767676" fill-opacity="1.000000" fill-rule="nonzero"/>
		<path id="Vector" d="M73.23 27.96L74.83 28.09C74.92 28.1 75 28.03 75.01 27.93L75.05 27.49C75.06 27.39 74.99 27.31 74.89 27.3L73.94 27.22L74.06 25.75L74.66 25.8C74.75 25.81 74.84 25.74 74.84 25.64L74.88 25.21C74.89 25.11 74.82 25.03 74.72 25.02L74.12 24.97L74.21 23.94L75.16 24.02C75.25 24.02 75.33 23.95 75.34 23.86L75.38 23.41C75.39 23.31 75.32 23.23 75.22 23.22L73.62 23.09C73.53 23.08 73.45 23.15 73.44 23.25L73.07 27.77C73.06 27.87 73.13 27.95 73.23 27.96Z" fill="#767676" fill-opacity="1.000000" fill-rule="nonzero"/>
		<path id="Vector" d="M76.25 28.28L76.38 28.29L76.27 28.45C76.25 28.48 76.23 28.52 76.22 28.56L76.2 28.69C76.2 28.75 76.24 28.8 76.29 28.81L76.52 28.84C76.56 28.85 76.62 28.81 76.62 28.75L76.63 28.72C76.63 28.69 76.66 28.65 76.67 28.64L76.82 28.41C76.84 28.37 76.85 28.34 76.86 28.31L76.94 27.73C76.95 27.63 76.89 27.55 76.81 27.54L76.36 27.47C76.26 27.46 76.18 27.52 76.17 27.61L76.1 28.08C76.09 28.18 76.15 28.26 76.25 28.28Z" fill="#767676" fill-opacity="1.000000" fill-rule="nonzero"/>
		<path id="Vector" d="M78.15 28.58L79.31 28.83C79.9 28.95 80.49 28.56 80.61 27.96L81.14 25.38C81.27 24.77 80.89 24.17 80.3 24.05L79.14 23.79C79.05 23.77 78.95 23.84 78.93 23.94L78.02 28.37C78 28.47 78.06 28.55 78.15 28.58ZM79.61 24.7L80.14 24.82C80.29 24.85 80.39 25 80.36 25.15L79.8 27.82C79.77 27.97 79.63 28.07 79.48 28.04L78.95 27.92L79.61 24.7Z" fill="#767676" fill-opacity="1.000000" fill-rule="nonzero"/>
		<path id="Vector" d="M81.61 29.4L82.07 29.53C82.17 29.56 82.26 29.51 82.28 29.42L83.49 25.05C83.52 24.96 83.46 24.86 83.37 24.83L82.91 24.7C82.82 24.67 82.72 24.73 82.7 24.83L81.49 29.19C81.47 29.28 81.52 29.38 81.61 29.4Z" fill="#767676" fill-opacity="1.000000" fill-rule="nonzero"/>
		<path id="Vector" d="M83.55 29.99L85.06 30.53C85.15 30.57 85.25 30.52 85.28 30.43L85.43 30.01C85.46 29.91 85.41 29.82 85.32 29.78L84.42 29.46L84.9 28.07L85.47 28.27C85.56 28.31 85.65 28.26 85.69 28.17L85.83 27.76C85.86 27.67 85.81 27.57 85.72 27.53L85.15 27.33L85.49 26.35L86.39 26.67C86.48 26.71 86.57 26.66 86.61 26.57L86.75 26.14C86.78 26.05 86.74 25.96 86.65 25.92L85.13 25.38C85.04 25.35 84.94 25.4 84.91 25.49L83.44 29.77C83.41 29.86 83.46 29.96 83.55 29.99Z" fill="#767676" fill-opacity="1.000000" fill-rule="nonzero"/>
		<path id="Vector" d="M87.17 31.41L87.46 31.54C88.01 31.79 88.66 31.53 88.9 30.97L89.24 30.19C89.48 29.62 89.24 28.96 88.68 28.71L88.39 28.58C88.26 28.52 88.19 28.36 88.25 28.22L88.42 27.83C88.48 27.69 88.64 27.63 88.78 27.69L89.06 27.82C89.2 27.88 89.27 28.04 89.21 28.18L89.15 28.31C89.11 28.4 89.15 28.5 89.24 28.54L89.67 28.74C89.76 28.78 89.86 28.74 89.9 28.65L89.95 28.54C90.19 27.98 89.94 27.32 89.39 27.07L89.1 26.94C88.55 26.69 87.9 26.95 87.66 27.51L87.5 27.88C87.26 28.44 87.52 29.09 88.06 29.34L88.35 29.47C88.49 29.53 88.55 29.69 88.49 29.83L88.13 30.66C88.07 30.8 87.91 30.87 87.77 30.81L87.49 30.68C87.35 30.62 87.29 30.45 87.35 30.31L87.58 29.75C87.62 29.66 87.58 29.56 87.5 29.52L87.06 29.32C86.97 29.28 86.88 29.32 86.84 29.41L86.61 29.94C86.37 30.5 86.62 31.17 87.17 31.41Z" fill="#767676" fill-opacity="1.000000" fill-rule="nonzero"/>
		<path id="Vector" d="M89.58 32.57L90.99 33.35C91.07 33.4 91.18 33.37 91.22 33.28L91.43 32.89C91.47 32.8 91.44 32.7 91.36 32.65L90.52 32.19L91.21 30.9L91.74 31.19C91.82 31.23 91.92 31.2 91.97 31.12L92.17 30.74C92.21 30.65 92.18 30.55 92.1 30.5L91.57 30.21L92.05 29.29L92.89 29.76C92.97 29.8 93.07 29.77 93.12 29.68L93.33 29.29C93.37 29.21 93.34 29.1 93.26 29.06L91.84 28.28C91.76 28.23 91.66 28.26 91.61 28.35L89.51 32.34C89.46 32.42 89.49 32.53 89.58 32.57Z" fill="#767676" fill-opacity="1.000000" fill-rule="nonzero"/>
		<path id="Vector" d="M92.24 34.1L93.59 34.98C93.67 35.03 93.78 35.01 93.83 34.93L94.06 34.55C94.11 34.47 94.09 34.36 94.01 34.31L93.2 33.79L95.26 30.48C95.31 30.4 95.28 30.29 95.2 30.24L94.8 29.98C94.72 29.92 94.61 29.95 94.56 30.03L92.18 33.86C92.13 33.94 92.16 34.05 92.24 34.1Z" fill="#767676" fill-opacity="1.000000" fill-rule="nonzero"/>
		<path id="Vector" d="M94.91 35.14L94.64 35.52C94.59 35.6 94.61 35.7 94.68 35.76L94.79 35.84L94.63 35.92C94.59 35.94 94.56 35.97 94.53 36L94.46 36.11C94.42 36.15 94.44 36.22 94.47 36.25L94.66 36.39C94.7 36.41 94.77 36.4 94.8 36.36L94.82 36.33C94.84 36.3 94.88 36.29 94.89 36.28L95.14 36.15C95.17 36.13 95.19 36.1 95.21 36.07L95.55 35.6C95.61 35.52 95.59 35.42 95.52 35.37L95.15 35.1C95.07 35.05 94.97 35.06 94.91 35.14Z" fill="#767676" fill-opacity="1.000000" fill-rule="nonzero"/>
		<path id="Vector" d="M96.62 37.26C96.7 37.32 96.8 37.31 96.86 37.23L98.15 35.61L98.62 36C98.7 36.06 98.8 36.05 98.86 35.97L99.13 35.63C99.19 35.56 99.19 35.45 99.11 35.39L98.64 35L99.28 34.2L100.02 34.81C100.09 34.87 100.2 34.87 100.26 34.79L100.53 34.44C100.59 34.36 100.58 34.26 100.51 34.2L99.26 33.16C99.19 33.1 99.08 33.11 99.02 33.18L96.22 36.71C96.16 36.78 96.17 36.89 96.24 36.95L96.62 37.26Z" fill="#767676" fill-opacity="1.000000" fill-rule="nonzero"/>
		<path id="Vector" d="M99 39.36L99.55 39.89C99.9 40.23 100.46 40.22 100.79 39.86L103.36 37.1C103.42 37.03 103.43 36.92 103.36 36.85L103.01 36.51C102.94 36.45 102.83 36.46 102.76 36.53L100.25 39.23C100.18 39.3 100.07 39.3 100 39.23L99.64 38.87C99.57 38.8 99.56 38.69 99.62 38.62L102.14 35.92C102.2 35.85 102.21 35.74 102.14 35.67L101.79 35.33C101.72 35.27 101.61 35.27 101.54 35.34L98.97 38.11C98.65 38.46 98.66 39.03 99 39.36Z" fill="#767676" fill-opacity="1.000000" fill-rule="nonzero"/>
		<path id="Vector" d="M101.09 41.49L102.16 42.72C102.23 42.79 102.33 42.8 102.4 42.73L102.73 42.43C102.8 42.36 102.81 42.25 102.74 42.18L102.11 41.46L103.18 40.47L103.58 40.93C103.65 41.01 103.75 41.01 103.83 40.94L104.14 40.65C104.21 40.59 104.22 40.48 104.15 40.41L103.75 39.95L104.51 39.25L105.14 39.98C105.2 40.05 105.31 40.06 105.38 39.99L105.71 39.69C105.78 39.62 105.79 39.51 105.72 39.44L104.65 38.22C104.59 38.15 104.48 38.14 104.41 38.21L101.1 41.23C101.03 41.31 101.03 41.42 101.09 41.49Z" fill="#767676" fill-opacity="1.000000" fill-rule="nonzero"/>
		<path id="Vector" d="M103.08 43.85L104.06 45.14C104.12 45.22 104.22 45.23 104.3 45.17L104.65 44.9C104.72 44.84 104.74 44.73 104.68 44.65L104.09 43.88L107.12 41.48C107.19 41.42 107.21 41.31 107.15 41.24L106.86 40.85C106.8 40.78 106.69 40.76 106.62 40.82L103.11 43.6C103.03 43.66 103.02 43.77 103.08 43.85Z" fill="#767676" fill-opacity="1.000000" fill-rule="nonzero"/>
		<path id="Vector" d="M106.38 48.72L106.76 49.38C106.99 49.8 107.53 49.95 107.95 49.7L110.57 48.15C110.99 47.9 111.13 47.34 110.89 46.92L110.51 46.26C110.27 45.83 109.73 45.69 109.31 45.94L106.7 47.49C106.27 47.74 106.13 48.29 106.38 48.72ZM107.18 48.17L109.66 46.7C109.74 46.65 109.84 46.68 109.89 46.77L110.15 47.22C110.19 47.3 110.18 47.41 110.09 47.46L107.61 48.93C107.53 48.98 107.42 48.95 107.37 48.87L107.11 48.42C107.07 48.34 107.1 48.22 107.18 48.17Z" fill="#767676" fill-opacity="1.000000" fill-rule="nonzero"/>
		<path id="Vector" d="M107.81 51.38L108.02 51.82C108.06 51.91 108.16 51.94 108.25 51.9L112.22 49.89C112.31 49.85 112.35 49.74 112.31 49.65L112.09 49.22C112.05 49.13 111.95 49.1 111.86 49.14L107.88 51.15C107.8 51.19 107.76 51.3 107.81 51.38Z" fill="#767676" fill-opacity="1.000000" fill-rule="nonzero"/>
		<path id="Vector" d="M113.07 51.35C113.04 51.25 112.94 51.21 112.85 51.25L108.76 53.01C108.67 53.05 108.63 53.15 108.67 53.24L109.29 54.75C109.33 54.84 109.42 54.88 109.51 54.84L109.92 54.67C110.01 54.63 110.05 54.53 110.01 54.44L109.64 53.54L113.17 52.02C113.26 51.98 113.3 51.88 113.27 51.79L113.07 51.35Z" fill="#767676" fill-opacity="1.000000" fill-rule="nonzero"/>
	</g>
</svg>
