<svg width="140.000000" height="140.000000" viewBox="0 0 140 140" fill="none" xmlns="http://www.w3.org/2000/svg" xmlns:xlink="http://www.w3.org/1999/xlink">
	<desc>
			Created with Pixso.
	</desc>
	<defs>
		<clipPath id="clip10_1591">
			<rect id="Frame" width="140.000000" height="140.000000" fill="white" fill-opacity="0"/>
		</clipPath>
	</defs>
	<rect id="Frame" width="140.000000" height="140.000000" fill="#FFFFFF" fill-opacity="0"/>
	<g clip-path="url(#clip10_1591)">
		<path id="Vector" d="M62.26 101.31C62.29 102.88 60.46 104.54 58.52 104.63C58.78 105.84 59.1 107.03 58.58 108.27C57.82 110.23 55.79 111.3 53.79 111.03C50.57 110.58 49.7 106.05 52.81 104.69C53.91 104.21 55.56 105.31 54.34 106.41C53.68 107.03 52.58 107.21 53.07 108.51C53.36 109.22 54.14 109.37 54.78 109.25C55.88 109.04 56.49 108.09 56.54 107.03C56.69 106.11 56.34 105.16 56.11 104.21C54.66 103.5 53.56 101.87 53.96 100.21C54.28 98.76 56.05 99.35 55.35 100.27C55.04 100.89 55.5 101.78 56.02 102.26C56.17 101.58 56.4 100.92 56.78 100.3C58.23 98.02 62.2 97.9 62.26 101.31ZM60.09 100.24C58.81 100.01 58.29 101.72 58.26 102.65C58.26 102.71 58.26 102.77 58.26 102.83C58.69 102.77 59.13 102.62 59.48 102.38C60.38 101.76 61.05 100.57 60.09 100.24Z" fill="#767676" fill-opacity="1.000000" fill-rule="nonzero"/>
		<path id="Vector" d="M66.06 101.04C65.77 101.4 65.22 102.11 64.61 103C64.81 103 64.99 103.03 65.08 103.03C65.54 103.06 65.05 104.31 64.5 104.31C64.3 104.31 64 104.28 63.72 104.28C62.35 106.26 60.99 108.4 61.19 108.58C61.57 108.99 63.4 106.89 64.15 106C64.67 105.41 65.34 106.09 64.79 106.71C63.48 108.1 61.54 110.83 59.97 110.53C58.81 110.35 58.35 109.02 59.31 107.69C59.71 107.1 60.58 105.67 61.48 104.22C61.33 104.22 61.19 104.22 61.05 104.22C60.52 104.22 61.07 102.94 61.6 102.92C61.75 102.92 62.01 102.92 62.29 102.92C63.22 101.43 64.03 100.16 64.3 99.92C64.76 99.48 65.31 99.12 65.78 99.24C66.23 99.38 66.93 100.04 66.06 101.04Z" fill="#767676" fill-opacity="1.000000" fill-rule="nonzero"/>
		<path id="Vector" d="M72.24 106.73C70.96 108.13 69.05 110.82 67.48 110.56C66.9 110.44 66.67 109.91 66.73 109.25C66.23 109.81 65.57 110.32 64.84 110.32C62.44 110.32 63.13 107.21 64.55 105.52C65.97 103.83 67.77 102.65 68.9 103.12C69.28 103.27 69.51 103.56 69.63 103.89C69.69 103.8 69.72 103.74 69.77 103.68C70.24 103.24 70.82 102.88 71.25 103.03C71.75 103.15 72.41 103.83 71.57 104.84C70.59 105.96 68.73 108.22 69.02 108.51C69.28 108.78 70.91 106.88 71.66 105.99C72.18 105.4 72.79 106.14 72.24 106.73ZM67.39 106.73C68.3 105.61 68.84 104.66 68.64 104.48C68.47 104.3 67.57 105.13 66.59 106.35C65.63 107.54 65.14 108.69 65.25 108.81C65.51 109.07 66.49 107.86 67.39 106.73Z" fill="#767676" fill-opacity="1.000000" fill-rule="nonzero"/>
		<path id="Vector" d="M77.35 101.04C77.06 101.4 76.5 102.11 75.9 103C76.1 103 76.27 103.03 76.36 103.03C76.83 103.06 76.33 104.31 75.78 104.31C75.58 104.31 75.29 104.28 75 104.28C73.64 106.26 72.27 108.4 72.47 108.58C72.85 108.99 74.68 106.89 75.43 106C75.96 105.41 76.62 106.09 76.07 106.71C74.77 108.1 72.82 110.83 71.26 110.53C70.09 110.35 69.63 109.02 70.59 107.69C71 107.1 71.87 105.67 72.76 104.22C72.62 104.22 72.47 104.22 72.33 104.22C71.8 104.22 72.36 102.94 72.88 102.92C73.03 102.92 73.29 102.92 73.58 102.92C74.5 101.43 75.32 100.16 75.58 99.92C76.05 99.48 76.59 99.12 77.06 99.24C77.52 99.38 78.21 100.04 77.35 101.04Z" fill="#767676" fill-opacity="1.000000" fill-rule="nonzero"/>
		<path id="Vector" d="M79.49 106.73C78.18 108.13 76.3 110.82 74.7 110.56C73.57 110.35 73.45 109.02 74.38 107.68C75.37 106.32 76.47 104.22 77 103.69C77.46 103.24 78.04 102.88 78.47 103.03C78.97 103.15 79.66 103.84 78.79 104.84C77.81 105.97 75.95 108.22 76.24 108.52C76.5 108.78 78.16 106.88 78.91 106C79.4 105.4 80.04 106.14 79.49 106.73ZM79.55 102.23C78.16 102.23 79.52 99.09 81.11 99.44C82.59 99.77 80.65 102.59 79.55 102.23Z" fill="#767676" fill-opacity="1.000000" fill-rule="nonzero"/>
		<path id="Vector" d="M86.45 106.73C86.02 107.18 85.55 107.77 85.06 108.34C83.96 109.55 83.61 110 82.54 109.79C82.36 109.76 82.25 109.7 82.13 109.61C81.43 110.11 80.74 110.38 80.16 110.38C78.18 110.38 77.55 108.33 78.74 106.29C79.93 104.22 81.87 102.88 83.26 102.88C84.74 102.88 85.87 104.13 84.71 106.47C84.34 107.21 83.9 107.86 83.43 108.42C83.64 108.33 83.98 108.07 84.34 107.68C84.88 107.12 85.47 106.44 85.84 105.99C86.36 105.4 87 106.14 86.45 106.73ZM83.17 104.63C82.33 104.63 79.49 108.72 80.3 108.72C80.91 108.72 84.02 104.63 83.17 104.63Z" fill="#767676" fill-opacity="1.000000" fill-rule="nonzero"/>
		<path id="Vector" d="M93.24 106.73C91.93 108.13 90.05 110.82 88.45 110.56C86.85 110.26 87.26 108.69 88.22 107.36C89.15 106.03 90.34 105.02 90.13 104.75C89.96 104.49 88.22 106.29 87.67 106.88C87.03 107.86 86.39 108.81 85.99 109.37C85.38 110.23 85.12 110.56 84.42 110.56C83.35 110.56 83.64 109.11 84.95 107.36C85.9 106.03 86.74 104.63 86.89 104.34C87.33 103.45 87.47 103 88.08 103C88.54 103 89.12 103.36 89.21 103.98C89.91 103.42 90.63 103 91.36 103C92.05 103 93.04 103.84 92.11 105.2C91.19 106.56 89.71 108.22 90 108.52C90.26 108.78 91.88 106.88 92.64 106C93.15 105.4 93.79 106.14 93.24 106.73Z" fill="#767676" fill-opacity="1.000000" fill-rule="nonzero"/>
		<path id="Vector" d="M18.81 64.08L19.81 65.97C21.17 68.58 20.22 71.85 17.7 73.24L15.47 74.46L20 83.07C20.22 83.48 20.07 83.98 19.67 84.2L17.64 85.32C17.23 85.54 16.75 85.39 16.53 84.98L6.4 65.76C6.18 65.34 6.33 64.85 6.73 64.62L11.71 61.88C14.23 60.5 17.44 61.48 18.81 64.08ZM15.26 65.84C14.91 65.19 14.14 64.93 13.51 65.28L11.28 66.51L13.58 70.89L15.81 69.66C16.45 69.31 16.66 68.51 16.33 67.88L15.26 65.84Z" fill="#767676" fill-opacity="1.000000" fill-rule="nonzero"/>
		<path id="Vector" d="M25.47 59.81L27.16 64.5L29.87 63.48C30.3 63.32 30.77 63.54 30.93 63.98L31.63 65.93C31.79 66.37 31.57 66.85 31.14 67.01L28.43 68.03L30.82 74.68L35.11 73.07C35.54 72.91 36.01 73.12 36.17 73.56L36.89 75.58C37.05 76.02 36.84 76.5 36.4 76.66L29.15 79.39C28.72 79.55 28.26 79.33 28.1 78.89L20.72 58.4C20.56 57.96 20.77 57.49 21.2 57.33L28.45 54.6C28.88 54.44 29.35 54.66 29.5 55.1L30.23 57.11C30.39 57.56 30.17 58.03 29.74 58.19L25.47 59.81Z" fill="#767676" fill-opacity="1.000000" fill-rule="nonzero"/>
		<path id="Vector" d="M43.55 51.33L44.07 53.48C44.18 53.94 43.89 54.39 43.47 54.5L40.73 55.19L45.15 73.41C45.26 73.87 45 74.32 44.55 74.43L42.32 75C41.9 75.1 41.43 74.84 41.32 74.38L36.9 56.16L34.19 56.85C33.74 56.96 33.3 56.69 33.19 56.24L32.67 54.09C32.56 53.63 32.82 53.18 33.27 53.07L42.55 50.72C42.97 50.61 43.44 50.87 43.55 51.33Z" fill="#767676" fill-opacity="1.000000" fill-rule="nonzero"/>
		<path id="Vector" d="M56.99 61.03L60.68 66.21C60.89 66.52 61 66.9 61.06 67.27L61.51 70.6C61.57 71.06 61.3 71.48 60.84 71.54L58.56 71.87C58.11 71.93 57.67 71.62 57.61 71.15L57.29 68.83C57.24 68.46 57.12 68.11 56.91 67.73L52.52 61.64L53.9 71.72C53.96 72.18 53.65 72.6 53.2 72.66L50.92 72.99C50.49 73.05 50.05 72.74 49.99 72.27L47.04 50.65C46.98 50.19 47.32 49.77 47.74 49.71L53.37 48.91C56.24 48.5 58.88 50.56 59.28 53.49L59.56 55.58C59.87 57.84 58.77 59.97 56.99 61.03ZM53.89 52.73L51.35 53.09L52.03 58.05L54.57 57.69C55.25 57.59 55.76 56.91 55.65 56.14L55.34 53.85C55.24 53.11 54.58 52.63 53.89 52.73Z" fill="#767676" fill-opacity="1.000000" fill-rule="nonzero"/>
		<path id="Vector" d="M74.51 51.76L75 66.63C75.08 69.02 73.24 70.99 70.94 71.07L67.33 71.2C64.99 71.28 63.06 69.43 62.98 67.05L62.48 52.18C62.4 49.79 64.21 47.78 66.55 47.7L70.16 47.58C72.46 47.5 74.43 49.38 74.51 51.76ZM70.57 52.24C70.56 51.76 70.15 51.44 69.69 51.46L67.26 51.55C66.8 51.56 66.42 51.91 66.43 52.38L66.9 66.48C66.92 66.95 67.33 67.34 67.78 67.32L70.21 67.23C70.68 67.22 71.06 66.8 71.04 66.33L70.57 52.24Z" fill="#767676" fill-opacity="1.000000" fill-rule="nonzero"/>
		<path id="Vector" d="M82.5 48.64L81.43 67.44L86.02 67.72C86.48 67.74 86.82 68.13 86.79 68.6L86.67 70.75C86.65 71.21 86.26 71.56 85.8 71.54L78.09 71.08C77.63 71.05 77.29 70.66 77.32 70.19L78.56 48.4C78.58 47.94 78.97 47.59 79.42 47.61L81.72 47.75C82.18 47.78 82.52 48.17 82.5 48.64Z" fill="#767676" fill-opacity="1.000000" fill-rule="nonzero"/>
		<path id="Vector" d="M94.64 52.85L93.94 57.8L96.81 58.23C97.26 58.29 97.57 58.71 97.5 59.18L97.21 61.24C97.15 61.7 96.74 62.02 96.28 61.95L93.42 61.53L92.43 68.54L96.95 69.21C97.41 69.27 97.72 69.69 97.65 70.16L97.35 72.28C97.28 72.75 96.87 73.06 96.42 73L88.77 71.87C88.32 71.8 88.01 71.38 88.08 70.92L91.12 49.31C91.19 48.85 91.6 48.54 92.06 48.6L99.7 49.73C100.16 49.8 100.46 50.22 100.4 50.68L100.1 52.81C100.03 53.27 99.62 53.59 99.17 53.52L94.64 52.85Z" fill="#767676" fill-opacity="1.000000" fill-rule="nonzero"/>
		<path id="Vector" d="M113.25 52.85L115.48 53.43C115.93 53.54 116.18 54.03 116.06 54.48L111.63 72.25C111.06 74.53 108.74 75.93 106.51 75.35L103.01 74.44C100.78 73.86 99.4 71.49 99.97 69.21L104.41 51.45C104.52 50.99 104.97 50.69 105.42 50.81L107.65 51.39C108.09 51.5 108.35 51.98 108.23 52.44L103.89 69.82C103.78 70.28 104.07 70.73 104.52 70.85L106.87 71.46C107.32 71.58 107.79 71.32 107.91 70.86L112.25 53.49C112.36 53.03 112.8 52.73 113.25 52.85Z" fill="#767676" fill-opacity="1.000000" fill-rule="nonzero"/>
		<path id="Vector" d="M129.12 79.95L127.93 82.82C127.74 83.25 127.24 83.43 126.85 83.26L124.74 82.32C124.32 82.13 124.13 81.65 124.31 81.22L125.33 78.81C125.42 78.63 125.48 78.47 125.53 78.28L128.57 68.02L123.34 76.68C123.13 77.03 122.71 77.17 122.34 77.01L120.05 75.99C119.69 75.83 119.48 75.41 119.57 75.01L122.21 65.2L116.94 74.46C116.83 74.63 116.76 74.79 116.69 74.97L115.66 77.37C115.48 77.8 115 77.99 114.58 77.81L112.47 76.87C112.05 76.68 111.87 76.19 112.05 75.76L113.3 72.91C113.34 72.82 113.43 72.61 113.57 72.37L123.1 56.73C123.31 56.38 123.73 56.24 124.13 56.41L126.39 57.42C126.78 57.6 126.96 58 126.87 58.4L123.9 70.08L130.27 59.91C130.49 59.57 130.91 59.43 131.27 59.59L133.56 60.6C133.95 60.78 134.14 61.19 134.04 61.58L129.33 79.37C129.25 79.64 129.16 79.85 129.12 79.95Z" fill="#767676" fill-opacity="1.000000" fill-rule="nonzero"/>
		<path id="Vector" d="M72.78 78.21C72.77 78.21 72.75 78.21 72.74 78.21C72.73 78.21 72.72 78.21 72.71 78.21C72.7 78.21 72.7 78.21 72.68 78.21C72.67 78.21 72.65 78.21 72.64 78.21C49.41 78.21 28.9 84.86 16.52 95.03L22.37 98.01L23.08 104.94C25.16 103.04 27.69 101.21 30.67 99.51C41.72 93.16 56.62 89.66 72.63 89.66C72.65 89.66 72.67 89.66 72.68 89.66C72.69 89.66 72.7 89.66 72.71 89.66C72.71 89.66 72.72 89.66 72.73 89.66C72.75 89.66 72.77 89.66 72.78 89.66C88.8 89.66 103.7 93.16 114.75 99.51C117.72 101.22 120.25 103.04 122.33 104.94L123.04 98.01L128.89 95.03C116.52 84.86 96.01 78.21 72.78 78.21Z" fill="#767676" fill-opacity="1.000000" fill-rule="nonzero"/>
		<path id="Vector" d="M47.76 107.51C48.98 107.51 48.98 105.57 47.76 105.57C46.53 105.57 46.53 107.51 47.76 107.51Z" fill="#767676" fill-opacity="1.000000" fill-rule="nonzero"/>
		<path id="Vector" d="M96.28 107.51C97.51 107.51 97.51 105.57 96.28 105.57C95.05 105.57 95.05 107.51 96.28 107.51Z" fill="#767676" fill-opacity="1.000000" fill-rule="nonzero"/>
		<path id="Vector" d="M29.52 94.55C29.86 95.13 29.67 95.88 29.11 96.23C28.55 96.57 27.81 96.39 27.47 95.81C27.13 95.23 27.32 94.47 27.88 94.13C28.44 93.78 29.18 93.98 29.52 94.55Z" fill="#FFFFFF" fill-opacity="1.000000" fill-rule="nonzero"/>
		<path id="Vector" d="M35.64 92.11L36.07 93.05C36.39 93.75 36.1 94.58 35.42 94.92L33.94 95.63C33.83 95.68 33.7 95.63 33.65 95.52L31.27 90.35C31.22 90.24 31.26 90.11 31.37 90.06L32.72 89.41C33.41 89.08 34.23 89.39 34.55 90.09L34.79 90.6C34.91 90.86 34.95 91.14 34.9 91.4C35.22 91.53 35.48 91.77 35.64 92.11ZM33.08 91.79L33.69 91.5C33.86 91.42 33.93 91.21 33.85 91.04L33.6 90.49C33.52 90.31 33.31 90.24 33.15 90.32L32.53 90.61L33.08 91.79ZM34.68 92.51C34.6 92.33 34.39 92.26 34.23 92.33L33.49 92.69L34.25 94.34L34.99 93.99C35.16 93.91 35.23 93.7 35.15 93.52L34.68 92.51Z" fill="#FFFFFF" fill-opacity="1.000000" fill-rule="nonzero"/>
		<path id="Vector" d="M36.53 88.8L37.02 90.01L37.72 89.72C37.83 89.67 37.95 89.73 38 89.84L38.2 90.34C38.25 90.46 38.19 90.58 38.08 90.63L37.38 90.92L38.06 92.64L39.17 92.18C39.28 92.14 39.41 92.19 39.45 92.3L39.66 92.82C39.7 92.94 39.65 93.06 39.54 93.11L37.67 93.89C37.55 93.93 37.43 93.88 37.39 93.77L35.28 88.47C35.24 88.36 35.29 88.23 35.4 88.18L37.28 87.41C37.39 87.36 37.51 87.41 37.55 87.53L37.76 88.05C37.8 88.16 37.75 88.29 37.64 88.33L36.53 88.8Z" fill="#FFFFFF" fill-opacity="1.000000" fill-rule="nonzero"/>
		<path id="Vector" d="M40.98 87.69L40.92 87.51C40.86 87.33 40.67 87.24 40.49 87.3L40.11 87.44C39.93 87.5 39.84 87.7 39.9 87.88L40.07 88.38C40.13 88.57 40.33 88.66 40.51 88.6L40.88 88.47C41.61 88.21 42.38 88.59 42.64 89.33L42.98 90.36C43.23 91.08 42.85 91.89 42.14 92.15L41.77 92.28C41.05 92.54 40.26 92.15 40.01 91.41L39.78 90.73C39.74 90.62 39.8 90.49 39.91 90.45L40.48 90.25C40.59 90.21 40.71 90.27 40.75 90.39L41 91.11C41.06 91.29 41.26 91.39 41.44 91.32L41.81 91.19C41.99 91.13 42.09 90.92 42.03 90.74L41.66 89.66C41.59 89.48 41.4 89.39 41.22 89.45L40.85 89.58C40.13 89.83 39.34 89.46 39.1 88.73L38.93 88.25C38.69 87.52 39.07 86.72 39.78 86.46L40.15 86.33C40.88 86.07 41.66 86.46 41.91 87.19L41.96 87.34C42 87.45 41.94 87.58 41.82 87.62L41.26 87.82C41.14 87.86 41.02 87.8 40.98 87.69Z" fill="#FFFFFF" fill-opacity="1.000000" fill-rule="nonzero"/>
		<path id="Vector" d="M45.24 84.93L45.41 85.49C45.44 85.61 45.37 85.73 45.26 85.77L44.55 85.98L45.91 90.69C45.95 90.81 45.89 90.93 45.77 90.97L45.19 91.14C45.08 91.17 44.96 91.11 44.92 90.99L43.56 86.28L42.86 86.49C42.74 86.52 42.62 86.46 42.59 86.34L42.43 85.78C42.4 85.66 42.46 85.54 42.57 85.51L44.98 84.78C45.09 84.76 45.21 84.81 45.24 84.93Z" fill="#FFFFFF" fill-opacity="1.000000" fill-rule="nonzero"/>
		<path id="Vector" d="M52.06 88.31L52.4 88.23C52.5 88.21 52.63 88.28 52.65 88.4L52.77 88.96C52.8 89.08 52.72 89.2 52.6 89.23L50.94 89.6C50.28 89.75 49.63 89.33 49.49 88.67L48.71 85.07C48.56 84.4 48.98 83.74 49.63 83.59L50.34 83.43C51 83.28 51.64 83.71 51.79 84.38L52.43 87.34C52.51 87.71 52.35 88.09 52.06 88.31ZM50.78 84.6C50.75 84.48 50.63 84.4 50.51 84.43L49.89 84.57C49.77 84.6 49.69 84.72 49.72 84.84L50.5 88.44C50.52 88.56 50.64 88.63 50.76 88.61L51.6 88.42L50.78 84.6Z" fill="#FFFFFF" fill-opacity="1.000000" fill-rule="nonzero"/>
		<path id="Vector" d="M55.04 82.51L55.64 82.4C55.75 82.38 55.87 82.47 55.88 82.59L56.69 87.32C56.8 87.93 56.39 88.52 55.8 88.62L54.86 88.79C54.27 88.89 53.69 88.48 53.59 87.87L52.78 83.14C52.76 83.02 52.83 82.9 52.95 82.88L53.54 82.78C53.66 82.75 53.78 82.84 53.79 82.96L54.58 87.59C54.61 87.71 54.72 87.78 54.84 87.76L55.47 87.65C55.58 87.63 55.67 87.52 55.65 87.4L54.86 82.77C54.85 82.65 54.93 82.53 55.04 82.51Z" fill="#FFFFFF" fill-opacity="1.000000" fill-rule="nonzero"/>
		<path id="Vector" d="M60.75 86.89L60.85 87.65C60.86 87.78 60.78 87.89 60.66 87.9L60.05 87.98C59.94 88 59.84 87.92 59.82 87.79L59.72 87L58.57 87.15L58.68 87.95C58.69 88.07 58.61 88.18 58.49 88.19L57.89 88.28C57.77 88.29 57.67 88.21 57.65 88.08L57.55 87.32C57.55 87.28 57.55 87.26 57.55 87.2L57.66 82.29C57.66 82.17 57.75 82.08 57.86 82.07L59.14 81.9C59.25 81.88 59.35 81.97 59.38 82.06L60.72 86.78C60.74 86.83 60.74 86.85 60.75 86.89ZM59.47 86.03L58.62 83.01L58.57 86.15L59.47 86.03Z" fill="#FFFFFF" fill-opacity="1.000000" fill-rule="nonzero"/>
		<path id="Vector" d="M62.14 81.78L62.6 86.69L63.8 86.57C63.92 86.56 64.02 86.64 64.04 86.77L64.09 87.33C64.1 87.45 64.01 87.56 63.89 87.57L61.88 87.77C61.76 87.78 61.66 87.69 61.64 87.57L61.11 81.88C61.1 81.75 61.18 81.65 61.3 81.64L61.9 81.58C62.02 81.57 62.13 81.65 62.14 81.78Z" fill="#FFFFFF" fill-opacity="1.000000" fill-rule="nonzero"/>
		<path id="Vector" d="M65.71 87.43L65.1 87.48C64.98 87.49 64.88 87.4 64.87 87.27L64.48 81.58C64.47 81.45 64.56 81.34 64.68 81.33L65.28 81.29C65.4 81.28 65.5 81.38 65.51 81.5L65.9 87.2C65.91 87.32 65.83 87.43 65.71 87.43Z" fill="#FFFFFF" fill-opacity="1.000000" fill-rule="nonzero"/>
		<path id="Vector" d="M69.38 81.3L69.4 81.88C69.41 82 69.31 82.1 69.2 82.11L68.46 82.14L68.67 87.05C68.67 87.18 68.58 87.28 68.46 87.28L67.86 87.31C67.75 87.31 67.64 87.22 67.64 87.1L67.43 82.19L66.7 82.22C66.58 82.22 66.48 82.13 66.47 82.01L66.45 81.43C66.45 81.31 66.53 81.21 66.65 81.2L69.16 81.09C69.26 81.08 69.37 81.18 69.38 81.3Z" fill="#FFFFFF" fill-opacity="1.000000" fill-rule="nonzero"/>
		<path id="Vector" d="M72.66 81.04L73.26 81.03C73.38 81.03 73.48 81.12 73.48 81.25L73.49 82.12C73.49 82.21 73.47 82.31 73.43 82.4L72.35 84.7L72.38 86.97C72.38 87.09 72.28 87.19 72.16 87.19L71.56 87.2C71.44 87.2 71.34 87.1 71.34 86.98L71.32 84.71L70.2 82.43C70.16 82.34 70.13 82.24 70.13 82.15L70.13 81.28C70.13 81.15 70.22 81.05 70.34 81.05L70.94 81.05C71.06 81.05 71.16 81.14 71.16 81.26L71.17 81.93C71.17 82.01 71.19 82.08 71.22 82.14L71.83 83.38L72.41 82.12C72.43 82.07 72.45 81.99 72.45 81.92L72.44 81.25C72.44 81.14 72.54 81.04 72.66 81.04Z" fill="#FFFFFF" fill-opacity="1.000000" fill-rule="nonzero"/>
		<path id="Vector" d="M78.95 84.29C78.92 84.97 78.36 85.49 77.7 85.46C77.04 85.43 76.53 84.86 76.56 84.18C76.59 83.51 77.16 82.98 77.81 83.01C78.48 83.05 78.98 83.63 78.95 84.29Z" fill="#FFFFFF" fill-opacity="1.000000" fill-rule="nonzero"/>
		<path id="Vector" d="M85.36 85.51L85.25 86.54C85.18 87.31 84.5 87.87 83.75 87.79L82.12 87.62C82 87.61 81.92 87.5 81.93 87.38L82.51 81.69C82.53 81.57 82.63 81.48 82.75 81.5L84.24 81.66C85 81.74 85.54 82.43 85.46 83.2L85.4 83.77C85.37 84.06 85.27 84.31 85.09 84.52C85.3 84.8 85.4 85.14 85.36 85.51ZM84.34 85.35C84.36 85.15 84.22 84.98 84.04 84.96L83.23 84.87L83.04 86.69L83.85 86.78C84.03 86.8 84.21 86.65 84.22 86.46L84.34 85.35ZM83.33 83.89L84 83.96C84.18 83.98 84.36 83.83 84.37 83.65L84.44 83.05C84.46 82.86 84.32 82.68 84.14 82.66L83.46 82.59L83.33 83.89Z" fill="#FFFFFF" fill-opacity="1.000000" fill-rule="nonzero"/>
		<path id="Vector" d="M87.74 83.11L87.56 84.41L88.31 84.52C88.43 84.53 88.51 84.64 88.49 84.76L88.41 85.3C88.39 85.42 88.29 85.51 88.17 85.49L87.42 85.38L87.16 87.22L88.35 87.39C88.47 87.41 88.55 87.52 88.53 87.64L88.45 88.19C88.43 88.32 88.33 88.4 88.21 88.38L86.2 88.09C86.08 88.07 86.01 87.96 86.02 87.84L86.81 82.18C86.83 82.06 86.94 81.98 87.06 82L89.06 82.29C89.18 82.31 89.26 82.42 89.24 82.54L89.17 83.09C89.15 83.22 89.04 83.3 88.92 83.28L87.74 83.11Z" fill="#FFFFFF" fill-opacity="1.000000" fill-rule="nonzero"/>
		<path id="Vector" d="M92.11 84.4L92.14 84.22C92.18 84.03 92.05 83.85 91.86 83.82L91.48 83.75C91.29 83.71 91.11 83.83 91.08 84.02L90.98 84.55C90.95 84.74 91.07 84.92 91.26 84.96L91.65 85.03C92.4 85.17 92.89 85.9 92.75 86.66L92.56 87.72C92.43 88.49 91.71 89 90.96 88.86L90.58 88.79C89.83 88.65 89.33 87.91 89.47 87.15L89.59 86.44C89.62 86.32 89.73 86.24 89.84 86.27L90.44 86.38C90.55 86.4 90.63 86.51 90.61 86.63L90.47 87.38C90.44 87.58 90.56 87.76 90.75 87.79L91.14 87.86C91.33 87.9 91.51 87.77 91.54 87.58L91.74 86.45C91.77 86.26 91.65 86.09 91.46 86.05L91.07 85.98C90.33 85.84 89.83 85.11 89.96 84.35L90.05 83.86C90.19 83.1 90.91 82.59 91.65 82.73L92.04 82.8C92.79 82.94 93.29 83.67 93.15 84.43L93.12 84.58C93.1 84.7 92.99 84.78 92.87 84.75L92.28 84.64C92.17 84.64 92.09 84.53 92.11 84.4Z" fill="#FFFFFF" fill-opacity="1.000000" fill-rule="nonzero"/>
		<path id="Vector" d="M97.11 84.12L96.99 84.69C96.96 84.81 96.84 84.88 96.73 84.85L96.01 84.69L94.96 89.48C94.93 89.6 94.82 89.68 94.7 89.65L94.11 89.51C94 89.49 93.92 89.37 93.95 89.25L95.01 84.46L94.29 84.29C94.17 84.26 94.1 84.15 94.13 84.03L94.25 83.46C94.28 83.34 94.39 83.27 94.51 83.3L96.95 83.86C97.06 83.89 97.14 84 97.11 84.12Z" fill="#FFFFFF" fill-opacity="1.000000" fill-rule="nonzero"/>
		<path id="Vector" d="M102.97 87.02L102.81 87.56C102.59 88.3 101.82 88.73 101.1 88.51L100.47 88.31L99.75 90.76C99.72 90.88 99.6 90.95 99.48 90.91L98.9 90.74C98.79 90.7 98.73 90.58 98.76 90.46L100.36 84.99C100.4 84.87 100.52 84.8 100.63 84.84L102.05 85.27C102.76 85.49 103.18 86.28 102.97 87.02ZM101.99 86.68C102.04 86.49 101.95 86.3 101.76 86.24L101.13 86.05L100.77 87.29L101.4 87.49C101.59 87.55 101.77 87.44 101.82 87.26L101.99 86.68Z" fill="#FFFFFF" fill-opacity="1.000000" fill-rule="nonzero"/>
		<path id="Vector" d="M105.41 89.87L105.66 91.52C105.67 91.62 105.66 91.72 105.63 91.82L105.34 92.65C105.3 92.76 105.19 92.83 105.07 92.79L104.51 92.58C104.39 92.54 104.33 92.41 104.37 92.3L104.57 91.72C104.6 91.63 104.62 91.53 104.61 91.41L104.31 89.46L103.44 91.97C103.4 92.09 103.28 92.15 103.17 92.11L102.6 91.9C102.49 91.86 102.43 91.74 102.47 91.62L104.33 86.23C104.37 86.11 104.5 86.06 104.6 86.09L106.01 86.6C106.72 86.86 107.09 87.66 106.84 88.39L106.66 88.91C106.46 89.48 105.96 89.84 105.41 89.87ZM105.67 87.55L105.04 87.32L104.61 88.56L105.25 88.79C105.42 88.85 105.62 88.75 105.68 88.56L105.88 87.99C105.94 87.81 105.85 87.61 105.67 87.55Z" fill="#FFFFFF" fill-opacity="1.000000" fill-rule="nonzero"/>
		<path id="Vector" d="M106.8 93.49L106.24 93.26C106.13 93.22 106.08 93.09 106.12 92.98L108.19 87.68C108.24 87.56 108.36 87.5 108.47 87.55L109.03 87.77C109.15 87.82 109.2 87.95 109.15 88.07L107.08 93.37C107.04 93.48 106.91 93.54 106.8 93.49Z" fill="#FFFFFF" fill-opacity="1.000000" fill-rule="nonzero"/>
		<path id="Vector" d="M111.09 92.28L111.64 92.54C111.75 92.59 111.8 92.72 111.74 92.84L111.14 94.2C110.89 94.76 110.24 95.02 109.69 94.76L108.82 94.37C108.27 94.11 108.02 93.44 108.27 92.88L109.84 89.32C110.09 88.75 110.74 88.5 111.3 88.75L112.16 89.15C112.72 89.41 112.96 90.07 112.71 90.64L112.33 91.52C112.28 91.63 112.15 91.69 112.04 91.64L111.49 91.39C111.38 91.34 111.33 91.2 111.39 91.09L111.74 90.3C111.78 90.18 111.73 90.05 111.63 90L111.04 89.73C110.93 89.68 110.8 89.73 110.75 89.84L109.26 93.21C109.22 93.32 109.27 93.45 109.38 93.5L109.97 93.77C110.07 93.82 110.21 93.77 110.26 93.66L110.81 92.41C110.85 92.29 110.98 92.23 111.09 92.28Z" fill="#FFFFFF" fill-opacity="1.000000" fill-rule="nonzero"/>
		<path id="Vector" d="M114.72 91.54L114.13 92.7L114.8 93.06C114.91 93.12 114.95 93.25 114.89 93.36L114.64 93.84C114.59 93.95 114.46 93.99 114.35 93.94L113.68 93.58L112.84 95.22L113.9 95.79C114.01 95.84 114.05 95.97 114 96.08L113.74 96.58C113.68 96.69 113.56 96.73 113.45 96.67L111.66 95.72C111.55 95.66 111.51 95.53 111.56 95.42L114.16 90.35C114.21 90.24 114.34 90.2 114.45 90.26L116.24 91.22C116.35 91.27 116.39 91.4 116.33 91.51L116.08 92.01C116.02 92.12 115.89 92.16 115.79 92.1L114.72 91.54Z" fill="#FFFFFF" fill-opacity="1.000000" fill-rule="nonzero"/>
		<path id="Vector" d="M117.92 95.78C117.58 96.36 116.84 96.55 116.28 96.2C115.72 95.86 115.52 95.11 115.86 94.53C116.2 93.95 116.94 93.76 117.5 94.1C118.08 94.45 118.25 95.21 117.92 95.78Z" fill="#FFFFFF" fill-opacity="1.000000" fill-rule="nonzero"/>
		<path id="Vector" d="M75.35 34.81C75.35 38.24 72.63 41.02 69.28 41.02C65.92 41.02 63.2 38.24 63.2 34.81C63.2 31.39 69.28 22.08 69.28 22.08C69.28 22.08 75.35 31.39 75.35 34.81Z" fill="#767676" fill-opacity="1.000000" fill-rule="nonzero"/>
		<path id="Vector" d="M56.47 43.3C54.13 43.3 52.22 41.35 52.22 38.96C52.22 36.77 55.61 31.51 56 30.92L56.48 30.2L56.95 30.92C57.34 31.51 60.73 36.77 60.73 38.96C60.73 41.35 58.82 43.3 56.47 43.3ZM56.47 32.31C55.31 34.2 53.36 37.61 53.36 38.96C53.36 40.71 54.76 42.14 56.47 42.14C58.19 42.14 59.59 40.71 59.59 38.96C59.59 37.61 57.64 34.19 56.47 32.31Z" fill="#767676" fill-opacity="1.000000" fill-rule="nonzero"/>
		<path id="Vector" d="M83.44 42.55C81.1 42.55 79.19 40.6 79.19 38.21C79.19 36.02 82.58 30.76 82.97 30.17L83.44 29.44L83.92 30.17C84.31 30.76 87.7 36.02 87.7 38.21C87.69 40.6 85.78 42.55 83.44 42.55ZM83.44 31.56C82.27 33.44 80.33 36.85 80.33 38.21C80.33 39.96 81.72 41.39 83.44 41.39C85.15 41.39 86.55 39.96 86.55 38.21C86.55 36.85 84.61 33.44 83.44 31.56Z" fill="#767676" fill-opacity="1.000000" fill-rule="nonzero"/>
	</g>
</svg>
